<?xml version="1.0" encoding="UTF-8" standalone="no"?>
<!DOCTYPE svg PUBLIC "-//W3C//DTD SVG 1.1//EN" "http://www.w3.org/Graphics/SVG/1.1/DTD/svg11.dtd">
<svg width="100%" height="100%" viewBox="0 0 96 96" version="1.1" xmlns="http://www.w3.org/2000/svg" xmlns:xlink="http://www.w3.org/1999/xlink" xml:space="preserve" xmlns:serif="http://www.serif.com/" style="fill-rule:evenodd;clip-rule:evenodd;stroke-linecap:round;stroke-linejoin:round;stroke-miterlimit:1.5;">
    <g id="Data-Conversion" serif:id="Data Conversion" transform="matrix(0.844443,0,0,0.843647,11.4622,5.11099)">
        <g transform="matrix(1.38902,-0.801951,1.51358,0.881717,-235.945,100.948)">
            <path d="M116.837,60.49L140.839,38.463L140.839,38.458C142.564,36.953 149.484,33.746 152.907,36.737C156.879,40.208 153.334,46.279 151.456,48.129L129.111,68.635C129.111,68.635 130.677,67.361 129.135,68.613C127.807,69.692 126.044,70.339 124.125,70.339C120.86,70.339 118.078,68.441 117.043,65.792L116.837,60.485" style="fill:white;"/>
        </g>
        <g transform="matrix(1.38902,-0.801951,1.51358,0.881717,-208.336,107.829)">
            <path d="M122.232,55.539L140.839,38.463L140.839,38.458C142.564,36.953 149.484,33.746 152.907,36.737C156.879,40.208 153.334,46.279 151.456,48.129L129.111,68.635C129.111,68.635 130.677,67.361 129.135,68.613C127.807,69.692 126.044,70.339 124.125,70.339C120.86,70.339 118.078,68.441 117.043,65.792L112.911,65.792L112.889,61.24L112.872,61.242L119.087,55.539L119.096,55.539L122.223,55.542" style="fill:white;"/>
        </g>
        <g transform="matrix(1.38902,-0.801951,1.51358,0.881717,-230.842,120.823)">
            <path d="M122.232,55.539L140.839,38.463L140.839,38.458C142.564,36.953 149.484,33.746 152.907,36.737C156.879,40.208 153.334,46.279 151.456,48.129L129.111,68.635C129.111,68.635 130.677,67.361 129.135,68.613C127.807,69.692 126.044,70.339 124.125,70.339C120.86,70.339 118.078,68.441 117.043,65.792L112.911,65.792L112.889,61.24L112.872,61.242L119.087,55.539L119.096,55.539L122.223,55.542" style="fill:white;"/>
        </g>
        <g transform="matrix(1.38902,-0.801951,1.51358,0.881717,-235.945,100.948)">
            <path d="M116.837,60.49L140.839,38.463L140.839,38.458C142.564,36.953 149.484,33.746 152.907,36.737C156.879,40.208 153.334,46.279 151.456,48.129L129.111,68.635C129.111,68.635 130.677,67.361 129.135,68.613C127.807,69.692 126.044,70.339 124.125,70.339C120.86,70.339 118.078,68.441 117.043,65.792L116.837,60.485" style="fill:rgb(90,169,230);fill-opacity:0.4;"/>
        </g>
        <g transform="matrix(1.38902,-0.801951,1.51358,0.881717,-208.336,107.829)">
            <path d="M122.232,55.539L140.839,38.463L140.839,38.458C142.564,36.953 149.484,33.746 152.907,36.737C156.879,40.208 153.334,46.279 151.456,48.129L129.111,68.635C129.111,68.635 130.677,67.361 129.135,68.613C127.807,69.692 126.044,70.339 124.125,70.339C120.86,70.339 118.078,68.441 117.043,65.792L112.911,65.792L112.889,61.24L112.872,61.242L119.087,55.539L119.096,55.539L122.223,55.542" style="fill:rgb(90,169,230);fill-opacity:0.7;"/>
        </g>
        <g transform="matrix(1.38902,-0.801951,1.51358,0.881717,-230.842,120.823)">
            <path d="M122.232,55.539L140.839,38.463L140.839,38.458C142.564,36.953 149.484,33.746 152.907,36.737C156.879,40.208 153.334,46.279 151.456,48.129L129.111,68.635C129.111,68.635 130.677,67.361 129.135,68.613C127.807,69.692 126.044,70.339 124.125,70.339C120.86,70.339 118.078,68.441 117.043,65.792L112.911,65.792L112.889,61.24L112.872,61.242L119.087,55.539L119.096,55.539L122.223,55.542" style="fill:rgb(90,169,230);"/>
        </g>
        <g id="Layer3" transform="matrix(1.18421,0,0,1.18533,-13.5736,-6.05821)">
            <g transform="matrix(1.17295,-0.676564,1.27813,0.743858,-183.464,107.039)">
                <path d="M117.043,65.792L122.009,61.235L123.181,55.763L122.006,55.763L121.985,55.764L140.839,38.463L140.839,38.458C142.564,36.953 149.484,33.746 152.907,36.737C152.973,36.795 153.038,36.854 153.1,36.913C140.642,38.101 140.59,48.394 140.59,48.394L118.836,68.358C118.043,67.643 117.425,66.768 117.043,65.792" style="fill-opacity:0.4;"/>
            </g>
            <g transform="matrix(1.17295,-0.676564,1.27813,0.743858,-187.826,90.3095)">
                <path d="M116.837,60.49L140.839,38.463L140.839,38.458C142.564,36.953 149.484,33.746 152.907,36.737C140.449,37.925 140.401,48.214 140.401,48.214L140.401,48.212L139.963,48.614C136.39,47.981 131.722,50.259 130.348,51.457L130.348,51.462L116.879,63.823C116.599,63.109 116.837,60.49 116.837,60.49" style="fill-opacity:0.4;"/>
            </g>
            <path d="M33.059,79.591L33.059,72.842L27.209,67.787L27.209,76.214L33.059,79.591Z" style="fill-opacity:0.4;"/>
            <path d="M33.059,79.591L37.906,76.796L37.904,70.045L33.059,72.845L33.059,79.591Z" style="fill-opacity:0.15;"/>
            <g transform="matrix(1.16547,-0.672253,1.28153,0.745839,-187.068,60.0969)">
                <path d="M120.649,69.675C121.916,70.772 122.423,72.129 122.465,73.53L126.251,70.086C125.596,70.259 124.902,70.339 124.125,70.339C122.903,70.339 121.749,70.073 120.729,69.602" style="fill-opacity:0.15;"/>
            </g>
            <g transform="matrix(1.17295,-0.676564,1.27813,0.743858,-164.44,96.0641)">
                <path d="M153.108,36.906C140.65,38.094 140.598,48.387 140.598,48.387L140.59,48.394L118.828,68.351C118.828,68.351 120.194,69.582 118.836,68.357C118.043,67.643 117.425,66.768 117.043,65.792L116.773,65.088L135.253,48.129C136.536,46.865 138.597,43.631 138.508,40.602C138.466,39.198 138.508,40.598 138.508,40.598L140.839,38.463L140.839,38.458C142.564,36.953 149.484,33.746 152.907,36.737C152.971,36.793 153.032,36.849 153.092,36.906" style="fill-opacity:0.25;"/>
            </g>
            <g transform="matrix(1.17295,-0.676564,1.27813,0.743858,-164.44,96.0641)">
                <path d="M153.108,36.906C150.291,38.26 147.559,41.253 145.96,43.446C144.575,45.346 143.517,50.063 143.517,50.063L121.69,69.98C121.69,69.98 120.796,70.125 119.438,68.9C118.645,68.185 117.425,66.768 117.043,65.792L116.773,65.088L135.253,48.129C136.536,46.865 138.597,43.631 138.508,40.602C138.466,39.198 138.508,40.598 138.508,40.598L140.839,38.463L140.839,38.458C142.564,36.953 149.484,33.746 152.907,36.737C152.971,36.793 153.032,36.849 153.092,36.906" style="fill-opacity:0.15;"/>
            </g>
            <g transform="matrix(1.17295,-0.676564,1.27813,0.743858,-183.473,107.044)">
                <path d="M153.108,36.906C150.291,38.26 147.559,41.253 145.96,43.446C144.575,45.346 143.517,50.063 143.517,50.063L121.69,69.98C121.69,69.98 120.796,70.125 119.438,68.9C118.645,68.185 117.425,66.768 117.043,65.792L122.011,61.235L123.183,55.763L122.009,55.764L140.839,38.463L140.839,38.458C142.564,36.953 149.484,33.746 152.907,36.737C152.971,36.793 153.032,36.849 153.092,36.906" style="fill-opacity:0.15;"/>
            </g>
            <g transform="matrix(1.17295,-0.676564,1.27813,0.743858,-187.856,90.4792)">
                <path d="M153.108,36.906C147.839,39.438 144.741,44.577 143.517,50.063C140.066,47.556 135.672,48.202 130.531,51.354L117.034,63.733C117.034,63.733 116.863,62.063 117.02,60.382L140.839,38.463L140.839,38.458C143.672,35.986 149.949,33.915 153.092,36.906" style="fill-opacity:0.15;"/>
            </g>
        </g>
        <g transform="matrix(1.38902,-0.801951,1.51358,0.881717,-230.842,120.823)">
            <path d="M129.135,68.613C127.807,69.692 126.044,70.339 124.125,70.339C120.86,70.339 118.078,68.441 117.043,65.792" style="fill:none;stroke:rgb(96,96,96);stroke-width:0.87px;"/>
        </g>
        <g transform="matrix(1.38902,-0.801951,1.51358,0.881717,-208.336,107.829)">
            <path d="M129.135,68.613C127.807,69.692 126.044,70.339 124.125,70.339C120.86,70.339 118.078,68.441 117.043,65.792L116.773,65.088" style="fill:none;stroke:rgb(96,96,96);stroke-width:0.87px;"/>
        </g>
        <g transform="matrix(1.38902,-0.801951,1.51358,0.881717,-235.945,100.948)">
            <path d="M116.853,63.847C116.574,63.132 116.864,60.49 116.864,60.49" style="fill:none;stroke:rgb(96,96,96);stroke-width:0.87px;"/>
        </g>
        <g transform="matrix(1.38017,-0.796841,1.51761,0.884065,-229.999,85.0074)">
            <path d="M129.748,68.072C127.892,69.69 126.342,70.339 124.125,70.339C119.978,70.339 116.612,67.278 116.612,63.507C116.612,61.496 117.554,59.687 119.063,58.436" style="fill:none;stroke:rgb(96,96,96);stroke-width:0.87px;"/>
        </g>
        <g transform="matrix(1.38017,-0.796841,1.51761,0.884065,-207.493,72.0135)">
            <path d="M129.748,68.072C127.892,69.69 126.342,70.339 124.125,70.339C119.978,70.339 116.612,67.278 116.612,63.507C116.612,61.496 117.554,59.687 119.063,58.436" style="fill:none;stroke:rgb(96,96,96);stroke-width:0.87px;"/>
        </g>
        <g transform="matrix(1.38017,-0.796841,1.51761,0.884065,-235.102,65.1321)">
            <path d="M129.748,68.072C127.892,69.69 126.342,70.339 124.125,70.339C119.978,70.339 116.612,67.278 116.612,63.507C116.612,61.496 117.554,59.687 119.063,58.436" style="fill:none;stroke:rgb(96,96,96);stroke-width:0.87px;"/>
        </g>
        <g transform="matrix(1.07641,0,0,1.63288,-15.6251,-7.03317)">
            <path d="M63.179,51.953L63.179,29.906" style="fill:none;stroke:rgb(96,96,96);stroke-width:1.29px;"/>
        </g>
        <g transform="matrix(1.07641,0,0,1.63288,6.88093,-20.0271)">
            <path d="M63.179,51.953L63.179,29.906" style="fill:none;stroke:rgb(96,96,96);stroke-width:1.29px;"/>
        </g>
        <g transform="matrix(1.14076,0,0,1.36783,-15.5555,0.599054)">
            <path d="M33.801,52.031L33.801,30.114" style="fill:none;stroke:rgb(96,96,96);stroke-width:1.41px;"/>
        </g>
        <g transform="matrix(0.115038,0,0,0.137936,41.6211,24.6424)">
            <path d="M33.801,52.031L33.801,30.114" style="fill:none;stroke:rgb(96,96,96);stroke-width:13.99px;"/>
        </g>
        <g transform="matrix(1.4715,0,0,1.7644,-31.8378,-31.2186)">
            <path d="M33.801,52.031L33.801,30.114" style="fill:none;stroke:rgb(96,96,96);stroke-width:1.09px;"/>
        </g>
        <g transform="matrix(1,0,0,1,-9.06548,24.2839)">
            <path d="M40.381,60.686L34.641,64L27.719,60.004" style="fill:none;stroke:rgb(96,96,96);stroke-width:1.78px;"/>
        </g>
        <g transform="matrix(0.62258,0,0,0.62258,4.00874,48.4388)">
            <path d="M34.641,64L34.641,51.15" style="fill:none;stroke:rgb(96,96,96);stroke-width:1.52px;"/>
        </g>
        <g transform="matrix(0.800603,0,0,0.753485,-2.14642,41.1639)">
            <path d="M25.981,57.222L25.981,43.951" style="fill:none;stroke:rgb(96,96,96);stroke-width:2.29px;"/>
        </g>
        <g transform="matrix(0.407025,0,0,0.407025,14.1743,60.6763)">
            <path d="M42.113,59.686L42.113,40.031" style="fill:none;stroke:rgb(96,96,96);stroke-width:2.33px;"/>
        </g>
        <g transform="matrix(0.961395,1.06637e-16,-1.06637e-16,0.961395,-3.65357,24.0933)">
            <path d="M29.451,49.004L36.373,55" style="fill:none;stroke:rgb(96,96,96);stroke-width:0.99px;"/>
        </g>
        <g transform="matrix(0.757626,0,0,0.757626,-3.66087,38.6812)">
            <path d="M29.445,46.992L35.185,43.686" style="fill:none;stroke:rgb(96,96,96);stroke-width:2.35px;"/>
        </g>
        <g transform="matrix(1,0,0,1,-10.7975,25.2839)">
            <path d="M36.373,55L42.113,51.686" style="fill:none;stroke:rgb(96,96,96);stroke-width:0.95px;"/>
        </g>
        <g transform="matrix(1,0,0,1,-10.7975,25.2839)">
            <path d="M36.373,55L29.445,49.008" style="fill:none;stroke:rgb(96,96,96);stroke-width:0.95px;"/>
        </g>
        <g transform="matrix(1,0,0,1,-10.7975,18.2751)">
            <path d="M63.179,23.524C62.987,20.387 58.721,12.19 47.951,12.316C38.67,12.424 33.911,20.8 33.793,23.511" style="fill:none;stroke:rgb(96,96,96);stroke-width:1.78px;"/>
        </g>
        <g transform="matrix(1,0,0,1,11.7085,5.28122)">
            <path d="M63.179,23.524C62.987,20.387 58.721,12.19 47.951,12.316C38.67,12.424 33.911,20.8 33.793,23.511" style="fill:none;stroke:rgb(96,96,96);stroke-width:1.78px;"/>
        </g>
        <g transform="matrix(1,0,0,1,-15.9007,-1.60026)">
            <path d="M63.179,23.524C62.987,20.387 58.721,12.19 47.951,12.316C38.67,12.424 33.911,20.8 33.793,23.511" style="fill:none;stroke:rgb(96,96,96);stroke-width:1.78px;"/>
        </g>
        <g transform="matrix(1,0,0,1,-10.7975,18.2751)">
            <path d="M35.458,52.93L33.827,53.872" style="fill:none;stroke:rgb(96,96,96);stroke-width:0.95px;"/>
        </g>
    </g>
</svg>
