<?xml version="1.0" encoding="UTF-8" standalone="no"?>
<!DOCTYPE svg PUBLIC "-//W3C//DTD SVG 1.1//EN" "http://www.w3.org/Graphics/SVG/1.1/DTD/svg11.dtd">
<svg width="100%" height="100%" viewBox="0 0 600 160" version="1.1" xmlns="http://www.w3.org/2000/svg" xmlns:xlink="http://www.w3.org/1999/xlink" xml:space="preserve" xmlns:serif="http://www.serif.com/" style="fill-rule:evenodd;clip-rule:evenodd;stroke-linecap:round;stroke-linejoin:round;stroke-miterlimit:1.5;">
    <g id="Layer1" transform="matrix(1,0,0,1,-84,-112)">
        <g transform="matrix(1,0,0,1,2.59003,78.9113)">
            <circle cx="118.119" cy="125.196" r="14.196" style="fill:rgb(90,169,230);"/>
        </g>
        <g transform="matrix(1,0,0,1,439.067,78.9113)">
            <circle cx="118.119" cy="125.196" r="14.196" style="fill:rgb(90,169,230);"/>
        </g>
        <g transform="matrix(0.999999,1.854e-21,1.29731e-20,0.999995,84.0019,102)">
            <g>
                <path d="M65.504,96.804L53.504,102.804L65.504,108.804L65.504,96.804Z" style="fill:rgb(90,169,230);"/>
                <path d="M444.392,96.804L456.392,102.804L444.392,108.804C447.392,105.804 447.392,99.804 444.392,96.804Z" style="fill:rgb(90,169,230);"/>
                <path d="M63.104,102.804L446.792,102.804" style="fill:none;stroke:rgb(90,169,230);stroke-width:4px;"/>
            </g>
        </g>
        <g transform="matrix(1,0,0,1,97.4091,175.896)">
            <text x="0px" y="0px" style="font-family:'Montserrat-Light', 'Montserrat';font-weight:300;font-size:18px;fill:rgb(90,169,230);">Node</text>
        </g>
        <g transform="matrix(1,0,0,1,532.146,175.896)">
            <text x="0px" y="0px" style="font-family:'Montserrat-Light', 'Montserrat';font-weight:300;font-size:18px;fill:rgb(90,169,230);">Node</text>
        </g>
        <g transform="matrix(1,0,0,1,175.044,62.5974)">
            <g>
                <g transform="matrix(1,0,0,1,129.904,123)">
                    <text x="0px" y="0px" style="font-family:'Montserrat-Light', 'Montserrat';font-weight:300;font-size:18px;fill:rgb(90,169,230);">E</text>
                </g>
                <g transform="matrix(1,0,0,1,141.784,123)">
                    <text x="0px" y="0px" style="font-family:'Montserrat-Light', 'Montserrat';font-weight:300;font-size:18px;fill:rgb(90,169,230);">dge</text>
                </g>
            </g>
        </g>
    </g>
</svg>
