<?xml version="1.0" encoding="UTF-8" standalone="no"?>
<!DOCTYPE svg PUBLIC "-//W3C//DTD SVG 1.1//EN" "http://www.w3.org/Graphics/SVG/1.1/DTD/svg11.dtd">
<svg width="100%" height="100%" viewBox="0 0 600 600" version="1.1" xmlns="http://www.w3.org/2000/svg" xmlns:xlink="http://www.w3.org/1999/xlink" xml:space="preserve" xmlns:serif="http://www.serif.com/" style="fill-rule:evenodd;clip-rule:evenodd;stroke-linecap:round;stroke-linejoin:round;stroke-miterlimit:1.5;">
    <g id="New-Data-Set" serif:id="New Data Set">
        <g>
            <g>
                <path d="M137.759,154.153L133.915,157.4L138.819,158.526C137.46,157.698 136.93,155.511 137.759,154.153Z" style="fill:rgb(214,87,128);"/>
                <path d="M137.414,156.552C161.133,150.801 297.428,117.759 297.428,117.759L297.428,104.51" style="fill:none;stroke:rgb(214,87,128);stroke-width:1.5px;stroke-dasharray:1.5,4.5,0,0;"/>
            </g>
        </g>
        <g>
            <g>
                <path d="M217.73,209.556L216.056,214.3L220.856,212.793C219.265,212.765 217.702,211.146 217.73,209.556Z" style="fill:rgb(214,87,128);"/>
                <path d="M218.645,211.799C234.338,196.646 316.029,117.759 316.029,117.759L316.029,104.676" style="fill:none;stroke:rgb(214,87,128);stroke-width:1.5px;stroke-dasharray:1.5,4.5,0,0;"/>
            </g>
        </g>
        <g transform="matrix(0.999999,-2.14389e-08,3.02537e-09,1,2.56494e-05,-1.5944e-05)">
            <g>
                <path d="M313.794,240.532L315.346,245.318L318.244,241.205C316.963,242.149 314.738,241.813 313.794,240.532Z" style="fill:rgb(214,87,128);"/>
                <path d="M315.884,241.758C319.004,221.122 334.631,117.759 334.631,117.759L334.631,104.343" style="fill:none;stroke:rgb(214,87,128);stroke-width:1.5px;stroke-dasharray:1.5,4.5,0,0;"/>
            </g>
        </g>
        <g transform="matrix(0.999999,-2.14389e-08,3.02537e-09,1,-5.61169e-05,1.39577e-05)">
            <g>
                <path d="M412.339,257.757L416.186,261L416.472,255.977C415.884,257.455 413.817,258.345 412.339,257.757Z" style="fill:rgb(214,87,128);"/>
                <path d="M414.762,257.694C405.526,236.249 354.496,117.759 354.496,117.759L354.496,104.343" style="fill:none;stroke:rgb(214,87,128);stroke-width:1.5px;stroke-dasharray:1.5,4.5,0,0;"/>
            </g>
        </g>
        <g transform="matrix(0.999999,-2.14389e-08,3.02537e-09,1,-7.48206e-06,-1.661e-05)">
            <g>
                <path d="M534.419,260.485L539.209,262.023L537.565,257.268C537.583,258.859 536.01,260.467 534.419,260.485Z" style="fill:rgb(214,87,128);"/>
                <path d="M536.636,259.505C517.004,240.306 391.699,117.759 391.699,117.759L391.699,104.319" style="fill:none;stroke:rgb(214,87,128);stroke-width:1.5px;stroke-dasharray:1.5,4.5,0,0;"/>
            </g>
        </g>
        <g transform="matrix(0.999999,-2.14389e-08,3.02537e-09,1,0.000670439,-5.38929e-05)">
            <g>
                <path d="M318.116,241.245L318.425,246.267L322.257,243.007C320.782,243.602 318.711,242.721 318.116,241.245Z" style="fill:rgb(214,87,128);"/>
                <path d="M319.835,242.954C328.399,222.823 373.098,117.759 373.098,117.759L373.098,104.176" style="fill:none;stroke:rgb(214,87,128);stroke-width:1.5px;stroke-dasharray:1.5,4.5,0,0;"/>
            </g>
        </g>
        <g transform="matrix(0.999999,-2.14389e-08,3.02537e-09,1,-0.000264034,-1.59928e-05)">
            <g>
                <path d="M534.533,260.166L539.209,262.023L537.889,257.168C537.799,258.756 536.122,260.256 534.533,260.166Z" style="fill:rgb(214,87,128);"/>
                <path d="M536.811,259.338C519.178,239.606 410.301,117.759 410.301,117.759L410.301,105.295" style="fill:none;stroke:rgb(214,87,128);stroke-width:1.5px;stroke-dasharray:1.5,4.5,0,0;"/>
            </g>
        </g>
        <g transform="matrix(1,0,0,1,162.345,-37.6452)">
            <g>
                <g transform="matrix(1,0,0,1,129.904,123)">
                    <path d="M12.456,-12.6L12.456,0L11.7,0L3.114,-10.944L3.114,0L2.196,0L2.196,-12.6L2.97,-12.6L11.538,-1.656L11.538,-12.6L12.456,-12.6Z" style="fill:rgb(214,87,128);fill-rule:nonzero;"/>
                    <path d="M24.498,-4.482L16.416,-4.482C16.44,-3.75 16.626,-3.099 16.974,-2.529C17.322,-1.959 17.793,-1.518 18.387,-1.206C18.981,-0.894 19.65,-0.738 20.394,-0.738C21.006,-0.738 21.573,-0.849 22.095,-1.071C22.617,-1.293 23.052,-1.62 23.4,-2.052L23.922,-1.458C23.514,-0.966 23.001,-0.588 22.383,-0.324C21.765,-0.06 21.096,0.072 20.376,0.072C19.44,0.072 18.606,-0.132 17.874,-0.54C17.142,-0.948 16.569,-1.512 16.155,-2.232C15.741,-2.952 15.534,-3.774 15.534,-4.698C15.534,-5.61 15.729,-6.429 16.119,-7.155C16.509,-7.881 17.046,-8.448 17.73,-8.856C18.414,-9.264 19.182,-9.468 20.034,-9.468C20.886,-9.468 21.651,-9.267 22.329,-8.865C23.007,-8.463 23.541,-7.902 23.931,-7.182C24.321,-6.462 24.516,-5.646 24.516,-4.734L24.498,-4.482ZM20.034,-8.676C19.374,-8.676 18.78,-8.529 18.252,-8.235C17.724,-7.941 17.301,-7.527 16.983,-6.993C16.665,-6.459 16.482,-5.856 16.434,-5.184L23.634,-5.184C23.598,-5.856 23.418,-6.456 23.094,-6.984C22.77,-7.512 22.344,-7.926 21.816,-8.226C21.288,-8.526 20.694,-8.676 20.034,-8.676Z" style="fill:rgb(214,87,128);fill-rule:nonzero;"/>
                </g>
                <g transform="matrix(1,0,0,1,155.122,123)">
                    <path d="M15.336,-9.396L11.772,0L10.926,0L7.758,-8.154L4.572,0L3.744,0L0.18,-9.396L1.044,-9.396L4.176,-1.008L7.38,-9.396L8.154,-9.396L11.34,-1.026L14.508,-9.396L15.336,-9.396Z" style="fill:rgb(214,87,128);fill-rule:nonzero;"/>
                    <path d="M22.338,-12.6L27.324,-12.6C28.632,-12.6 29.793,-12.33 30.807,-11.79C31.821,-11.25 32.61,-10.503 33.174,-9.549C33.738,-8.595 34.02,-7.512 34.02,-6.3C34.02,-5.088 33.738,-4.005 33.174,-3.051C32.61,-2.097 31.821,-1.35 30.807,-0.81C29.793,-0.27 28.632,0 27.324,0L22.338,0L22.338,-12.6ZM27.252,-0.828C28.416,-0.828 29.442,-1.059 30.33,-1.521C31.218,-1.983 31.902,-2.628 32.382,-3.456C32.862,-4.284 33.102,-5.232 33.102,-6.3C33.102,-7.368 32.862,-8.316 32.382,-9.144C31.902,-9.972 31.218,-10.617 30.33,-11.079C29.442,-11.541 28.416,-11.772 27.252,-11.772L23.256,-11.772L23.256,-0.828L27.252,-0.828Z" style="fill:rgb(214,87,128);fill-rule:nonzero;"/>
                    <path d="M40.086,-9.468C41.25,-9.468 42.144,-9.171 42.768,-8.577C43.392,-7.983 43.704,-7.11 43.704,-5.958L43.704,0L42.84,0L42.84,-1.674C42.54,-1.122 42.102,-0.693 41.526,-0.387C40.95,-0.081 40.26,0.072 39.456,0.072C38.412,0.072 37.587,-0.174 36.981,-0.666C36.375,-1.158 36.072,-1.806 36.072,-2.61C36.072,-3.39 36.351,-4.023 36.909,-4.509C37.467,-4.995 38.358,-5.238 39.582,-5.238L42.804,-5.238L42.804,-5.994C42.804,-6.87 42.567,-7.536 42.093,-7.992C41.619,-8.448 40.926,-8.676 40.014,-8.676C39.39,-8.676 38.793,-8.568 38.223,-8.352C37.653,-8.136 37.17,-7.848 36.774,-7.488L36.324,-8.136C36.792,-8.556 37.356,-8.883 38.016,-9.117C38.676,-9.351 39.366,-9.468 40.086,-9.468ZM39.582,-0.666C40.362,-0.666 41.025,-0.846 41.571,-1.206C42.117,-1.566 42.528,-2.088 42.804,-2.772L42.804,-4.536L39.6,-4.536C38.676,-4.536 38.007,-4.368 37.593,-4.032C37.179,-3.696 36.972,-3.234 36.972,-2.646C36.972,-2.034 37.2,-1.551 37.656,-1.197C38.112,-0.843 38.754,-0.666 39.582,-0.666Z" style="fill:rgb(214,87,128);fill-rule:nonzero;"/>
                    <path d="M52.074,-0.594C51.846,-0.378 51.561,-0.213 51.219,-0.099C50.877,0.015 50.52,0.072 50.148,0.072C49.332,0.072 48.702,-0.153 48.258,-0.603C47.814,-1.053 47.592,-1.68 47.592,-2.484L47.592,-8.622L45.864,-8.622L45.864,-9.396L47.592,-9.396L47.592,-11.448L48.492,-11.448L48.492,-9.396L51.48,-9.396L51.48,-8.622L48.492,-8.622L48.492,-2.574C48.492,-1.962 48.639,-1.497 48.933,-1.179C49.227,-0.861 49.662,-0.702 50.238,-0.702C50.826,-0.702 51.312,-0.876 51.696,-1.224L52.074,-0.594Z" style="fill:rgb(214,87,128);fill-rule:nonzero;"/>
                    <path d="M57.744,-9.468C58.908,-9.468 59.802,-9.171 60.426,-8.577C61.05,-7.983 61.362,-7.11 61.362,-5.958L61.362,0L60.498,0L60.498,-1.674C60.198,-1.122 59.76,-0.693 59.184,-0.387C58.608,-0.081 57.918,0.072 57.114,0.072C56.07,0.072 55.245,-0.174 54.639,-0.666C54.033,-1.158 53.73,-1.806 53.73,-2.61C53.73,-3.39 54.009,-4.023 54.567,-4.509C55.125,-4.995 56.016,-5.238 57.24,-5.238L60.462,-5.238L60.462,-5.994C60.462,-6.87 60.225,-7.536 59.751,-7.992C59.277,-8.448 58.584,-8.676 57.672,-8.676C57.048,-8.676 56.451,-8.568 55.881,-8.352C55.311,-8.136 54.828,-7.848 54.432,-7.488L53.982,-8.136C54.45,-8.556 55.014,-8.883 55.674,-9.117C56.334,-9.351 57.024,-9.468 57.744,-9.468ZM57.24,-0.666C58.02,-0.666 58.683,-0.846 59.229,-1.206C59.775,-1.566 60.186,-2.088 60.462,-2.772L60.462,-4.536L57.258,-4.536C56.334,-4.536 55.665,-4.368 55.251,-4.032C54.837,-3.696 54.63,-3.234 54.63,-2.646C54.63,-2.034 54.858,-1.551 55.314,-1.197C55.77,-0.843 56.412,-0.666 57.24,-0.666Z" style="fill:rgb(214,87,128);fill-rule:nonzero;"/>
                    <path d="M73.296,0.09C72.372,0.09 71.493,-0.069 70.659,-0.387C69.825,-0.705 69.174,-1.116 68.706,-1.62L69.12,-2.304C69.564,-1.836 70.161,-1.455 70.911,-1.161C71.661,-0.867 72.45,-0.72 73.278,-0.72C74.478,-0.72 75.384,-0.948 75.996,-1.404C76.608,-1.86 76.914,-2.454 76.914,-3.186C76.914,-3.75 76.752,-4.2 76.428,-4.536C76.104,-4.872 75.702,-5.13 75.222,-5.31C74.742,-5.49 74.094,-5.676 73.278,-5.868C72.354,-6.096 71.613,-6.318 71.055,-6.534C70.497,-6.75 70.023,-7.083 69.633,-7.533C69.243,-7.983 69.048,-8.586 69.048,-9.342C69.048,-9.954 69.21,-10.515 69.534,-11.025C69.858,-11.535 70.353,-11.94 71.019,-12.24C71.685,-12.54 72.516,-12.69 73.512,-12.69C74.208,-12.69 74.892,-12.588 75.564,-12.384C76.236,-12.18 76.818,-11.904 77.31,-11.556L76.968,-10.818C76.464,-11.166 75.909,-11.43 75.303,-11.61C74.697,-11.79 74.1,-11.88 73.512,-11.88C72.348,-11.88 71.466,-11.646 70.866,-11.178C70.266,-10.71 69.966,-10.104 69.966,-9.36C69.966,-8.796 70.128,-8.346 70.452,-8.01C70.776,-7.674 71.178,-7.416 71.658,-7.236C72.138,-7.056 72.792,-6.864 73.62,-6.66C74.544,-6.432 75.282,-6.21 75.834,-5.994C76.386,-5.778 76.857,-5.451 77.247,-5.013C77.637,-4.575 77.832,-3.984 77.832,-3.24C77.832,-2.628 77.667,-2.07 77.337,-1.566C77.007,-1.062 76.5,-0.66 75.816,-0.36C75.132,-0.06 74.292,0.09 73.296,0.09Z" style="fill:rgb(214,87,128);fill-rule:nonzero;"/>
                    <path d="M88.596,-4.482L80.514,-4.482C80.538,-3.75 80.724,-3.099 81.072,-2.529C81.42,-1.959 81.891,-1.518 82.485,-1.206C83.079,-0.894 83.748,-0.738 84.492,-0.738C85.104,-0.738 85.671,-0.849 86.193,-1.071C86.715,-1.293 87.15,-1.62 87.498,-2.052L88.02,-1.458C87.612,-0.966 87.099,-0.588 86.481,-0.324C85.863,-0.06 85.194,0.072 84.474,0.072C83.538,0.072 82.704,-0.132 81.972,-0.54C81.24,-0.948 80.667,-1.512 80.253,-2.232C79.839,-2.952 79.632,-3.774 79.632,-4.698C79.632,-5.61 79.827,-6.429 80.217,-7.155C80.607,-7.881 81.144,-8.448 81.828,-8.856C82.512,-9.264 83.28,-9.468 84.132,-9.468C84.984,-9.468 85.749,-9.267 86.427,-8.865C87.105,-8.463 87.639,-7.902 88.029,-7.182C88.419,-6.462 88.614,-5.646 88.614,-4.734L88.596,-4.482ZM84.132,-8.676C83.472,-8.676 82.878,-8.529 82.35,-8.235C81.822,-7.941 81.399,-7.527 81.081,-6.993C80.763,-6.459 80.58,-5.856 80.532,-5.184L87.732,-5.184C87.696,-5.856 87.516,-6.456 87.192,-6.984C86.868,-7.512 86.442,-7.926 85.914,-8.226C85.386,-8.526 84.792,-8.676 84.132,-8.676Z" style="fill:rgb(214,87,128);fill-rule:nonzero;"/>
                    <path d="M96.066,-0.594C95.838,-0.378 95.553,-0.213 95.211,-0.099C94.869,0.015 94.512,0.072 94.14,0.072C93.324,0.072 92.694,-0.153 92.25,-0.603C91.806,-1.053 91.584,-1.68 91.584,-2.484L91.584,-8.622L89.856,-8.622L89.856,-9.396L91.584,-9.396L91.584,-11.448L92.484,-11.448L92.484,-9.396L95.472,-9.396L95.472,-8.622L92.484,-8.622L92.484,-2.574C92.484,-1.962 92.631,-1.497 92.925,-1.179C93.219,-0.861 93.654,-0.702 94.23,-0.702C94.818,-0.702 95.304,-0.876 95.688,-1.224L96.066,-0.594Z" style="fill:rgb(214,87,128);fill-rule:nonzero;"/>
                </g>
            </g>
        </g>
        <g transform="matrix(1,0,3.46945e-18,1,53.4575,196.17)">
            <g>
                <g transform="matrix(1,0,0,1,140.254,123)">
                    <path d="M11.196,-6.246L12.078,-6.246L12.078,-1.53C11.526,-1.002 10.857,-0.6 10.071,-0.324C9.285,-0.048 8.454,0.09 7.578,0.09C6.33,0.09 5.205,-0.186 4.203,-0.738C3.201,-1.29 2.415,-2.052 1.845,-3.024C1.275,-3.996 0.99,-5.088 0.99,-6.3C0.99,-7.512 1.275,-8.604 1.845,-9.576C2.415,-10.548 3.201,-11.31 4.203,-11.862C5.205,-12.414 6.336,-12.69 7.596,-12.69C8.52,-12.69 9.369,-12.543 10.143,-12.249C10.917,-11.955 11.58,-11.526 12.132,-10.962L11.556,-10.35C11.028,-10.878 10.437,-11.259 9.783,-11.493C9.129,-11.727 8.406,-11.844 7.614,-11.844C6.534,-11.844 5.559,-11.604 4.689,-11.124C3.819,-10.644 3.138,-9.981 2.646,-9.135C2.154,-8.289 1.908,-7.344 1.908,-6.3C1.908,-5.268 2.157,-4.329 2.655,-3.483C3.153,-2.637 3.834,-1.971 4.698,-1.485C5.562,-0.999 6.534,-0.756 7.614,-0.756C9.054,-0.756 10.248,-1.14 11.196,-1.908L11.196,-6.246Z" style="fill:rgb(90,169,230);fill-rule:nonzero;"/>
                    <path d="M16.686,-7.344C16.974,-8.028 17.424,-8.553 18.036,-8.919C18.648,-9.285 19.392,-9.468 20.268,-9.468L20.268,-8.586L20.052,-8.604C19.008,-8.604 18.192,-8.277 17.604,-7.623C17.016,-6.969 16.722,-6.06 16.722,-4.896L16.722,0L15.822,0L15.822,-9.396L16.686,-9.396L16.686,-7.344Z" style="fill:rgb(90,169,230);fill-rule:nonzero;"/>
                </g>
                <g transform="matrix(1,0,0,1,161.098,123)">
                    <path d="M5.076,-9.468C6.24,-9.468 7.134,-9.171 7.758,-8.577C8.382,-7.983 8.694,-7.11 8.694,-5.958L8.694,0L7.83,0L7.83,-1.674C7.53,-1.122 7.092,-0.693 6.516,-0.387C5.94,-0.081 5.25,0.072 4.446,0.072C3.402,0.072 2.577,-0.174 1.971,-0.666C1.365,-1.158 1.062,-1.806 1.062,-2.61C1.062,-3.39 1.341,-4.023 1.899,-4.509C2.457,-4.995 3.348,-5.238 4.572,-5.238L7.794,-5.238L7.794,-5.994C7.794,-6.87 7.557,-7.536 7.083,-7.992C6.609,-8.448 5.916,-8.676 5.004,-8.676C4.38,-8.676 3.783,-8.568 3.213,-8.352C2.643,-8.136 2.16,-7.848 1.764,-7.488L1.314,-8.136C1.782,-8.556 2.346,-8.883 3.006,-9.117C3.666,-9.351 4.356,-9.468 5.076,-9.468ZM4.572,-0.666C5.352,-0.666 6.015,-0.846 6.561,-1.206C7.107,-1.566 7.518,-2.088 7.794,-2.772L7.794,-4.536L4.59,-4.536C3.666,-4.536 2.997,-4.368 2.583,-4.032C2.169,-3.696 1.962,-3.234 1.962,-2.646C1.962,-2.034 2.19,-1.551 2.646,-1.197C3.102,-0.843 3.744,-0.666 4.572,-0.666Z" style="fill:rgb(90,169,230);fill-rule:nonzero;"/>
                    <path d="M17.118,-9.468C17.994,-9.468 18.786,-9.264 19.494,-8.856C20.202,-8.448 20.757,-7.884 21.159,-7.164C21.561,-6.444 21.762,-5.622 21.762,-4.698C21.762,-3.774 21.561,-2.949 21.159,-2.223C20.757,-1.497 20.202,-0.933 19.494,-0.531C18.786,-0.129 17.994,0.072 17.118,0.072C16.29,0.072 15.54,-0.123 14.868,-0.513C14.196,-0.903 13.674,-1.446 13.302,-2.142L13.302,3.492L12.402,3.492L12.402,-9.396L13.266,-9.396L13.266,-7.182C13.638,-7.902 14.163,-8.463 14.841,-8.865C15.519,-9.267 16.278,-9.468 17.118,-9.468ZM17.064,-0.738C17.784,-0.738 18.432,-0.906 19.008,-1.242C19.584,-1.578 20.037,-2.046 20.367,-2.646C20.697,-3.246 20.862,-3.93 20.862,-4.698C20.862,-5.466 20.697,-6.15 20.367,-6.75C20.037,-7.35 19.584,-7.818 19.008,-8.154C18.432,-8.49 17.784,-8.658 17.064,-8.658C16.344,-8.658 15.699,-8.49 15.129,-8.154C14.559,-7.818 14.109,-7.35 13.779,-6.75C13.449,-6.15 13.284,-5.466 13.284,-4.698C13.284,-3.93 13.449,-3.246 13.779,-2.646C14.109,-2.046 14.559,-1.578 15.129,-1.242C15.699,-0.906 16.344,-0.738 17.064,-0.738Z" style="fill:rgb(90,169,230);fill-rule:nonzero;"/>
                    <path d="M29.142,-9.468C30.318,-9.468 31.248,-9.126 31.932,-8.442C32.616,-7.758 32.958,-6.774 32.958,-5.49L32.958,0L32.058,0L32.058,-5.418C32.058,-6.474 31.791,-7.278 31.257,-7.83C30.723,-8.382 29.976,-8.658 29.016,-8.658C27.912,-8.658 27.042,-8.328 26.406,-7.668C25.77,-7.008 25.452,-6.12 25.452,-5.004L25.452,0L24.552,0L24.552,-13.356L25.452,-13.356L25.452,-7.434C25.776,-8.082 26.256,-8.583 26.892,-8.937C27.528,-9.291 28.278,-9.468 29.142,-9.468Z" style="fill:rgb(90,169,230);fill-rule:nonzero;"/>
                </g>
            </g>
            <g>
                <g transform="matrix(1,0,0,1,129.904,144)">
                    <path d="M12.456,-12.6L12.456,0L11.7,0L3.114,-10.944L3.114,0L2.196,0L2.196,-12.6L2.97,-12.6L11.538,-1.656L11.538,-12.6L12.456,-12.6Z" style="fill:rgb(90,169,230);fill-rule:nonzero;"/>
                    <path d="M24.498,-4.482L16.416,-4.482C16.44,-3.75 16.626,-3.099 16.974,-2.529C17.322,-1.959 17.793,-1.518 18.387,-1.206C18.981,-0.894 19.65,-0.738 20.394,-0.738C21.006,-0.738 21.573,-0.849 22.095,-1.071C22.617,-1.293 23.052,-1.62 23.4,-2.052L23.922,-1.458C23.514,-0.966 23.001,-0.588 22.383,-0.324C21.765,-0.06 21.096,0.072 20.376,0.072C19.44,0.072 18.606,-0.132 17.874,-0.54C17.142,-0.948 16.569,-1.512 16.155,-2.232C15.741,-2.952 15.534,-3.774 15.534,-4.698C15.534,-5.61 15.729,-6.429 16.119,-7.155C16.509,-7.881 17.046,-8.448 17.73,-8.856C18.414,-9.264 19.182,-9.468 20.034,-9.468C20.886,-9.468 21.651,-9.267 22.329,-8.865C23.007,-8.463 23.541,-7.902 23.931,-7.182C24.321,-6.462 24.516,-5.646 24.516,-4.734L24.498,-4.482ZM20.034,-8.676C19.374,-8.676 18.78,-8.529 18.252,-8.235C17.724,-7.941 17.301,-7.527 16.983,-6.993C16.665,-6.459 16.482,-5.856 16.434,-5.184L23.634,-5.184C23.598,-5.856 23.418,-6.456 23.094,-6.984C22.77,-7.512 22.344,-7.926 21.816,-8.226C21.288,-8.526 20.694,-8.676 20.034,-8.676Z" style="fill:rgb(90,169,230);fill-rule:nonzero;"/>
                    <path d="M31.968,-0.594C31.74,-0.378 31.455,-0.213 31.113,-0.099C30.771,0.015 30.414,0.072 30.042,0.072C29.226,0.072 28.596,-0.153 28.152,-0.603C27.708,-1.053 27.486,-1.68 27.486,-2.484L27.486,-8.622L25.758,-8.622L25.758,-9.396L27.486,-9.396L27.486,-11.448L28.386,-11.448L28.386,-9.396L31.374,-9.396L31.374,-8.622L28.386,-8.622L28.386,-2.574C28.386,-1.962 28.533,-1.497 28.827,-1.179C29.121,-0.861 29.556,-0.702 30.132,-0.702C30.72,-0.702 31.206,-0.876 31.59,-1.224L31.968,-0.594Z" style="fill:rgb(90,169,230);fill-rule:nonzero;"/>
                </g>
                <g transform="matrix(1,0,0,1,162.286,144)">
                    <path d="M15.336,-9.396L11.772,0L10.926,0L7.758,-8.154L4.572,0L3.744,0L0.18,-9.396L1.044,-9.396L4.176,-1.008L7.38,-9.396L8.154,-9.396L11.34,-1.026L14.508,-9.396L15.336,-9.396Z" style="fill:rgb(90,169,230);fill-rule:nonzero;"/>
                    <path d="M20.826,0.072C19.938,0.072 19.137,-0.132 18.423,-0.54C17.709,-0.948 17.148,-1.515 16.74,-2.241C16.332,-2.967 16.128,-3.786 16.128,-4.698C16.128,-5.61 16.332,-6.429 16.74,-7.155C17.148,-7.881 17.709,-8.448 18.423,-8.856C19.137,-9.264 19.938,-9.468 20.826,-9.468C21.714,-9.468 22.515,-9.264 23.229,-8.856C23.943,-8.448 24.504,-7.881 24.912,-7.155C25.32,-6.429 25.524,-5.61 25.524,-4.698C25.524,-3.786 25.32,-2.967 24.912,-2.241C24.504,-1.515 23.943,-0.948 23.229,-0.54C22.515,-0.132 21.714,0.072 20.826,0.072ZM20.826,-0.738C21.546,-0.738 22.191,-0.906 22.761,-1.242C23.331,-1.578 23.781,-2.046 24.111,-2.646C24.441,-3.246 24.606,-3.93 24.606,-4.698C24.606,-5.466 24.441,-6.15 24.111,-6.75C23.781,-7.35 23.331,-7.818 22.761,-8.154C22.191,-8.49 21.546,-8.658 20.826,-8.658C20.106,-8.658 19.461,-8.49 18.891,-8.154C18.321,-7.818 17.871,-7.35 17.541,-6.75C17.211,-6.15 17.046,-5.466 17.046,-4.698C17.046,-3.93 17.211,-3.246 17.541,-2.646C17.871,-2.046 18.321,-1.578 18.891,-1.242C19.461,-0.906 20.106,-0.738 20.826,-0.738Z" style="fill:rgb(90,169,230);fill-rule:nonzero;"/>
                    <path d="M29.178,-7.344C29.466,-8.028 29.916,-8.553 30.528,-8.919C31.14,-9.285 31.884,-9.468 32.76,-9.468L32.76,-8.586L32.544,-8.604C31.5,-8.604 30.684,-8.277 30.096,-7.623C29.508,-6.969 29.214,-6.06 29.214,-4.896L29.214,0L28.314,0L28.314,-9.396L29.178,-9.396L29.178,-7.344Z" style="fill:rgb(90,169,230);fill-rule:nonzero;"/>
                    <path d="M38.592,-5.022L36.144,-2.79L36.144,0L35.244,0L35.244,-13.356L36.144,-13.356L36.144,-3.906L42.156,-9.396L43.308,-9.396L39.258,-5.598L43.704,0L42.588,0L38.592,-5.022Z" style="fill:rgb(90,169,230);fill-rule:nonzero;"/>
                </g>
            </g>
        </g>
        <g transform="matrix(1.43194,0,0,1.43194,-114.893,39.0159)">
            <rect x="283.19" y="40.5" width="9.51" height="9.51" style="fill:rgb(214,87,128);"/>
        </g>
        <g transform="matrix(1.43194,0,0,1.43194,-96.2918,39.0159)">
            <rect x="283.19" y="40.5" width="9.51" height="9.51" style="fill:rgb(214,87,128);"/>
        </g>
        <g transform="matrix(1.43194,0,0,1.43194,-20.6219,39.0159)">
            <rect x="283.19" y="40.5" width="9.51" height="9.51" style="fill:rgb(214,87,128);"/>
        </g>
        <g transform="matrix(1.43194,0,0,1.43194,-57.8249,39.0159)">
            <rect x="283.19" y="40.5" width="9.51" height="9.51" style="fill:rgb(214,87,128);"/>
        </g>
        <g transform="matrix(1.43194,0,0,1.43194,-77.6903,39.0159)">
            <rect x="283.19" y="40.5" width="9.51" height="9.51" style="fill:rgb(214,87,128);"/>
        </g>
        <g transform="matrix(1.43194,0,0,1.43194,-2.02037,39.0159)">
            <rect x="283.19" y="40.5" width="9.51" height="9.51" style="fill:rgb(214,87,128);"/>
        </g>
        <g transform="matrix(1.43194,0,0,1.43194,-39.2234,39.0159)">
            <rect x="283.19" y="40.5" width="9.51" height="9.51" style="fill:rgb(214,87,128);"/>
        </g>
        <g transform="matrix(0.366028,0,0,0.366028,84.09,113.675)">
            <circle cx="118.119" cy="125.196" r="14.196" style="fill:rgb(214,87,128);"/>
        </g>
        <g transform="matrix(0.366028,0,0,0.366028,167.229,173.675)">
            <circle cx="118.119" cy="125.196" r="14.196" style="fill:rgb(214,87,128);"/>
        </g>
        <g transform="matrix(0.366028,0,0,0.366028,270.71,206.42)">
            <circle cx="118.119" cy="125.196" r="14.196" style="fill:rgb(214,87,128);"/>
        </g>
        <g transform="matrix(0.366028,0,0,0.366028,375.074,221.675)">
            <circle cx="118.119" cy="125.196" r="14.196" style="fill:rgb(214,87,128);"/>
        </g>
        <g transform="matrix(0.366028,0,0,0.366028,381.685,315.952)">
            <circle cx="118.119" cy="125.196" r="14.196" style="fill:rgb(254,144,173);"/>
        </g>
        <g transform="matrix(0.366028,0,0,0.366028,291.935,312.202)">
            <circle cx="118.119" cy="125.196" r="14.196" style="fill:rgb(254,144,173);"/>
        </g>
        <g transform="matrix(0.366028,0,0,0.366028,310.769,418.702)">
            <circle cx="118.119" cy="125.196" r="14.196" style="fill:rgb(247,199,219);"/>
        </g>
        <g transform="matrix(0.366028,0,0,0.366028,499.782,221.675)">
            <circle cx="118.119" cy="125.196" r="14.196" style="fill:rgb(214,87,128);"/>
        </g>
    </g>
    <g id="Skeleton">
        <g transform="matrix(1,0,0,1,-10.7881,42.7641)">
            <circle cx="118.119" cy="125.196" r="14.196" style="fill:rgb(90,169,230);"/>
        </g>
        <g transform="matrix(1,0,0,1,176.087,137.264)">
            <circle cx="118.119" cy="125.196" r="14.196" style="fill:rgb(90,169,230);"/>
        </g>
        <g transform="matrix(1,0,0,1,280.196,150.764)">
            <circle cx="118.119" cy="125.196" r="14.196" style="fill:rgb(90,169,230);"/>
        </g>
        <g transform="matrix(1,0,0,1,404.904,150.764)">
            <circle cx="118.119" cy="125.196" r="14.196" style="fill:rgb(90,169,230);"/>
        </g>
        <g transform="matrix(1,0,0,1,72.3504,102.764)">
            <circle cx="118.119" cy="125.196" r="14.196" style="fill:rgb(90,169,230);"/>
        </g>
        <g transform="matrix(1,0,0,1,9.99652,150.764)">
            <circle cx="118.119" cy="125.196" r="14.196" style="fill:rgb(90,169,230);"/>
        </g>
        <g transform="matrix(1,0,0,1,30.7722,260.87)">
            <circle cx="118.119" cy="125.196" r="14.196" style="fill:rgb(90,169,230);"/>
        </g>
        <g transform="matrix(1,0,0,1,197.058,245.372)">
            <circle cx="118.119" cy="125.196" r="14.196" style="fill:rgb(90,169,230);"/>
        </g>
        <g transform="matrix(1,0,0,1,218.141,354.788)">
            <circle cx="118.119" cy="125.196" r="14.196" style="fill:rgb(90,169,230);"/>
        </g>
        <g transform="matrix(1,0,0,1,134.831,276.318)">
            <circle cx="118.119" cy="125.196" r="14.196" style="fill:rgb(90,169,230);"/>
        </g>
        <g transform="matrix(-0.811945,0.583734,-0.583734,-0.811945,227.329,473.22)">
            <circle cx="118.119" cy="125.196" r="14.196" style="fill:rgb(90,169,230);"/>
        </g>
        <g transform="matrix(1,0,0,1,51.8913,370.538)">
            <circle cx="118.119" cy="125.196" r="14.196" style="fill:rgb(90,169,230);"/>
        </g>
        <g transform="matrix(1,0,0,1,300.118,257.87)">
            <circle cx="118.119" cy="125.196" r="14.196" style="fill:rgb(90,169,230);"/>
        </g>
        <g>
            <g>
                <path d="M126.81,253.301L124.998,259.76L120.918,254.435C122.675,255.625 125.621,255.058 126.81,253.301Z" style="fill:rgb(90,169,230);"/>
                <path d="M110.449,184.16C110.449,184.16 120.909,238.515 124.091,255.047" style="fill:none;stroke:rgb(90,169,230);stroke-width:2px;"/>
            </g>
        </g>
        <g>
            <g>
                <path d="M147.586,363.407L145.774,369.866L141.694,364.541C143.45,365.73 146.396,365.163 147.586,363.407Z" style="fill:rgb(90,169,230);"/>
                <path d="M131.224,294.266C131.224,294.266 141.685,348.62 144.867,365.152" style="fill:none;stroke:rgb(90,169,230);stroke-width:2px;"/>
            </g>
        </g>
        <g>
            <g>
                <path d="M313.872,347.909L312.06,354.368L307.98,349.043C309.736,350.232 312.682,349.665 313.872,347.909Z" style="fill:rgb(90,169,230);"/>
                <path d="M297.51,278.768C297.51,278.768 307.971,333.122 311.152,349.654" style="fill:none;stroke:rgb(90,169,230);stroke-width:2px;"/>
            </g>
        </g>
        <g>
            <g>
                <path d="M334.955,457.326L333.143,463.784L329.063,458.459C330.819,459.649 333.765,459.082 334.955,457.326Z" style="fill:rgb(90,169,230);"/>
                <path d="M318.594,388.184C318.594,388.184 329.054,442.539 332.236,459.071" style="fill:none;stroke:rgb(90,169,230);stroke-width:2px;"/>
            </g>
        </g>
        <g>
            <g>
                <path d="M168.705,473.076L166.893,479.534L162.813,474.209C164.569,475.399 167.515,474.832 168.705,473.076Z" style="fill:rgb(90,169,230);"/>
                <path d="M152.344,403.934C152.344,403.934 162.804,458.289 165.986,474.821" style="fill:none;stroke:rgb(90,169,230);stroke-width:2px;"/>
            </g>
        </g>
        <g>
            <g>
                <path d="M404.65,296.591L400.571,291.266L398.758,297.725L404.65,296.591Z" style="fill:rgb(90,169,230);"/>
                <path d="M416.932,360.407L415.12,366.866L411.04,361.541C412.796,362.73 415.742,362.163 416.932,360.407Z" style="fill:rgb(90,169,230);"/>
                <path d="M401.478,295.979C404.089,309.546 411.602,348.585 414.213,362.152" style="fill:none;stroke:rgb(90,169,230);stroke-width:2px;"/>
            </g>
        </g>
        <g>
            <g>
                <path d="M169.992,216.882L176.613,217.96L173.503,212.016C173.842,214.111 172.086,216.543 169.992,216.882Z" style="fill:rgb(90,169,230);"/>
                <path d="M172.721,215.151C160.11,206.05 121.188,177.96 121.188,177.96" style="fill:none;stroke:rgb(90,169,230);stroke-width:2px;"/>
            </g>
        </g>
        <g>
            <g>
                <path d="M273.467,253.537L278.155,258.335L271.503,259.206C273.412,258.28 274.394,255.445 273.467,253.537Z" style="fill:rgb(90,169,230);"/>
                <path d="M206.708,233.585C206.708,233.585 257.899,251.319 273.619,256.764" style="fill:none;stroke:rgb(90,169,230);stroke-width:2px;"/>
            </g>
        </g>
        <g>
            <g>
                <path d="M375.379,270.292L380.995,273.96L374.691,276.252C376.353,274.934 376.697,271.954 375.379,270.292Z" style="fill:rgb(90,169,230);"/>
                <path d="M311.713,265.96C311.713,265.96 360.567,271.601 376.227,273.41" style="fill:none;stroke:rgb(90,169,230);stroke-width:2px;"/>
            </g>
        </g>
        <g>
            <g>
                <path d="M230.152,396.238L235.768,399.907L229.464,402.199C231.126,400.881 231.47,397.9 230.152,396.238Z" style="fill:rgb(90,169,230);"/>
                <path d="M166.486,391.907C166.486,391.907 215.34,397.548 231,399.356" style="fill:none;stroke:rgb(90,169,230);stroke-width:2px;"/>
            </g>
        </g>
        <g transform="matrix(1,0,0,1,-0.000211451,0.000204595)">
            <g>
                <path d="M79.932,431.493L73.231,431.793L77.012,426.252C76.431,428.292 77.892,430.913 79.932,431.493Z" style="fill:rgb(90,169,230);"/>
                <path d="M134.154,397.846C134.154,397.846 91.194,421.784 77.424,429.456" style="fill:none;stroke:rgb(90,169,230);stroke-width:2px;"/>
            </g>
        </g>
        <g transform="matrix(0.999997,0,0,0.999997,-0.00053198,0.000240428)">
            <g>
                <path d="M419.904,272.96L413.904,275.96L419.904,278.96L419.904,272.96Z" style="fill:rgb(90,169,230);"/>
                <path d="M501.435,272.96L507.435,275.96L501.435,278.96C502.935,277.46 502.935,274.46 501.435,272.96Z" style="fill:rgb(90,169,230);"/>
                <path d="M418.704,275.96L502.635,275.96" style="fill:none;stroke:rgb(90,169,230);stroke-width:2px;"/>
            </g>
        </g>
        <g>
            <g>
                <path d="M432.233,365.985L430.235,372.389L436.557,370.146L432.233,365.985Z" style="fill:rgb(90,169,230);"/>
                <path d="M505.567,289.775L511.889,287.532L509.89,293.935C509.849,291.814 507.688,289.734 505.567,289.775Z" style="fill:rgb(90,169,230);"/>
                <path d="M433.563,368.93C446.764,355.211 495.36,304.709 508.56,290.99" style="fill:none;stroke:rgb(90,169,230);stroke-width:2px;"/>
            </g>
        </g>
    </g>
</svg>
