<?xml version="1.0" encoding="UTF-8" standalone="no"?>
<!DOCTYPE svg PUBLIC "-//W3C//DTD SVG 1.1//EN" "http://www.w3.org/Graphics/SVG/1.1/DTD/svg11.dtd">
<svg width="100%" height="100%" viewBox="0 0 600 340" version="1.1" xmlns="http://www.w3.org/2000/svg" xmlns:xlink="http://www.w3.org/1999/xlink" xml:space="preserve" xmlns:serif="http://www.serif.com/" style="fill-rule:evenodd;clip-rule:evenodd;stroke-linecap:round;stroke-linejoin:round;stroke-miterlimit:1.5;">
    <g id="diagram_city" transform="matrix(1,0,0,1,0,-26.284)">
        <g transform="matrix(1,0,0,1,-36.7881,-30.5074)">
            <circle cx="118.119" cy="125.196" r="14.196" style="fill:rgb(90,169,230);"/>
        </g>
        <g transform="matrix(1,0,0,1,150.087,63.9926)">
            <circle cx="118.119" cy="125.196" r="14.196" style="fill:rgb(90,169,230);"/>
        </g>
        <g transform="matrix(1,0,0,1,254.196,77.4926)">
            <circle cx="118.119" cy="125.196" r="14.196" style="fill:rgb(90,169,230);"/>
        </g>
        <g transform="matrix(1,0,0,1,378.904,77.4926)">
            <circle cx="118.119" cy="125.196" r="14.196" style="fill:rgb(90,169,230);"/>
        </g>
        <g transform="matrix(1,0,0,1,46.3504,29.4926)">
            <circle cx="118.119" cy="125.196" r="14.196" style="fill:rgb(90,169,230);"/>
        </g>
        <g transform="matrix(1,0,0,1,-16.0035,77.4926)">
            <circle cx="118.119" cy="125.196" r="14.196" style="fill:none;stroke:rgb(90,169,230);stroke-width:2px;stroke-dasharray:2,6,0,0;"/>
        </g>
        <g transform="matrix(1,0,0,1,66.2722,136.598)">
            <circle cx="118.119" cy="125.196" r="14.196" style="fill:none;stroke:rgb(90,169,230);stroke-width:2px;stroke-dasharray:2,6,0,0;"/>
        </g>
        <g transform="matrix(1,0,0,1,171.058,172.1)">
            <circle cx="118.119" cy="125.196" r="14.196" style="fill:none;stroke:rgb(90,169,230);stroke-width:2px;stroke-dasharray:2,6,0,0;"/>
        </g>
        <g transform="matrix(1,0,0,1,274.118,184.598)">
            <circle cx="118.119" cy="125.196" r="14.196" style="fill:rgb(90,169,230);"/>
        </g>
        <g transform="matrix(1,0,0,1,-92.1643,-56.2375)">
            <text x="129.904px" y="123px" style="font-family:'Montserrat-Light', 'Montserrat';font-weight:300;font-size:18px;fill:rgb(90,169,230);">Cit<tspan x="154.474px " y="123px ">y</tspan></text>
        </g>
        <g transform="matrix(1,0,0,1,17.4575,4.89834)">
            <text x="129.904px" y="123px" style="font-family:'Montserrat-Light', 'Montserrat';font-weight:300;font-size:18px;fill:rgb(90,169,230);">Neighbor<tspan x="214.63px " y="123px ">h</tspan>ood</text>
        </g>
        <g transform="matrix(1,0,0,1,135.096,45.998)">
            <text x="129.904px" y="123px" style="font-family:'Montserrat-Light', 'Montserrat';font-weight:300;font-size:18px;fill:rgb(90,169,230);">Bloc<tspan x="169.126px " y="123px ">k</tspan></text>
        </g>
        <g transform="matrix(1,0,0,1,237.761,60.7063)">
            <text x="129.904px" y="123px" style="font-family:'Montserrat-Light', 'Montserrat';font-weight:300;font-size:18px;fill:rgb(90,169,230);">P<tspan x="142.504px 152.998px 159.838px 169.666px " y="123px 123px 123px 123px ">arce</tspan>l</text>
        </g>
        <g transform="matrix(1,0,0,1,358.736,60.7063)">
            <text x="129.904px" y="123px" style="font-family:'Montserrat-Light', 'Montserrat';font-weight:300;font-size:18px;fill:rgb(90,169,230);">Building</text>
        </g>
        <g transform="matrix(1,0,0,1,265.414,219.458)">
            <text x="129.904px" y="123px" style="font-family:'Montserrat-Light', 'Montserrat';font-weight:300;font-size:18px;fill:rgb(90,169,230);">Z<tspan x="141.226px " y="123px ">o</tspan>ning</text>
        </g>
        <g transform="matrix(1,0,0,1,18.9773,22.6887)">
            <g transform="matrix(1,-0,-0,1,-18.9773,3.59528)">
                <path d="M100.81,153.746L98.998,160.205L94.918,154.88C96.675,156.069 99.621,155.502 100.81,153.746Z" style="fill:rgb(90,169,230);"/>
                <path d="M84.449,84.605C84.449,84.605 94.909,138.959 98.091,155.491" style="fill:none;stroke:rgb(90,169,230);stroke-width:2px;stroke-dasharray:2,6,0,0;"/>
            </g>
        </g>
        <g transform="matrix(1,0,0,1,101.253,81.7943)">
            <g transform="matrix(1,-0,-0,1,-101.253,-55.5103)">
                <path d="M183.086,212.851L181.274,219.31L177.194,213.985C178.95,215.175 181.896,214.608 183.086,212.851Z" style="fill:rgb(90,169,230);"/>
                <path d="M166.724,143.71C166.724,143.71 177.185,198.065 180.367,214.597" style="fill:none;stroke:rgb(90,169,230);stroke-width:2px;stroke-dasharray:2,6,0,0;"/>
            </g>
        </g>
        <g transform="matrix(1,0,0,1,206.039,117.296)">
            <g transform="matrix(1,-0,-0,1,-206.039,-91.0122)">
                <path d="M287.872,248.353L286.06,254.812L281.98,249.487C283.736,250.677 286.682,250.11 287.872,248.353Z" style="fill:rgb(90,169,230);"/>
                <path d="M271.51,179.212C271.51,179.212 281.971,233.567 285.152,250.099" style="fill:none;stroke:rgb(90,169,230);stroke-width:2px;stroke-dasharray:2,6,0,0;"/>
            </g>
        </g>
        <g transform="matrix(1,0,0,1,309.099,129.794)">
            <g transform="matrix(1,-0,-0,1,-309.099,-103.51)">
                <path d="M378.65,197.035L374.571,191.71L372.758,198.169L378.65,197.035Z" style="fill:rgb(90,169,230);"/>
                <path d="M390.932,260.851L389.12,267.31L385.04,261.985C386.796,263.175 389.742,262.608 390.932,260.851Z" style="fill:rgb(90,169,230);"/>
                <path d="M375.478,196.424C378.089,209.991 385.602,249.03 388.213,262.597" style="fill:none;stroke:rgb(90,169,230);stroke-width:2px;"/>
            </g>
        </g>
        <g transform="matrix(1,0,0,1,18.9773,22.6887)">
            <g transform="matrix(1,-0,-0,1,-18.9773,3.59528)">
                <path d="M143.992,117.326L150.613,118.405L147.503,112.461C147.842,114.555 146.086,116.988 143.992,117.326Z" style="fill:rgb(90,169,230);"/>
                <path d="M146.721,115.596C134.11,106.495 95.188,78.405 95.188,78.405" style="fill:none;stroke:rgb(90,169,230);stroke-width:2px;"/>
            </g>
        </g>
        <g transform="matrix(1,0,0,1,18.9773,22.6887)">
            <g transform="matrix(1,-0,-0,1,-18.9773,3.59528)">
                <path d="M247.467,153.981L252.155,158.78L245.503,159.65C247.412,158.724 248.394,155.889 247.467,153.981Z" style="fill:rgb(90,169,230);"/>
                <path d="M180.708,134.03C180.708,134.03 231.899,151.763 247.619,157.209" style="fill:none;stroke:rgb(90,169,230);stroke-width:2px;"/>
            </g>
        </g>
        <g transform="matrix(1,0,0,1,18.9773,22.6887)">
            <g transform="matrix(1,-0,-0,1,-18.9773,3.59528)">
                <path d="M349.379,170.736L354.995,174.405L348.691,176.697C350.353,175.379 350.697,172.398 349.379,170.736Z" style="fill:rgb(90,169,230);"/>
                <path d="M285.713,166.405C285.713,166.405 334.567,172.046 350.227,173.854" style="fill:none;stroke:rgb(90,169,230);stroke-width:2px;"/>
            </g>
        </g>
        <g transform="matrix(0.692308,0,0,0.692308,132.493,78.0734)">
            <g transform="matrix(1.44444,-0,-0,1.44444,-191.379,-74.8068)">
                <path d="M393.904,173.405L387.904,176.405L393.904,179.405L393.904,173.405Z" style="fill:rgb(90,169,230);"/>
                <path d="M475.435,173.405L481.435,176.405L475.435,179.405C476.935,177.905 476.935,174.905 475.435,173.405Z" style="fill:rgb(90,169,230);"/>
                <path d="M392.704,176.405L476.635,176.405" style="fill:none;stroke:rgb(90,169,230);stroke-width:2px;"/>
            </g>
        </g>
        <g transform="matrix(1,0,0,1,18.9773,22.6887)">
            <g transform="matrix(1,-0,-0,1,-18.9773,3.59528)">
                <path d="M406.233,266.43L404.235,272.833L410.557,270.59L406.233,266.43Z" style="fill:rgb(90,169,230);"/>
                <path d="M479.567,190.219L485.889,187.976L483.89,194.38C483.849,192.259 481.688,190.179 479.567,190.219Z" style="fill:rgb(90,169,230);"/>
                <path d="M407.563,269.375C420.764,255.656 469.36,205.154 482.56,191.435" style="fill:none;stroke:rgb(90,169,230);stroke-width:2px;"/>
            </g>
        </g>
    </g>
</svg>
