<?xml version="1.0" encoding="UTF-8" standalone="no"?>
<!DOCTYPE svg PUBLIC "-//W3C//DTD SVG 1.1//EN" "http://www.w3.org/Graphics/SVG/1.1/DTD/svg11.dtd">
<svg width="100%" height="100%" viewBox="0 0 600 160" version="1.1" xmlns="http://www.w3.org/2000/svg" xmlns:xlink="http://www.w3.org/1999/xlink" xml:space="preserve" xmlns:serif="http://www.serif.com/" style="fill-rule:evenodd;clip-rule:evenodd;stroke-linecap:round;stroke-linejoin:round;stroke-miterlimit:1.5;">
    <g id="Layer1" transform="matrix(1,0,0,1,-84,-112)">
        <g transform="matrix(1,0,0,1,2.59003,78.9113)">
            <circle cx="118.119" cy="125.196" r="14.196" style="fill:rgb(90,169,230);"/>
        </g>
        <g transform="matrix(1,0,0,1,439.067,78.9113)">
            <circle cx="118.119" cy="125.196" r="14.196" style="fill:rgb(90,169,230);"/>
        </g>
        <g transform="matrix(0.999999,1.854e-21,1.29731e-20,0.999995,84.0019,102)">
            <g>
                <path d="M65.504,96.804L53.504,102.804L65.504,108.804L65.504,96.804Z" style="fill:rgb(90,169,230);"/>
                <path d="M444.392,96.804L456.392,102.804L444.392,108.804C447.392,105.804 447.392,99.804 444.392,96.804Z" style="fill:rgb(90,169,230);"/>
                <path d="M63.104,102.804L446.792,102.804" style="fill:none;stroke:rgb(90,169,230);stroke-width:4px;"/>
            </g>
        </g>
        <g transform="matrix(1,0,0,1,97.4091,175.896)">
            <g>
                <path d="M12.456,-12.6L12.456,0L11.7,0L3.114,-10.944L3.114,0L2.196,0L2.196,-12.6L2.97,-12.6L11.538,-1.656L11.538,-12.6L12.456,-12.6Z" style="fill:rgb(90,169,230);fill-rule:nonzero;"/>
                <path d="M20.232,0.072C19.344,0.072 18.543,-0.132 17.829,-0.54C17.115,-0.948 16.554,-1.515 16.146,-2.241C15.738,-2.967 15.534,-3.786 15.534,-4.698C15.534,-5.61 15.738,-6.429 16.146,-7.155C16.554,-7.881 17.115,-8.448 17.829,-8.856C18.543,-9.264 19.344,-9.468 20.232,-9.468C21.12,-9.468 21.921,-9.264 22.635,-8.856C23.349,-8.448 23.91,-7.881 24.318,-7.155C24.726,-6.429 24.93,-5.61 24.93,-4.698C24.93,-3.786 24.726,-2.967 24.318,-2.241C23.91,-1.515 23.349,-0.948 22.635,-0.54C21.921,-0.132 21.12,0.072 20.232,0.072ZM20.232,-0.738C20.952,-0.738 21.597,-0.906 22.167,-1.242C22.737,-1.578 23.187,-2.046 23.517,-2.646C23.847,-3.246 24.012,-3.93 24.012,-4.698C24.012,-5.466 23.847,-6.15 23.517,-6.75C23.187,-7.35 22.737,-7.818 22.167,-8.154C21.597,-8.49 20.952,-8.658 20.232,-8.658C19.512,-8.658 18.867,-8.49 18.297,-8.154C17.727,-7.818 17.277,-7.35 16.947,-6.75C16.617,-6.15 16.452,-5.466 16.452,-4.698C16.452,-3.93 16.617,-3.246 16.947,-2.646C17.277,-2.046 17.727,-1.578 18.297,-1.242C18.867,-0.906 19.512,-0.738 20.232,-0.738Z" style="fill:rgb(90,169,230);fill-rule:nonzero;"/>
                <path d="M36.072,-13.356L36.072,0L35.19,0L35.19,-2.214C34.818,-1.482 34.296,-0.918 33.624,-0.522C32.952,-0.126 32.19,0.072 31.338,0.072C30.462,0.072 29.67,-0.132 28.962,-0.54C28.254,-0.948 27.699,-1.512 27.297,-2.232C26.895,-2.952 26.694,-3.774 26.694,-4.698C26.694,-5.622 26.895,-6.447 27.297,-7.173C27.699,-7.899 28.254,-8.463 28.962,-8.865C29.67,-9.267 30.462,-9.468 31.338,-9.468C32.178,-9.468 32.931,-9.27 33.597,-8.874C34.263,-8.478 34.788,-7.926 35.172,-7.218L35.172,-13.356L36.072,-13.356ZM31.392,-0.738C32.112,-0.738 32.757,-0.906 33.327,-1.242C33.897,-1.578 34.347,-2.046 34.677,-2.646C35.007,-3.246 35.172,-3.93 35.172,-4.698C35.172,-5.466 35.007,-6.15 34.677,-6.75C34.347,-7.35 33.897,-7.818 33.327,-8.154C32.757,-8.49 32.112,-8.658 31.392,-8.658C30.672,-8.658 30.027,-8.49 29.457,-8.154C28.887,-7.818 28.437,-7.35 28.107,-6.75C27.777,-6.15 27.612,-5.466 27.612,-4.698C27.612,-3.93 27.777,-3.246 28.107,-2.646C28.437,-2.046 28.887,-1.578 29.457,-1.242C30.027,-0.906 30.672,-0.738 31.392,-0.738Z" style="fill:rgb(90,169,230);fill-rule:nonzero;"/>
                <path d="M47.808,-4.482L39.726,-4.482C39.75,-3.75 39.936,-3.099 40.284,-2.529C40.632,-1.959 41.103,-1.518 41.697,-1.206C42.291,-0.894 42.96,-0.738 43.704,-0.738C44.316,-0.738 44.883,-0.849 45.405,-1.071C45.927,-1.293 46.362,-1.62 46.71,-2.052L47.232,-1.458C46.824,-0.966 46.311,-0.588 45.693,-0.324C45.075,-0.06 44.406,0.072 43.686,0.072C42.75,0.072 41.916,-0.132 41.184,-0.54C40.452,-0.948 39.879,-1.512 39.465,-2.232C39.051,-2.952 38.844,-3.774 38.844,-4.698C38.844,-5.61 39.039,-6.429 39.429,-7.155C39.819,-7.881 40.356,-8.448 41.04,-8.856C41.724,-9.264 42.492,-9.468 43.344,-9.468C44.196,-9.468 44.961,-9.267 45.639,-8.865C46.317,-8.463 46.851,-7.902 47.241,-7.182C47.631,-6.462 47.826,-5.646 47.826,-4.734L47.808,-4.482ZM43.344,-8.676C42.684,-8.676 42.09,-8.529 41.562,-8.235C41.034,-7.941 40.611,-7.527 40.293,-6.993C39.975,-6.459 39.792,-5.856 39.744,-5.184L46.944,-5.184C46.908,-5.856 46.728,-6.456 46.404,-6.984C46.08,-7.512 45.654,-7.926 45.126,-8.226C44.598,-8.526 44.004,-8.676 43.344,-8.676Z" style="fill:rgb(90,169,230);fill-rule:nonzero;"/>
            </g>
        </g>
        <g transform="matrix(1,0,0,1,532.146,175.896)">
            <g>
                <path d="M12.456,-12.6L12.456,0L11.7,0L3.114,-10.944L3.114,0L2.196,0L2.196,-12.6L2.97,-12.6L11.538,-1.656L11.538,-12.6L12.456,-12.6Z" style="fill:rgb(90,169,230);fill-rule:nonzero;"/>
                <path d="M20.232,0.072C19.344,0.072 18.543,-0.132 17.829,-0.54C17.115,-0.948 16.554,-1.515 16.146,-2.241C15.738,-2.967 15.534,-3.786 15.534,-4.698C15.534,-5.61 15.738,-6.429 16.146,-7.155C16.554,-7.881 17.115,-8.448 17.829,-8.856C18.543,-9.264 19.344,-9.468 20.232,-9.468C21.12,-9.468 21.921,-9.264 22.635,-8.856C23.349,-8.448 23.91,-7.881 24.318,-7.155C24.726,-6.429 24.93,-5.61 24.93,-4.698C24.93,-3.786 24.726,-2.967 24.318,-2.241C23.91,-1.515 23.349,-0.948 22.635,-0.54C21.921,-0.132 21.12,0.072 20.232,0.072ZM20.232,-0.738C20.952,-0.738 21.597,-0.906 22.167,-1.242C22.737,-1.578 23.187,-2.046 23.517,-2.646C23.847,-3.246 24.012,-3.93 24.012,-4.698C24.012,-5.466 23.847,-6.15 23.517,-6.75C23.187,-7.35 22.737,-7.818 22.167,-8.154C21.597,-8.49 20.952,-8.658 20.232,-8.658C19.512,-8.658 18.867,-8.49 18.297,-8.154C17.727,-7.818 17.277,-7.35 16.947,-6.75C16.617,-6.15 16.452,-5.466 16.452,-4.698C16.452,-3.93 16.617,-3.246 16.947,-2.646C17.277,-2.046 17.727,-1.578 18.297,-1.242C18.867,-0.906 19.512,-0.738 20.232,-0.738Z" style="fill:rgb(90,169,230);fill-rule:nonzero;"/>
                <path d="M36.072,-13.356L36.072,0L35.19,0L35.19,-2.214C34.818,-1.482 34.296,-0.918 33.624,-0.522C32.952,-0.126 32.19,0.072 31.338,0.072C30.462,0.072 29.67,-0.132 28.962,-0.54C28.254,-0.948 27.699,-1.512 27.297,-2.232C26.895,-2.952 26.694,-3.774 26.694,-4.698C26.694,-5.622 26.895,-6.447 27.297,-7.173C27.699,-7.899 28.254,-8.463 28.962,-8.865C29.67,-9.267 30.462,-9.468 31.338,-9.468C32.178,-9.468 32.931,-9.27 33.597,-8.874C34.263,-8.478 34.788,-7.926 35.172,-7.218L35.172,-13.356L36.072,-13.356ZM31.392,-0.738C32.112,-0.738 32.757,-0.906 33.327,-1.242C33.897,-1.578 34.347,-2.046 34.677,-2.646C35.007,-3.246 35.172,-3.93 35.172,-4.698C35.172,-5.466 35.007,-6.15 34.677,-6.75C34.347,-7.35 33.897,-7.818 33.327,-8.154C32.757,-8.49 32.112,-8.658 31.392,-8.658C30.672,-8.658 30.027,-8.49 29.457,-8.154C28.887,-7.818 28.437,-7.35 28.107,-6.75C27.777,-6.15 27.612,-5.466 27.612,-4.698C27.612,-3.93 27.777,-3.246 28.107,-2.646C28.437,-2.046 28.887,-1.578 29.457,-1.242C30.027,-0.906 30.672,-0.738 31.392,-0.738Z" style="fill:rgb(90,169,230);fill-rule:nonzero;"/>
                <path d="M47.808,-4.482L39.726,-4.482C39.75,-3.75 39.936,-3.099 40.284,-2.529C40.632,-1.959 41.103,-1.518 41.697,-1.206C42.291,-0.894 42.96,-0.738 43.704,-0.738C44.316,-0.738 44.883,-0.849 45.405,-1.071C45.927,-1.293 46.362,-1.62 46.71,-2.052L47.232,-1.458C46.824,-0.966 46.311,-0.588 45.693,-0.324C45.075,-0.06 44.406,0.072 43.686,0.072C42.75,0.072 41.916,-0.132 41.184,-0.54C40.452,-0.948 39.879,-1.512 39.465,-2.232C39.051,-2.952 38.844,-3.774 38.844,-4.698C38.844,-5.61 39.039,-6.429 39.429,-7.155C39.819,-7.881 40.356,-8.448 41.04,-8.856C41.724,-9.264 42.492,-9.468 43.344,-9.468C44.196,-9.468 44.961,-9.267 45.639,-8.865C46.317,-8.463 46.851,-7.902 47.241,-7.182C47.631,-6.462 47.826,-5.646 47.826,-4.734L47.808,-4.482ZM43.344,-8.676C42.684,-8.676 42.09,-8.529 41.562,-8.235C41.034,-7.941 40.611,-7.527 40.293,-6.993C39.975,-6.459 39.792,-5.856 39.744,-5.184L46.944,-5.184C46.908,-5.856 46.728,-6.456 46.404,-6.984C46.08,-7.512 45.654,-7.926 45.126,-8.226C44.598,-8.526 44.004,-8.676 43.344,-8.676Z" style="fill:rgb(90,169,230);fill-rule:nonzero;"/>
            </g>
        </g>
        <g transform="matrix(1,0,0,1,175.044,62.5974)">
            <g>
                <g>
                    <g transform="matrix(1,0,0,1,129.904,123)">
                        <path d="M10.89,-0.828L10.89,0L2.196,0L2.196,-12.6L10.62,-12.6L10.62,-11.772L3.114,-11.772L3.114,-6.804L9.828,-6.804L9.828,-5.994L3.114,-5.994L3.114,-0.828L10.89,-0.828Z" style="fill:rgb(90,169,230);fill-rule:nonzero;"/>
                    </g>
                    <g transform="matrix(1,0,0,1,141.784,123)">
                        <g>
                            <path d="M10.26,-13.356L10.26,0L9.378,0L9.378,-2.214C9.006,-1.482 8.484,-0.918 7.812,-0.522C7.14,-0.126 6.378,0.072 5.526,0.072C4.65,0.072 3.858,-0.132 3.15,-0.54C2.442,-0.948 1.887,-1.512 1.485,-2.232C1.083,-2.952 0.882,-3.774 0.882,-4.698C0.882,-5.622 1.083,-6.447 1.485,-7.173C1.887,-7.899 2.442,-8.463 3.15,-8.865C3.858,-9.267 4.65,-9.468 5.526,-9.468C6.366,-9.468 7.119,-9.27 7.785,-8.874C8.451,-8.478 8.976,-7.926 9.36,-7.218L9.36,-13.356L10.26,-13.356ZM5.58,-0.738C6.3,-0.738 6.945,-0.906 7.515,-1.242C8.085,-1.578 8.535,-2.046 8.865,-2.646C9.195,-3.246 9.36,-3.93 9.36,-4.698C9.36,-5.466 9.195,-6.15 8.865,-6.75C8.535,-7.35 8.085,-7.818 7.515,-8.154C6.945,-8.49 6.3,-8.658 5.58,-8.658C4.86,-8.658 4.215,-8.49 3.645,-8.154C3.075,-7.818 2.625,-7.35 2.295,-6.75C1.965,-6.15 1.8,-5.466 1.8,-4.698C1.8,-3.93 1.965,-3.246 2.295,-2.646C2.625,-2.046 3.075,-1.578 3.645,-1.242C4.215,-0.906 4.86,-0.738 5.58,-0.738Z" style="fill:rgb(90,169,230);fill-rule:nonzero;"/>
                            <path d="M22.518,-9.396L22.518,-1.008C22.518,0.552 22.14,1.704 21.384,2.448C20.628,3.192 19.488,3.564 17.964,3.564C17.1,3.564 16.284,3.432 15.516,3.168C14.748,2.904 14.13,2.538 13.662,2.07L14.148,1.386C14.616,1.818 15.18,2.154 15.84,2.394C16.5,2.634 17.202,2.754 17.946,2.754C19.194,2.754 20.118,2.457 20.718,1.863C21.318,1.269 21.618,0.348 21.618,-0.9L21.618,-2.484C21.234,-1.8 20.7,-1.272 20.016,-0.9C19.332,-0.528 18.564,-0.342 17.712,-0.342C16.836,-0.342 16.041,-0.537 15.327,-0.927C14.613,-1.317 14.052,-1.86 13.644,-2.556C13.236,-3.252 13.032,-4.038 13.032,-4.914C13.032,-5.79 13.236,-6.576 13.644,-7.272C14.052,-7.968 14.613,-8.508 15.327,-8.892C16.041,-9.276 16.836,-9.468 17.712,-9.468C18.576,-9.468 19.356,-9.276 20.052,-8.892C20.748,-8.508 21.282,-7.968 21.654,-7.272L21.654,-9.396L22.518,-9.396ZM17.784,-1.152C18.516,-1.152 19.176,-1.311 19.764,-1.629C20.352,-1.947 20.811,-2.391 21.141,-2.961C21.471,-3.531 21.636,-4.182 21.636,-4.914C21.636,-5.646 21.471,-6.294 21.141,-6.858C20.811,-7.422 20.352,-7.863 19.764,-8.181C19.176,-8.499 18.516,-8.658 17.784,-8.658C17.052,-8.658 16.395,-8.499 15.813,-8.181C15.231,-7.863 14.775,-7.422 14.445,-6.858C14.115,-6.294 13.95,-5.646 13.95,-4.914C13.95,-4.182 14.115,-3.531 14.445,-2.961C14.775,-2.391 15.231,-1.947 15.813,-1.629C16.395,-1.311 17.052,-1.152 17.784,-1.152Z" style="fill:rgb(90,169,230);fill-rule:nonzero;"/>
                            <path d="M34.272,-4.482L26.19,-4.482C26.214,-3.75 26.4,-3.099 26.748,-2.529C27.096,-1.959 27.567,-1.518 28.161,-1.206C28.755,-0.894 29.424,-0.738 30.168,-0.738C30.78,-0.738 31.347,-0.849 31.869,-1.071C32.391,-1.293 32.826,-1.62 33.174,-2.052L33.696,-1.458C33.288,-0.966 32.775,-0.588 32.157,-0.324C31.539,-0.06 30.87,0.072 30.15,0.072C29.214,0.072 28.38,-0.132 27.648,-0.54C26.916,-0.948 26.343,-1.512 25.929,-2.232C25.515,-2.952 25.308,-3.774 25.308,-4.698C25.308,-5.61 25.503,-6.429 25.893,-7.155C26.283,-7.881 26.82,-8.448 27.504,-8.856C28.188,-9.264 28.956,-9.468 29.808,-9.468C30.66,-9.468 31.425,-9.267 32.103,-8.865C32.781,-8.463 33.315,-7.902 33.705,-7.182C34.095,-6.462 34.29,-5.646 34.29,-4.734L34.272,-4.482ZM29.808,-8.676C29.148,-8.676 28.554,-8.529 28.026,-8.235C27.498,-7.941 27.075,-7.527 26.757,-6.993C26.439,-6.459 26.256,-5.856 26.208,-5.184L33.408,-5.184C33.372,-5.856 33.192,-6.456 32.868,-6.984C32.544,-7.512 32.118,-7.926 31.59,-8.226C31.062,-8.526 30.468,-8.676 29.808,-8.676Z" style="fill:rgb(90,169,230);fill-rule:nonzero;"/>
                        </g>
                    </g>
                </g>
            </g>
        </g>
    </g>
</svg>
