<?xml version="1.0" encoding="UTF-8" standalone="no"?>
<!DOCTYPE svg PUBLIC "-//W3C//DTD SVG 1.1//EN" "http://www.w3.org/Graphics/SVG/1.1/DTD/svg11.dtd">
<svg width="100%" height="100%" viewBox="0 0 600 340" version="1.1" xmlns="http://www.w3.org/2000/svg" xmlns:xlink="http://www.w3.org/1999/xlink" xml:space="preserve" xmlns:serif="http://www.serif.com/" style="fill-rule:evenodd;clip-rule:evenodd;stroke-linecap:round;stroke-linejoin:round;stroke-miterlimit:1.5;">
    <g id="diagram_city" transform="matrix(1,0,0,1,0,-26.284)">
        <g transform="matrix(1,0,0,1,-36.7881,-30.5074)">
            <circle cx="118.119" cy="125.196" r="14.196" style="fill:rgb(90,169,230);"/>
        </g>
        <g transform="matrix(1,0,0,1,150.087,63.9926)">
            <circle cx="118.119" cy="125.196" r="14.196" style="fill:rgb(90,169,230);"/>
        </g>
        <g transform="matrix(1,0,0,1,254.196,77.4926)">
            <circle cx="118.119" cy="125.196" r="14.196" style="fill:rgb(90,169,230);"/>
        </g>
        <g transform="matrix(1,0,0,1,378.904,77.4926)">
            <circle cx="118.119" cy="125.196" r="14.196" style="fill:rgb(90,169,230);"/>
        </g>
        <g transform="matrix(1,0,0,1,46.3504,29.4926)">
            <circle cx="118.119" cy="125.196" r="14.196" style="fill:rgb(90,169,230);"/>
        </g>
        <g transform="matrix(1,0,0,1,-16.0035,77.4926)">
            <circle cx="118.119" cy="125.196" r="14.196" style="fill:none;stroke:rgb(90,169,230);stroke-width:2px;stroke-dasharray:2,6,0,0;"/>
        </g>
        <g transform="matrix(1,0,0,1,66.2722,136.598)">
            <circle cx="118.119" cy="125.196" r="14.196" style="fill:none;stroke:rgb(90,169,230);stroke-width:2px;stroke-dasharray:2,6,0,0;"/>
        </g>
        <g transform="matrix(1,0,0,1,171.058,172.1)">
            <circle cx="118.119" cy="125.196" r="14.196" style="fill:none;stroke:rgb(90,169,230);stroke-width:2px;stroke-dasharray:2,6,0,0;"/>
        </g>
        <g transform="matrix(1,0,0,1,274.118,184.598)">
            <circle cx="118.119" cy="125.196" r="14.196" style="fill:rgb(90,169,230);"/>
        </g>
        <g transform="matrix(1,0,0,1,-92.1643,-56.2375)">
            <g>
                <g transform="matrix(1,0,0,1,129.904,123)">
                    <path d="M7.524,0.09C6.288,0.09 5.175,-0.186 4.185,-0.738C3.195,-1.29 2.415,-2.052 1.845,-3.024C1.275,-3.996 0.99,-5.088 0.99,-6.3C0.99,-7.512 1.275,-8.604 1.845,-9.576C2.415,-10.548 3.195,-11.31 4.185,-11.862C5.175,-12.414 6.288,-12.69 7.524,-12.69C8.436,-12.69 9.276,-12.543 10.044,-12.249C10.812,-11.955 11.466,-11.52 12.006,-10.944L11.43,-10.35C10.422,-11.346 9.132,-11.844 7.56,-11.844C6.504,-11.844 5.544,-11.604 4.68,-11.124C3.816,-10.644 3.138,-9.981 2.646,-9.135C2.154,-8.289 1.908,-7.344 1.908,-6.3C1.908,-5.256 2.154,-4.311 2.646,-3.465C3.138,-2.619 3.816,-1.956 4.68,-1.476C5.544,-0.996 6.504,-0.756 7.56,-0.756C9.12,-0.756 10.41,-1.26 11.43,-2.268L12.006,-1.674C11.466,-1.098 10.809,-0.66 10.035,-0.36C9.261,-0.06 8.424,0.09 7.524,0.09Z" style="fill:rgb(90,169,230);fill-rule:nonzero;"/>
                    <path d="M14.796,-9.396L15.696,-9.396L15.696,0L14.796,0L14.796,-9.396ZM15.246,-11.682C15.042,-11.682 14.868,-11.751 14.724,-11.889C14.58,-12.027 14.508,-12.198 14.508,-12.402C14.508,-12.606 14.58,-12.78 14.724,-12.924C14.868,-13.068 15.042,-13.14 15.246,-13.14C15.45,-13.14 15.624,-13.071 15.768,-12.933C15.912,-12.795 15.984,-12.624 15.984,-12.42C15.984,-12.216 15.912,-12.042 15.768,-11.898C15.624,-11.754 15.45,-11.682 15.246,-11.682Z" style="fill:rgb(90,169,230);fill-rule:nonzero;"/>
                    <path d="M24.156,-0.594C23.928,-0.378 23.643,-0.213 23.301,-0.099C22.959,0.015 22.602,0.072 22.23,0.072C21.414,0.072 20.784,-0.153 20.34,-0.603C19.896,-1.053 19.674,-1.68 19.674,-2.484L19.674,-8.622L17.946,-8.622L17.946,-9.396L19.674,-9.396L19.674,-11.448L20.574,-11.448L20.574,-9.396L23.562,-9.396L23.562,-8.622L20.574,-8.622L20.574,-2.574C20.574,-1.962 20.721,-1.497 21.015,-1.179C21.309,-0.861 21.744,-0.702 22.32,-0.702C22.908,-0.702 23.394,-0.876 23.778,-1.224L24.156,-0.594Z" style="fill:rgb(90,169,230);fill-rule:nonzero;"/>
                </g>
                <g transform="matrix(1,0,0,1,154.474,123)">
                    <path d="M9.45,-9.396L4.626,1.278C4.266,2.106 3.849,2.694 3.375,3.042C2.901,3.39 2.34,3.564 1.692,3.564C1.26,3.564 0.855,3.492 0.477,3.348C0.099,3.204 -0.222,2.994 -0.486,2.718L-0.036,2.034C0.444,2.526 1.026,2.772 1.71,2.772C2.166,2.772 2.556,2.646 2.88,2.394C3.204,2.142 3.504,1.71 3.78,1.098L4.284,-0.036L0.054,-9.396L1.008,-9.396L4.77,-0.99L8.532,-9.396L9.45,-9.396Z" style="fill:rgb(90,169,230);fill-rule:nonzero;"/>
                </g>
            </g>
        </g>
        <g transform="matrix(1,0,0,1,17.4575,4.89834)">
            <g>
                <g transform="matrix(1,0,0,1,129.904,123)">
                    <path d="M12.456,-12.6L12.456,0L11.7,0L3.114,-10.944L3.114,0L2.196,0L2.196,-12.6L2.97,-12.6L11.538,-1.656L11.538,-12.6L12.456,-12.6Z" style="fill:rgb(90,169,230);fill-rule:nonzero;"/>
                    <path d="M24.498,-4.482L16.416,-4.482C16.44,-3.75 16.626,-3.099 16.974,-2.529C17.322,-1.959 17.793,-1.518 18.387,-1.206C18.981,-0.894 19.65,-0.738 20.394,-0.738C21.006,-0.738 21.573,-0.849 22.095,-1.071C22.617,-1.293 23.052,-1.62 23.4,-2.052L23.922,-1.458C23.514,-0.966 23.001,-0.588 22.383,-0.324C21.765,-0.06 21.096,0.072 20.376,0.072C19.44,0.072 18.606,-0.132 17.874,-0.54C17.142,-0.948 16.569,-1.512 16.155,-2.232C15.741,-2.952 15.534,-3.774 15.534,-4.698C15.534,-5.61 15.729,-6.429 16.119,-7.155C16.509,-7.881 17.046,-8.448 17.73,-8.856C18.414,-9.264 19.182,-9.468 20.034,-9.468C20.886,-9.468 21.651,-9.267 22.329,-8.865C23.007,-8.463 23.541,-7.902 23.931,-7.182C24.321,-6.462 24.516,-5.646 24.516,-4.734L24.498,-4.482ZM20.034,-8.676C19.374,-8.676 18.78,-8.529 18.252,-8.235C17.724,-7.941 17.301,-7.527 16.983,-6.993C16.665,-6.459 16.482,-5.856 16.434,-5.184L23.634,-5.184C23.598,-5.856 23.418,-6.456 23.094,-6.984C22.77,-7.512 22.344,-7.926 21.816,-8.226C21.288,-8.526 20.694,-8.676 20.034,-8.676Z" style="fill:rgb(90,169,230);fill-rule:nonzero;"/>
                    <path d="M27.306,-9.396L28.206,-9.396L28.206,0L27.306,0L27.306,-9.396ZM27.756,-11.682C27.552,-11.682 27.378,-11.751 27.234,-11.889C27.09,-12.027 27.018,-12.198 27.018,-12.402C27.018,-12.606 27.09,-12.78 27.234,-12.924C27.378,-13.068 27.552,-13.14 27.756,-13.14C27.96,-13.14 28.134,-13.071 28.278,-12.933C28.422,-12.795 28.494,-12.624 28.494,-12.42C28.494,-12.216 28.422,-12.042 28.278,-11.898C28.134,-11.754 27.96,-11.682 27.756,-11.682Z" style="fill:rgb(90,169,230);fill-rule:nonzero;"/>
                    <path d="M40.464,-9.396L40.464,-1.008C40.464,0.552 40.086,1.704 39.33,2.448C38.574,3.192 37.434,3.564 35.91,3.564C35.046,3.564 34.23,3.432 33.462,3.168C32.694,2.904 32.076,2.538 31.608,2.07L32.094,1.386C32.562,1.818 33.126,2.154 33.786,2.394C34.446,2.634 35.148,2.754 35.892,2.754C37.14,2.754 38.064,2.457 38.664,1.863C39.264,1.269 39.564,0.348 39.564,-0.9L39.564,-2.484C39.18,-1.8 38.646,-1.272 37.962,-0.9C37.278,-0.528 36.51,-0.342 35.658,-0.342C34.782,-0.342 33.987,-0.537 33.273,-0.927C32.559,-1.317 31.998,-1.86 31.59,-2.556C31.182,-3.252 30.978,-4.038 30.978,-4.914C30.978,-5.79 31.182,-6.576 31.59,-7.272C31.998,-7.968 32.559,-8.508 33.273,-8.892C33.987,-9.276 34.782,-9.468 35.658,-9.468C36.522,-9.468 37.302,-9.276 37.998,-8.892C38.694,-8.508 39.228,-7.968 39.6,-7.272L39.6,-9.396L40.464,-9.396ZM35.73,-1.152C36.462,-1.152 37.122,-1.311 37.71,-1.629C38.298,-1.947 38.757,-2.391 39.087,-2.961C39.417,-3.531 39.582,-4.182 39.582,-4.914C39.582,-5.646 39.417,-6.294 39.087,-6.858C38.757,-7.422 38.298,-7.863 37.71,-8.181C37.122,-8.499 36.462,-8.658 35.73,-8.658C34.998,-8.658 34.341,-8.499 33.759,-8.181C33.177,-7.863 32.721,-7.422 32.391,-6.858C32.061,-6.294 31.896,-5.646 31.896,-4.914C31.896,-4.182 32.061,-3.531 32.391,-2.961C32.721,-2.391 33.177,-1.947 33.759,-1.629C34.341,-1.311 34.998,-1.152 35.73,-1.152Z" style="fill:rgb(90,169,230);fill-rule:nonzero;"/>
                    <path d="M48.87,-9.468C50.046,-9.468 50.976,-9.126 51.66,-8.442C52.344,-7.758 52.686,-6.774 52.686,-5.49L52.686,0L51.786,0L51.786,-5.418C51.786,-6.474 51.519,-7.278 50.985,-7.83C50.451,-8.382 49.704,-8.658 48.744,-8.658C47.64,-8.658 46.77,-8.328 46.134,-7.668C45.498,-7.008 45.18,-6.12 45.18,-5.004L45.18,0L44.28,0L44.28,-13.356L45.18,-13.356L45.18,-7.434C45.504,-8.082 45.984,-8.583 46.62,-8.937C47.256,-9.291 48.006,-9.468 48.87,-9.468Z" style="fill:rgb(90,169,230);fill-rule:nonzero;"/>
                    <path d="M61.11,-9.468C61.986,-9.468 62.778,-9.267 63.486,-8.865C64.194,-8.463 64.749,-7.899 65.151,-7.173C65.553,-6.447 65.754,-5.622 65.754,-4.698C65.754,-3.774 65.553,-2.952 65.151,-2.232C64.749,-1.512 64.194,-0.948 63.486,-0.54C62.778,-0.132 61.986,0.072 61.11,0.072C60.27,0.072 59.511,-0.129 58.833,-0.531C58.155,-0.933 57.63,-1.494 57.258,-2.214L57.258,0L56.394,0L56.394,-13.356L57.294,-13.356L57.294,-7.254C57.666,-7.95 58.188,-8.493 58.86,-8.883C59.532,-9.273 60.282,-9.468 61.11,-9.468ZM61.056,-0.738C61.776,-0.738 62.424,-0.906 63,-1.242C63.576,-1.578 64.029,-2.046 64.359,-2.646C64.689,-3.246 64.854,-3.93 64.854,-4.698C64.854,-5.466 64.689,-6.15 64.359,-6.75C64.029,-7.35 63.576,-7.818 63,-8.154C62.424,-8.49 61.776,-8.658 61.056,-8.658C60.336,-8.658 59.691,-8.49 59.121,-8.154C58.551,-7.818 58.101,-7.35 57.771,-6.75C57.441,-6.15 57.276,-5.466 57.276,-4.698C57.276,-3.93 57.441,-3.246 57.771,-2.646C58.101,-2.046 58.551,-1.578 59.121,-1.242C59.691,-0.906 60.336,-0.738 61.056,-0.738Z" style="fill:rgb(90,169,230);fill-rule:nonzero;"/>
                    <path d="M72.216,0.072C71.328,0.072 70.527,-0.132 69.813,-0.54C69.099,-0.948 68.538,-1.515 68.13,-2.241C67.722,-2.967 67.518,-3.786 67.518,-4.698C67.518,-5.61 67.722,-6.429 68.13,-7.155C68.538,-7.881 69.099,-8.448 69.813,-8.856C70.527,-9.264 71.328,-9.468 72.216,-9.468C73.104,-9.468 73.905,-9.264 74.619,-8.856C75.333,-8.448 75.894,-7.881 76.302,-7.155C76.71,-6.429 76.914,-5.61 76.914,-4.698C76.914,-3.786 76.71,-2.967 76.302,-2.241C75.894,-1.515 75.333,-0.948 74.619,-0.54C73.905,-0.132 73.104,0.072 72.216,0.072ZM72.216,-0.738C72.936,-0.738 73.581,-0.906 74.151,-1.242C74.721,-1.578 75.171,-2.046 75.501,-2.646C75.831,-3.246 75.996,-3.93 75.996,-4.698C75.996,-5.466 75.831,-6.15 75.501,-6.75C75.171,-7.35 74.721,-7.818 74.151,-8.154C73.581,-8.49 72.936,-8.658 72.216,-8.658C71.496,-8.658 70.851,-8.49 70.281,-8.154C69.711,-7.818 69.261,-7.35 68.931,-6.75C68.601,-6.15 68.436,-5.466 68.436,-4.698C68.436,-3.93 68.601,-3.246 68.931,-2.646C69.261,-2.046 69.711,-1.578 70.281,-1.242C70.851,-0.906 71.496,-0.738 72.216,-0.738Z" style="fill:rgb(90,169,230);fill-rule:nonzero;"/>
                    <path d="M80.568,-7.344C80.856,-8.028 81.306,-8.553 81.918,-8.919C82.53,-9.285 83.274,-9.468 84.15,-9.468L84.15,-8.586L83.934,-8.604C82.89,-8.604 82.074,-8.277 81.486,-7.623C80.898,-6.969 80.604,-6.06 80.604,-4.896L80.604,0L79.704,0L79.704,-9.396L80.568,-9.396L80.568,-7.344Z" style="fill:rgb(90,169,230);fill-rule:nonzero;"/>
                </g>
                <g transform="matrix(1,0,0,1,214.63,123)">
                    <path d="M6.498,-9.468C7.674,-9.468 8.604,-9.126 9.288,-8.442C9.972,-7.758 10.314,-6.774 10.314,-5.49L10.314,0L9.414,0L9.414,-5.418C9.414,-6.474 9.147,-7.278 8.613,-7.83C8.079,-8.382 7.332,-8.658 6.372,-8.658C5.268,-8.658 4.398,-8.328 3.762,-7.668C3.126,-7.008 2.808,-6.12 2.808,-5.004L2.808,0L1.908,0L1.908,-13.356L2.808,-13.356L2.808,-7.434C3.132,-8.082 3.612,-8.583 4.248,-8.937C4.884,-9.291 5.634,-9.468 6.498,-9.468Z" style="fill:rgb(90,169,230);fill-rule:nonzero;"/>
                    <path d="M17.712,0.072C16.824,0.072 16.023,-0.132 15.309,-0.54C14.595,-0.948 14.034,-1.515 13.626,-2.241C13.218,-2.967 13.014,-3.786 13.014,-4.698C13.014,-5.61 13.218,-6.429 13.626,-7.155C14.034,-7.881 14.595,-8.448 15.309,-8.856C16.023,-9.264 16.824,-9.468 17.712,-9.468C18.6,-9.468 19.401,-9.264 20.115,-8.856C20.829,-8.448 21.39,-7.881 21.798,-7.155C22.206,-6.429 22.41,-5.61 22.41,-4.698C22.41,-3.786 22.206,-2.967 21.798,-2.241C21.39,-1.515 20.829,-0.948 20.115,-0.54C19.401,-0.132 18.6,0.072 17.712,0.072ZM17.712,-0.738C18.432,-0.738 19.077,-0.906 19.647,-1.242C20.217,-1.578 20.667,-2.046 20.997,-2.646C21.327,-3.246 21.492,-3.93 21.492,-4.698C21.492,-5.466 21.327,-6.15 20.997,-6.75C20.667,-7.35 20.217,-7.818 19.647,-8.154C19.077,-8.49 18.432,-8.658 17.712,-8.658C16.992,-8.658 16.347,-8.49 15.777,-8.154C15.207,-7.818 14.757,-7.35 14.427,-6.75C14.097,-6.15 13.932,-5.466 13.932,-4.698C13.932,-3.93 14.097,-3.246 14.427,-2.646C14.757,-2.046 15.207,-1.578 15.777,-1.242C16.347,-0.906 16.992,-0.738 17.712,-0.738Z" style="fill:rgb(90,169,230);fill-rule:nonzero;"/>
                    <path d="M28.872,0.072C27.984,0.072 27.183,-0.132 26.469,-0.54C25.755,-0.948 25.194,-1.515 24.786,-2.241C24.378,-2.967 24.174,-3.786 24.174,-4.698C24.174,-5.61 24.378,-6.429 24.786,-7.155C25.194,-7.881 25.755,-8.448 26.469,-8.856C27.183,-9.264 27.984,-9.468 28.872,-9.468C29.76,-9.468 30.561,-9.264 31.275,-8.856C31.989,-8.448 32.55,-7.881 32.958,-7.155C33.366,-6.429 33.57,-5.61 33.57,-4.698C33.57,-3.786 33.366,-2.967 32.958,-2.241C32.55,-1.515 31.989,-0.948 31.275,-0.54C30.561,-0.132 29.76,0.072 28.872,0.072ZM28.872,-0.738C29.592,-0.738 30.237,-0.906 30.807,-1.242C31.377,-1.578 31.827,-2.046 32.157,-2.646C32.487,-3.246 32.652,-3.93 32.652,-4.698C32.652,-5.466 32.487,-6.15 32.157,-6.75C31.827,-7.35 31.377,-7.818 30.807,-8.154C30.237,-8.49 29.592,-8.658 28.872,-8.658C28.152,-8.658 27.507,-8.49 26.937,-8.154C26.367,-7.818 25.917,-7.35 25.587,-6.75C25.257,-6.15 25.092,-5.466 25.092,-4.698C25.092,-3.93 25.257,-3.246 25.587,-2.646C25.917,-2.046 26.367,-1.578 26.937,-1.242C27.507,-0.906 28.152,-0.738 28.872,-0.738Z" style="fill:rgb(90,169,230);fill-rule:nonzero;"/>
                    <path d="M44.712,-13.356L44.712,0L43.83,0L43.83,-2.214C43.458,-1.482 42.936,-0.918 42.264,-0.522C41.592,-0.126 40.83,0.072 39.978,0.072C39.102,0.072 38.31,-0.132 37.602,-0.54C36.894,-0.948 36.339,-1.512 35.937,-2.232C35.535,-2.952 35.334,-3.774 35.334,-4.698C35.334,-5.622 35.535,-6.447 35.937,-7.173C36.339,-7.899 36.894,-8.463 37.602,-8.865C38.31,-9.267 39.102,-9.468 39.978,-9.468C40.818,-9.468 41.571,-9.27 42.237,-8.874C42.903,-8.478 43.428,-7.926 43.812,-7.218L43.812,-13.356L44.712,-13.356ZM40.032,-0.738C40.752,-0.738 41.397,-0.906 41.967,-1.242C42.537,-1.578 42.987,-2.046 43.317,-2.646C43.647,-3.246 43.812,-3.93 43.812,-4.698C43.812,-5.466 43.647,-6.15 43.317,-6.75C42.987,-7.35 42.537,-7.818 41.967,-8.154C41.397,-8.49 40.752,-8.658 40.032,-8.658C39.312,-8.658 38.667,-8.49 38.097,-8.154C37.527,-7.818 37.077,-7.35 36.747,-6.75C36.417,-6.15 36.252,-5.466 36.252,-4.698C36.252,-3.93 36.417,-3.246 36.747,-2.646C37.077,-2.046 37.527,-1.578 38.097,-1.242C38.667,-0.906 39.312,-0.738 40.032,-0.738Z" style="fill:rgb(90,169,230);fill-rule:nonzero;"/>
                </g>
            </g>
        </g>
        <g transform="matrix(1,0,0,1,135.096,45.998)">
            <g>
                <g transform="matrix(1,0,0,1,129.904,123)">
                    <path d="M9.684,-6.498C10.584,-6.33 11.271,-5.976 11.745,-5.436C12.219,-4.896 12.456,-4.194 12.456,-3.33C12.456,-2.262 12.066,-1.44 11.286,-0.864C10.506,-0.288 9.348,0 7.812,0L2.196,0L2.196,-12.6L7.452,-12.6C8.82,-12.6 9.885,-12.321 10.647,-11.763C11.409,-11.205 11.79,-10.41 11.79,-9.378C11.79,-8.658 11.601,-8.052 11.223,-7.56C10.845,-7.068 10.332,-6.714 9.684,-6.498ZM3.114,-11.808L3.114,-6.786L7.416,-6.786C8.52,-6.786 9.369,-6.999 9.963,-7.425C10.557,-7.851 10.854,-8.478 10.854,-9.306C10.854,-10.122 10.557,-10.743 9.963,-11.169C9.369,-11.595 8.52,-11.808 7.416,-11.808L3.114,-11.808ZM7.812,-0.792C9.036,-0.792 9.963,-1.005 10.593,-1.431C11.223,-1.857 11.538,-2.514 11.538,-3.402C11.538,-4.29 11.223,-4.944 10.593,-5.364C9.963,-5.784 9.036,-5.994 7.812,-5.994L3.114,-5.994L3.114,-0.792L7.812,-0.792Z" style="fill:rgb(90,169,230);fill-rule:nonzero;"/>
                    <rect x="15.444" y="-13.356" width="0.9" height="13.356" style="fill:rgb(90,169,230);fill-rule:nonzero;"/>
                    <path d="M23.814,0.072C22.926,0.072 22.125,-0.132 21.411,-0.54C20.697,-0.948 20.136,-1.515 19.728,-2.241C19.32,-2.967 19.116,-3.786 19.116,-4.698C19.116,-5.61 19.32,-6.429 19.728,-7.155C20.136,-7.881 20.697,-8.448 21.411,-8.856C22.125,-9.264 22.926,-9.468 23.814,-9.468C24.702,-9.468 25.503,-9.264 26.217,-8.856C26.931,-8.448 27.492,-7.881 27.9,-7.155C28.308,-6.429 28.512,-5.61 28.512,-4.698C28.512,-3.786 28.308,-2.967 27.9,-2.241C27.492,-1.515 26.931,-0.948 26.217,-0.54C25.503,-0.132 24.702,0.072 23.814,0.072ZM23.814,-0.738C24.534,-0.738 25.179,-0.906 25.749,-1.242C26.319,-1.578 26.769,-2.046 27.099,-2.646C27.429,-3.246 27.594,-3.93 27.594,-4.698C27.594,-5.466 27.429,-6.15 27.099,-6.75C26.769,-7.35 26.319,-7.818 25.749,-8.154C25.179,-8.49 24.534,-8.658 23.814,-8.658C23.094,-8.658 22.449,-8.49 21.879,-8.154C21.309,-7.818 20.859,-7.35 20.529,-6.75C20.199,-6.15 20.034,-5.466 20.034,-4.698C20.034,-3.93 20.199,-3.246 20.529,-2.646C20.859,-2.046 21.309,-1.578 21.879,-1.242C22.449,-0.906 23.094,-0.738 23.814,-0.738Z" style="fill:rgb(90,169,230);fill-rule:nonzero;"/>
                    <path d="M35.028,0.072C34.116,0.072 33.3,-0.132 32.58,-0.54C31.86,-0.948 31.296,-1.515 30.888,-2.241C30.48,-2.967 30.276,-3.786 30.276,-4.698C30.276,-5.622 30.48,-6.447 30.888,-7.173C31.296,-7.899 31.86,-8.463 32.58,-8.865C33.3,-9.267 34.116,-9.468 35.028,-9.468C35.784,-9.468 36.471,-9.321 37.089,-9.027C37.707,-8.733 38.208,-8.304 38.592,-7.74L37.926,-7.254C37.59,-7.722 37.173,-8.073 36.675,-8.307C36.177,-8.541 35.628,-8.658 35.028,-8.658C34.296,-8.658 33.639,-8.493 33.057,-8.163C32.475,-7.833 32.019,-7.368 31.689,-6.768C31.359,-6.168 31.194,-5.478 31.194,-4.698C31.194,-3.918 31.359,-3.228 31.689,-2.628C32.019,-2.028 32.475,-1.563 33.057,-1.233C33.639,-0.903 34.296,-0.738 35.028,-0.738C35.628,-0.738 36.177,-0.855 36.675,-1.089C37.173,-1.323 37.59,-1.674 37.926,-2.142L38.592,-1.656C38.208,-1.092 37.707,-0.663 37.089,-0.369C36.471,-0.075 35.784,0.072 35.028,0.072Z" style="fill:rgb(90,169,230);fill-rule:nonzero;"/>
                </g>
                <g transform="matrix(1,0,0,1,169.126,123)">
                    <path d="M5.256,-5.022L2.808,-2.79L2.808,0L1.908,0L1.908,-13.356L2.808,-13.356L2.808,-3.906L8.82,-9.396L9.972,-9.396L5.922,-5.598L10.368,0L9.252,0L5.256,-5.022Z" style="fill:rgb(90,169,230);fill-rule:nonzero;"/>
                </g>
            </g>
        </g>
        <g transform="matrix(1,0,0,1,237.761,60.7063)">
            <g>
                <g transform="matrix(1,0,0,1,129.904,123)">
                    <path d="M6.714,-12.6C8.298,-12.6 9.54,-12.225 10.44,-11.475C11.34,-10.725 11.79,-9.684 11.79,-8.352C11.79,-7.032 11.34,-5.997 10.44,-5.247C9.54,-4.497 8.298,-4.122 6.714,-4.122L3.114,-4.122L3.114,0L2.196,0L2.196,-12.6L6.714,-12.6ZM6.714,-4.95C8.058,-4.95 9.084,-5.244 9.792,-5.832C10.5,-6.42 10.854,-7.26 10.854,-8.352C10.854,-9.444 10.5,-10.287 9.792,-10.881C9.084,-11.475 8.058,-11.772 6.714,-11.772L3.114,-11.772L3.114,-4.95L6.714,-4.95Z" style="fill:rgb(90,169,230);fill-rule:nonzero;"/>
                </g>
                <g transform="matrix(1,0,0,1,142.504,123)">
                    <path d="M5.076,-9.468C6.24,-9.468 7.134,-9.171 7.758,-8.577C8.382,-7.983 8.694,-7.11 8.694,-5.958L8.694,0L7.83,0L7.83,-1.674C7.53,-1.122 7.092,-0.693 6.516,-0.387C5.94,-0.081 5.25,0.072 4.446,0.072C3.402,0.072 2.577,-0.174 1.971,-0.666C1.365,-1.158 1.062,-1.806 1.062,-2.61C1.062,-3.39 1.341,-4.023 1.899,-4.509C2.457,-4.995 3.348,-5.238 4.572,-5.238L7.794,-5.238L7.794,-5.994C7.794,-6.87 7.557,-7.536 7.083,-7.992C6.609,-8.448 5.916,-8.676 5.004,-8.676C4.38,-8.676 3.783,-8.568 3.213,-8.352C2.643,-8.136 2.16,-7.848 1.764,-7.488L1.314,-8.136C1.782,-8.556 2.346,-8.883 3.006,-9.117C3.666,-9.351 4.356,-9.468 5.076,-9.468ZM4.572,-0.666C5.352,-0.666 6.015,-0.846 6.561,-1.206C7.107,-1.566 7.518,-2.088 7.794,-2.772L7.794,-4.536L4.59,-4.536C3.666,-4.536 2.997,-4.368 2.583,-4.032C2.169,-3.696 1.962,-3.234 1.962,-2.646C1.962,-2.034 2.19,-1.551 2.646,-1.197C3.102,-0.843 3.744,-0.666 4.572,-0.666Z" style="fill:rgb(90,169,230);fill-rule:nonzero;"/>
                    <path d="M13.266,-7.344C13.554,-8.028 14.004,-8.553 14.616,-8.919C15.228,-9.285 15.972,-9.468 16.848,-9.468L16.848,-8.586L16.632,-8.604C15.588,-8.604 14.772,-8.277 14.184,-7.623C13.596,-6.969 13.302,-6.06 13.302,-4.896L13.302,0L12.402,0L12.402,-9.396L13.266,-9.396L13.266,-7.344Z" style="fill:rgb(90,169,230);fill-rule:nonzero;"/>
                    <path d="M22.968,0.072C22.056,0.072 21.24,-0.132 20.52,-0.54C19.8,-0.948 19.236,-1.515 18.828,-2.241C18.42,-2.967 18.216,-3.786 18.216,-4.698C18.216,-5.622 18.42,-6.447 18.828,-7.173C19.236,-7.899 19.8,-8.463 20.52,-8.865C21.24,-9.267 22.056,-9.468 22.968,-9.468C23.724,-9.468 24.411,-9.321 25.029,-9.027C25.647,-8.733 26.148,-8.304 26.532,-7.74L25.866,-7.254C25.53,-7.722 25.113,-8.073 24.615,-8.307C24.117,-8.541 23.568,-8.658 22.968,-8.658C22.236,-8.658 21.579,-8.493 20.997,-8.163C20.415,-7.833 19.959,-7.368 19.629,-6.768C19.299,-6.168 19.134,-5.478 19.134,-4.698C19.134,-3.918 19.299,-3.228 19.629,-2.628C19.959,-2.028 20.415,-1.563 20.997,-1.233C21.579,-0.903 22.236,-0.738 22.968,-0.738C23.568,-0.738 24.117,-0.855 24.615,-1.089C25.113,-1.323 25.53,-1.674 25.866,-2.142L26.532,-1.656C26.148,-1.092 25.647,-0.663 25.029,-0.369C24.411,-0.075 23.724,0.072 22.968,0.072Z" style="fill:rgb(90,169,230);fill-rule:nonzero;"/>
                    <path d="M37.008,-4.482L28.926,-4.482C28.95,-3.75 29.136,-3.099 29.484,-2.529C29.832,-1.959 30.303,-1.518 30.897,-1.206C31.491,-0.894 32.16,-0.738 32.904,-0.738C33.516,-0.738 34.083,-0.849 34.605,-1.071C35.127,-1.293 35.562,-1.62 35.91,-2.052L36.432,-1.458C36.024,-0.966 35.511,-0.588 34.893,-0.324C34.275,-0.06 33.606,0.072 32.886,0.072C31.95,0.072 31.116,-0.132 30.384,-0.54C29.652,-0.948 29.079,-1.512 28.665,-2.232C28.251,-2.952 28.044,-3.774 28.044,-4.698C28.044,-5.61 28.239,-6.429 28.629,-7.155C29.019,-7.881 29.556,-8.448 30.24,-8.856C30.924,-9.264 31.692,-9.468 32.544,-9.468C33.396,-9.468 34.161,-9.267 34.839,-8.865C35.517,-8.463 36.051,-7.902 36.441,-7.182C36.831,-6.462 37.026,-5.646 37.026,-4.734L37.008,-4.482ZM32.544,-8.676C31.884,-8.676 31.29,-8.529 30.762,-8.235C30.234,-7.941 29.811,-7.527 29.493,-6.993C29.175,-6.459 28.992,-5.856 28.944,-5.184L36.144,-5.184C36.108,-5.856 35.928,-6.456 35.604,-6.984C35.28,-7.512 34.854,-7.926 34.326,-8.226C33.798,-8.526 33.204,-8.676 32.544,-8.676Z" style="fill:rgb(90,169,230);fill-rule:nonzero;"/>
                    <rect x="39.816" y="-13.356" width="0.9" height="13.356" style="fill:rgb(90,169,230);fill-rule:nonzero;"/>
                </g>
            </g>
        </g>
        <g transform="matrix(1,0,0,1,488.64,183.706)">
            <g>
                <path d="M9.684,-6.498C10.584,-6.33 11.271,-5.976 11.745,-5.436C12.219,-4.896 12.456,-4.194 12.456,-3.33C12.456,-2.262 12.066,-1.44 11.286,-0.864C10.506,-0.288 9.348,0 7.812,0L2.196,0L2.196,-12.6L7.452,-12.6C8.82,-12.6 9.885,-12.321 10.647,-11.763C11.409,-11.205 11.79,-10.41 11.79,-9.378C11.79,-8.658 11.601,-8.052 11.223,-7.56C10.845,-7.068 10.332,-6.714 9.684,-6.498ZM3.114,-11.808L3.114,-6.786L7.416,-6.786C8.52,-6.786 9.369,-6.999 9.963,-7.425C10.557,-7.851 10.854,-8.478 10.854,-9.306C10.854,-10.122 10.557,-10.743 9.963,-11.169C9.369,-11.595 8.52,-11.808 7.416,-11.808L3.114,-11.808ZM7.812,-0.792C9.036,-0.792 9.963,-1.005 10.593,-1.431C11.223,-1.857 11.538,-2.514 11.538,-3.402C11.538,-4.29 11.223,-4.944 10.593,-5.364C9.963,-5.784 9.036,-5.994 7.812,-5.994L3.114,-5.994L3.114,-0.792L7.812,-0.792Z" style="fill:rgb(90,169,230);fill-rule:nonzero;"/>
                <path d="M23.67,-9.396L23.67,0L22.806,0L22.806,-2.016C22.494,-1.356 22.032,-0.843 21.42,-0.477C20.808,-0.111 20.088,0.072 19.26,0.072C18.036,0.072 17.076,-0.27 16.38,-0.954C15.684,-1.638 15.336,-2.622 15.336,-3.906L15.336,-9.396L16.236,-9.396L16.236,-3.978C16.236,-2.922 16.506,-2.118 17.046,-1.566C17.586,-1.014 18.348,-0.738 19.332,-0.738C20.388,-0.738 21.225,-1.068 21.843,-1.728C22.461,-2.388 22.77,-3.276 22.77,-4.392L22.77,-9.396L23.67,-9.396Z" style="fill:rgb(90,169,230);fill-rule:nonzero;"/>
                <path d="M27.486,-9.396L28.386,-9.396L28.386,0L27.486,0L27.486,-9.396ZM27.936,-11.682C27.732,-11.682 27.558,-11.751 27.414,-11.889C27.27,-12.027 27.198,-12.198 27.198,-12.402C27.198,-12.606 27.27,-12.78 27.414,-12.924C27.558,-13.068 27.732,-13.14 27.936,-13.14C28.14,-13.14 28.314,-13.071 28.458,-12.933C28.602,-12.795 28.674,-12.624 28.674,-12.42C28.674,-12.216 28.602,-12.042 28.458,-11.898C28.314,-11.754 28.14,-11.682 27.936,-11.682Z" style="fill:rgb(90,169,230);fill-rule:nonzero;"/>
                <rect x="32.184" y="-13.356" width="0.9" height="13.356" style="fill:rgb(90,169,230);fill-rule:nonzero;"/>
                <path d="M45.234,-13.356L45.234,0L44.352,0L44.352,-2.214C43.98,-1.482 43.458,-0.918 42.786,-0.522C42.114,-0.126 41.352,0.072 40.5,0.072C39.624,0.072 38.832,-0.132 38.124,-0.54C37.416,-0.948 36.861,-1.512 36.459,-2.232C36.057,-2.952 35.856,-3.774 35.856,-4.698C35.856,-5.622 36.057,-6.447 36.459,-7.173C36.861,-7.899 37.416,-8.463 38.124,-8.865C38.832,-9.267 39.624,-9.468 40.5,-9.468C41.34,-9.468 42.093,-9.27 42.759,-8.874C43.425,-8.478 43.95,-7.926 44.334,-7.218L44.334,-13.356L45.234,-13.356ZM40.554,-0.738C41.274,-0.738 41.919,-0.906 42.489,-1.242C43.059,-1.578 43.509,-2.046 43.839,-2.646C44.169,-3.246 44.334,-3.93 44.334,-4.698C44.334,-5.466 44.169,-6.15 43.839,-6.75C43.509,-7.35 43.059,-7.818 42.489,-8.154C41.919,-8.49 41.274,-8.658 40.554,-8.658C39.834,-8.658 39.189,-8.49 38.619,-8.154C38.049,-7.818 37.599,-7.35 37.269,-6.75C36.939,-6.15 36.774,-5.466 36.774,-4.698C36.774,-3.93 36.939,-3.246 37.269,-2.646C37.599,-2.046 38.049,-1.578 38.619,-1.242C39.189,-0.906 39.834,-0.738 40.554,-0.738Z" style="fill:rgb(90,169,230);fill-rule:nonzero;"/>
                <path d="M49.032,-9.396L49.932,-9.396L49.932,0L49.032,0L49.032,-9.396ZM49.482,-11.682C49.278,-11.682 49.104,-11.751 48.96,-11.889C48.816,-12.027 48.744,-12.198 48.744,-12.402C48.744,-12.606 48.816,-12.78 48.96,-12.924C49.104,-13.068 49.278,-13.14 49.482,-13.14C49.686,-13.14 49.86,-13.071 50.004,-12.933C50.148,-12.795 50.22,-12.624 50.22,-12.42C50.22,-12.216 50.148,-12.042 50.004,-11.898C49.86,-11.754 49.686,-11.682 49.482,-11.682Z" style="fill:rgb(90,169,230);fill-rule:nonzero;"/>
                <path d="M58.32,-9.468C59.496,-9.468 60.426,-9.126 61.11,-8.442C61.794,-7.758 62.136,-6.774 62.136,-5.49L62.136,0L61.236,0L61.236,-5.418C61.236,-6.474 60.969,-7.278 60.435,-7.83C59.901,-8.382 59.154,-8.658 58.194,-8.658C57.09,-8.658 56.22,-8.328 55.584,-7.668C54.948,-7.008 54.63,-6.12 54.63,-5.004L54.63,0L53.73,0L53.73,-9.396L54.594,-9.396L54.594,-7.362C54.918,-8.022 55.401,-8.538 56.043,-8.91C56.685,-9.282 57.444,-9.468 58.32,-9.468Z" style="fill:rgb(90,169,230);fill-rule:nonzero;"/>
                <path d="M74.322,-9.396L74.322,-1.008C74.322,0.552 73.944,1.704 73.188,2.448C72.432,3.192 71.292,3.564 69.768,3.564C68.904,3.564 68.088,3.432 67.32,3.168C66.552,2.904 65.934,2.538 65.466,2.07L65.952,1.386C66.42,1.818 66.984,2.154 67.644,2.394C68.304,2.634 69.006,2.754 69.75,2.754C70.998,2.754 71.922,2.457 72.522,1.863C73.122,1.269 73.422,0.348 73.422,-0.9L73.422,-2.484C73.038,-1.8 72.504,-1.272 71.82,-0.9C71.136,-0.528 70.368,-0.342 69.516,-0.342C68.64,-0.342 67.845,-0.537 67.131,-0.927C66.417,-1.317 65.856,-1.86 65.448,-2.556C65.04,-3.252 64.836,-4.038 64.836,-4.914C64.836,-5.79 65.04,-6.576 65.448,-7.272C65.856,-7.968 66.417,-8.508 67.131,-8.892C67.845,-9.276 68.64,-9.468 69.516,-9.468C70.38,-9.468 71.16,-9.276 71.856,-8.892C72.552,-8.508 73.086,-7.968 73.458,-7.272L73.458,-9.396L74.322,-9.396ZM69.588,-1.152C70.32,-1.152 70.98,-1.311 71.568,-1.629C72.156,-1.947 72.615,-2.391 72.945,-2.961C73.275,-3.531 73.44,-4.182 73.44,-4.914C73.44,-5.646 73.275,-6.294 72.945,-6.858C72.615,-7.422 72.156,-7.863 71.568,-8.181C70.98,-8.499 70.32,-8.658 69.588,-8.658C68.856,-8.658 68.199,-8.499 67.617,-8.181C67.035,-7.863 66.579,-7.422 66.249,-6.858C65.919,-6.294 65.754,-5.646 65.754,-4.914C65.754,-4.182 65.919,-3.531 66.249,-2.961C66.579,-2.391 67.035,-1.947 67.617,-1.629C68.199,-1.311 68.856,-1.152 69.588,-1.152Z" style="fill:rgb(90,169,230);fill-rule:nonzero;"/>
            </g>
        </g>
        <g transform="matrix(1,0,0,1,265.414,219.458)">
            <g>
                <g transform="matrix(1,0,0,1,129.904,123)">
                    <path d="M10.998,-0.828L10.998,0L0.846,0L0.846,-0.648L9.54,-11.772L0.954,-11.772L0.954,-12.6L10.8,-12.6L10.8,-11.952L2.124,-0.828L10.998,-0.828Z" style="fill:rgb(90,169,230);fill-rule:nonzero;"/>
                </g>
                <g transform="matrix(1,0,0,1,141.226,123)">
                    <path d="M5.58,0.072C4.692,0.072 3.891,-0.132 3.177,-0.54C2.463,-0.948 1.902,-1.515 1.494,-2.241C1.086,-2.967 0.882,-3.786 0.882,-4.698C0.882,-5.61 1.086,-6.429 1.494,-7.155C1.902,-7.881 2.463,-8.448 3.177,-8.856C3.891,-9.264 4.692,-9.468 5.58,-9.468C6.468,-9.468 7.269,-9.264 7.983,-8.856C8.697,-8.448 9.258,-7.881 9.666,-7.155C10.074,-6.429 10.278,-5.61 10.278,-4.698C10.278,-3.786 10.074,-2.967 9.666,-2.241C9.258,-1.515 8.697,-0.948 7.983,-0.54C7.269,-0.132 6.468,0.072 5.58,0.072ZM5.58,-0.738C6.3,-0.738 6.945,-0.906 7.515,-1.242C8.085,-1.578 8.535,-2.046 8.865,-2.646C9.195,-3.246 9.36,-3.93 9.36,-4.698C9.36,-5.466 9.195,-6.15 8.865,-6.75C8.535,-7.35 8.085,-7.818 7.515,-8.154C6.945,-8.49 6.3,-8.658 5.58,-8.658C4.86,-8.658 4.215,-8.49 3.645,-8.154C3.075,-7.818 2.625,-7.35 2.295,-6.75C1.965,-6.15 1.8,-5.466 1.8,-4.698C1.8,-3.93 1.965,-3.246 2.295,-2.646C2.625,-2.046 3.075,-1.578 3.645,-1.242C4.215,-0.906 4.86,-0.738 5.58,-0.738Z" style="fill:rgb(90,169,230);fill-rule:nonzero;"/>
                    <path d="M17.658,-9.468C18.834,-9.468 19.764,-9.126 20.448,-8.442C21.132,-7.758 21.474,-6.774 21.474,-5.49L21.474,0L20.574,0L20.574,-5.418C20.574,-6.474 20.307,-7.278 19.773,-7.83C19.239,-8.382 18.492,-8.658 17.532,-8.658C16.428,-8.658 15.558,-8.328 14.922,-7.668C14.286,-7.008 13.968,-6.12 13.968,-5.004L13.968,0L13.068,0L13.068,-9.396L13.932,-9.396L13.932,-7.362C14.256,-8.022 14.739,-8.538 15.381,-8.91C16.023,-9.282 16.782,-9.468 17.658,-9.468Z" style="fill:rgb(90,169,230);fill-rule:nonzero;"/>
                    <path d="M25.182,-9.396L26.082,-9.396L26.082,0L25.182,0L25.182,-9.396ZM25.632,-11.682C25.428,-11.682 25.254,-11.751 25.11,-11.889C24.966,-12.027 24.894,-12.198 24.894,-12.402C24.894,-12.606 24.966,-12.78 25.11,-12.924C25.254,-13.068 25.428,-13.14 25.632,-13.14C25.836,-13.14 26.01,-13.071 26.154,-12.933C26.298,-12.795 26.37,-12.624 26.37,-12.42C26.37,-12.216 26.298,-12.042 26.154,-11.898C26.01,-11.754 25.836,-11.682 25.632,-11.682Z" style="fill:rgb(90,169,230);fill-rule:nonzero;"/>
                    <path d="M34.47,-9.468C35.646,-9.468 36.576,-9.126 37.26,-8.442C37.944,-7.758 38.286,-6.774 38.286,-5.49L38.286,0L37.386,0L37.386,-5.418C37.386,-6.474 37.119,-7.278 36.585,-7.83C36.051,-8.382 35.304,-8.658 34.344,-8.658C33.24,-8.658 32.37,-8.328 31.734,-7.668C31.098,-7.008 30.78,-6.12 30.78,-5.004L30.78,0L29.88,0L29.88,-9.396L30.744,-9.396L30.744,-7.362C31.068,-8.022 31.551,-8.538 32.193,-8.91C32.835,-9.282 33.594,-9.468 34.47,-9.468Z" style="fill:rgb(90,169,230);fill-rule:nonzero;"/>
                    <path d="M50.472,-9.396L50.472,-1.008C50.472,0.552 50.094,1.704 49.338,2.448C48.582,3.192 47.442,3.564 45.918,3.564C45.054,3.564 44.238,3.432 43.47,3.168C42.702,2.904 42.084,2.538 41.616,2.07L42.102,1.386C42.57,1.818 43.134,2.154 43.794,2.394C44.454,2.634 45.156,2.754 45.9,2.754C47.148,2.754 48.072,2.457 48.672,1.863C49.272,1.269 49.572,0.348 49.572,-0.9L49.572,-2.484C49.188,-1.8 48.654,-1.272 47.97,-0.9C47.286,-0.528 46.518,-0.342 45.666,-0.342C44.79,-0.342 43.995,-0.537 43.281,-0.927C42.567,-1.317 42.006,-1.86 41.598,-2.556C41.19,-3.252 40.986,-4.038 40.986,-4.914C40.986,-5.79 41.19,-6.576 41.598,-7.272C42.006,-7.968 42.567,-8.508 43.281,-8.892C43.995,-9.276 44.79,-9.468 45.666,-9.468C46.53,-9.468 47.31,-9.276 48.006,-8.892C48.702,-8.508 49.236,-7.968 49.608,-7.272L49.608,-9.396L50.472,-9.396ZM45.738,-1.152C46.47,-1.152 47.13,-1.311 47.718,-1.629C48.306,-1.947 48.765,-2.391 49.095,-2.961C49.425,-3.531 49.59,-4.182 49.59,-4.914C49.59,-5.646 49.425,-6.294 49.095,-6.858C48.765,-7.422 48.306,-7.863 47.718,-8.181C47.13,-8.499 46.47,-8.658 45.738,-8.658C45.006,-8.658 44.349,-8.499 43.767,-8.181C43.185,-7.863 42.729,-7.422 42.399,-6.858C42.069,-6.294 41.904,-5.646 41.904,-4.914C41.904,-4.182 42.069,-3.531 42.399,-2.961C42.729,-2.391 43.185,-1.947 43.767,-1.629C44.349,-1.311 45.006,-1.152 45.738,-1.152Z" style="fill:rgb(90,169,230);fill-rule:nonzero;"/>
                </g>
            </g>
        </g>
        <g transform="matrix(1,0,0,1,0,26.284)">
            <g>
                <path d="M100.81,153.746L98.998,160.205L94.918,154.88C96.675,156.069 99.621,155.502 100.81,153.746Z" style="fill:rgb(90,169,230);"/>
                <path d="M84.449,84.605C84.449,84.605 94.909,138.959 98.091,155.491" style="fill:none;stroke:rgb(90,169,230);stroke-width:2px;stroke-dasharray:2,6,0,0;"/>
            </g>
        </g>
        <g transform="matrix(1,0,0,1,0,26.284)">
            <g>
                <path d="M183.086,212.851L181.274,219.31L177.194,213.985C178.95,215.175 181.896,214.608 183.086,212.851Z" style="fill:rgb(90,169,230);"/>
                <path d="M166.724,143.71C166.724,143.71 177.185,198.065 180.367,214.597" style="fill:none;stroke:rgb(90,169,230);stroke-width:2px;stroke-dasharray:2,6,0,0;"/>
            </g>
        </g>
        <g transform="matrix(1,0,0,1,0,26.2838)">
            <g>
                <path d="M287.872,248.353L286.06,254.812L281.98,249.487C283.736,250.677 286.682,250.11 287.872,248.353Z" style="fill:rgb(90,169,230);"/>
                <path d="M271.51,179.212C271.51,179.212 281.971,233.567 285.152,250.099" style="fill:none;stroke:rgb(90,169,230);stroke-width:2px;stroke-dasharray:2,6,0,0;"/>
            </g>
        </g>
        <g transform="matrix(1,0,0,1,0,26.284)">
            <g>
                <path d="M378.65,197.035L374.571,191.71L372.758,198.169L378.65,197.035Z" style="fill:rgb(90,169,230);"/>
                <path d="M390.932,260.851L389.12,267.31L385.04,261.985C386.796,263.175 389.742,262.608 390.932,260.851Z" style="fill:rgb(90,169,230);"/>
                <path d="M375.478,196.424C378.089,209.991 385.602,249.03 388.213,262.597" style="fill:none;stroke:rgb(90,169,230);stroke-width:2px;"/>
            </g>
        </g>
        <g transform="matrix(1,0,0,1,0,26.284)">
            <g>
                <path d="M143.992,117.326L150.613,118.405L147.503,112.461C147.842,114.555 146.086,116.988 143.992,117.326Z" style="fill:rgb(90,169,230);"/>
                <path d="M146.721,115.596C134.11,106.495 95.188,78.405 95.188,78.405" style="fill:none;stroke:rgb(90,169,230);stroke-width:2px;"/>
            </g>
        </g>
        <g transform="matrix(1,0,0,1,0,26.284)">
            <g>
                <path d="M247.467,153.981L252.155,158.78L245.503,159.65C247.412,158.724 248.394,155.889 247.467,153.981Z" style="fill:rgb(90,169,230);"/>
                <path d="M180.708,134.03C180.708,134.03 231.899,151.763 247.619,157.209" style="fill:none;stroke:rgb(90,169,230);stroke-width:2px;"/>
            </g>
        </g>
        <g transform="matrix(1,0,0,1,0,26.284)">
            <g>
                <path d="M349.379,170.736L354.995,174.405L348.691,176.697C350.353,175.379 350.697,172.398 349.379,170.736Z" style="fill:rgb(90,169,230);"/>
                <path d="M285.713,166.405C285.713,166.405 334.567,172.046 350.227,173.854" style="fill:none;stroke:rgb(90,169,230);stroke-width:2px;"/>
            </g>
        </g>
        <g transform="matrix(0.999997,0,0,0.999997,-0.000212732,26.2841)">
            <g>
                <path d="M393.904,173.405L387.904,176.405L393.904,179.405L393.904,173.405Z" style="fill:rgb(90,169,230);"/>
                <path d="M475.435,173.405L481.435,176.405L475.435,179.405C476.935,177.905 476.935,174.905 475.435,173.405Z" style="fill:rgb(90,169,230);"/>
                <path d="M392.704,176.405L476.635,176.405" style="fill:none;stroke:rgb(90,169,230);stroke-width:2px;"/>
            </g>
        </g>
        <g transform="matrix(1,0,0,1,0,26.284)">
            <g>
                <path d="M406.233,266.43L404.235,272.833L410.557,270.59L406.233,266.43Z" style="fill:rgb(90,169,230);"/>
                <path d="M479.567,190.219L485.889,187.976L483.89,194.38C483.849,192.259 481.688,190.179 479.567,190.219Z" style="fill:rgb(90,169,230);"/>
                <path d="M407.563,269.375C420.764,255.656 469.36,205.154 482.56,191.435" style="fill:none;stroke:rgb(90,169,230);stroke-width:2px;"/>
            </g>
        </g>
    </g>
</svg>
