<?xml version="1.0" encoding="UTF-8" standalone="no"?>
<!DOCTYPE svg PUBLIC "-//W3C//DTD SVG 1.1//EN" "http://www.w3.org/Graphics/SVG/1.1/DTD/svg11.dtd">
<svg width="100%" height="100%" viewBox="0 0 600 600" version="1.1" xmlns="http://www.w3.org/2000/svg" xmlns:xlink="http://www.w3.org/1999/xlink" xml:space="preserve" xmlns:serif="http://www.serif.com/" style="fill-rule:evenodd;clip-rule:evenodd;stroke-linecap:round;stroke-linejoin:round;stroke-miterlimit:1.5;">
    <g id="New-Data-Set" serif:id="New Data Set">
        <g transform="matrix(1,0,0,1,26,41)">
            <g transform="matrix(1,-0,-0,1,-26,-41)">
                <path d="M137.759,154.153L133.915,157.4L138.819,158.526C137.46,157.698 136.93,155.511 137.759,154.153Z" style="fill:rgb(214,87,128);"/>
                <path d="M137.414,156.552C161.133,150.801 297.428,117.759 297.428,117.759L297.428,104.51" style="fill:none;stroke:rgb(214,87,128);stroke-width:1.5px;stroke-dasharray:1.5,4.5,0,0;"/>
            </g>
        </g>
        <g transform="matrix(1,0,0,1,51.9808,45.5)">
            <g transform="matrix(1,-0,-0,1,-51.9808,-45.5)">
                <path d="M217.73,209.556L216.056,214.3L220.856,212.793C219.265,212.765 217.702,211.146 217.73,209.556Z" style="fill:rgb(214,87,128);"/>
                <path d="M218.645,211.799C234.338,196.646 316.029,117.759 316.029,117.759L316.029,104.676" style="fill:none;stroke:rgb(214,87,128);stroke-width:1.5px;stroke-dasharray:1.5,4.5,0,0;"/>
            </g>
        </g>
        <g transform="matrix(0.990109,0.00942286,0.00942286,0.991024,69.6457,43.5219)">
            <g transform="matrix(1.01008,-0.00960407,-0.00960407,1.00915,-69.9298,-43.2512)">
                <path d="M313.794,240.532L315.346,245.318L318.244,241.205C316.963,242.149 314.738,241.813 313.794,240.532Z" style="fill:rgb(214,87,128);"/>
                <path d="M315.884,241.758C319.004,221.122 334.631,117.759 334.631,117.759L334.631,104.343" style="fill:none;stroke:rgb(214,87,128);stroke-width:1.5px;stroke-dasharray:1.5,4.5,0,0;"/>
            </g>
        </g>
        <g transform="matrix(0.990109,0.00942286,0.00942286,0.991024,79.5966,43.5219)">
            <g transform="matrix(1.01008,-0.00960407,-0.00960407,1.00915,-79.9811,-43.1556)">
                <path d="M412.339,257.757L416.186,261L416.472,255.977C415.884,257.455 413.817,258.345 412.339,257.757Z" style="fill:rgb(214,87,128);"/>
                <path d="M414.762,257.694C405.526,236.249 354.496,117.759 354.496,117.759L354.496,104.343" style="fill:none;stroke:rgb(214,87,128);stroke-width:1.5px;stroke-dasharray:1.5,4.5,0,0;"/>
            </g>
        </g>
        <g transform="matrix(0.990109,0.00942286,0.00942286,0.991024,92.1772,43.4884)">
            <g transform="matrix(1.01008,-0.00960407,-0.00960407,1.00915,-92.6888,-43.001)">
                <path d="M534.419,260.485L539.209,262.023L537.565,257.268C537.583,258.859 536.01,260.467 534.419,260.485Z" style="fill:rgb(214,87,128);"/>
                <path d="M536.636,259.505C517.004,240.306 391.699,117.759 391.699,117.759L391.699,104.319" style="fill:none;stroke:rgb(214,87,128);stroke-width:1.5px;stroke-dasharray:1.5,4.5,0,0;"/>
            </g>
        </g>
        <g transform="matrix(0.990109,0.00942286,0.00942286,0.991024,105.708,43.5219)">
            <g transform="matrix(1.01008,-0.00960407,-0.00960407,1.00915,-106.355,-42.9049)">
                <path d="M318.116,241.245L318.425,246.267L322.257,243.007C320.782,243.602 318.711,242.721 318.116,241.245Z" style="fill:rgb(214,87,128);"/>
                <path d="M319.835,242.954C328.399,222.823 373.098,117.759 373.098,117.759L373.098,104.176" style="fill:none;stroke:rgb(214,87,128);stroke-width:1.5px;stroke-dasharray:1.5,4.5,0,0;"/>
            </g>
        </g>
        <g transform="matrix(0.990109,0.00942286,0.00942286,0.991024,118.708,43.5219)">
            <g transform="matrix(1.01008,-0.00960407,-0.00960407,1.00915,-119.487,-42.78)">
                <path d="M534.533,260.166L539.209,262.023L537.889,257.168C537.799,258.756 536.122,260.256 534.533,260.166Z" style="fill:rgb(214,87,128);"/>
                <path d="M536.811,259.338C519.178,239.606 410.301,117.759 410.301,117.759L410.301,105.295" style="fill:none;stroke:rgb(214,87,128);stroke-width:1.5px;stroke-dasharray:1.5,4.5,0,0;"/>
            </g>
        </g>
        <g transform="matrix(1,0,0,1,162.345,-37.6452)">
            <text x="129.904px" y="123px" style="font-family:'Montserrat-Light', 'Montserrat';font-weight:300;font-size:18px;fill:rgb(214,87,128);">Ne<tspan x="155.122px " y="123px ">w</tspan> Data Set</text>
        </g>
        <g transform="matrix(1,0,3.46945e-18,1,53.4575,196.17)">
            <text x="140.254px" y="123px" style="font-family:'Montserrat-Light', 'Montserrat';font-weight:300;font-size:18px;fill:rgb(90,169,230);">Gr<tspan x="161.098px " y="123px ">a</tspan>ph</text>
            <text x="129.904px" y="144px" style="font-family:'Montserrat-Light', 'Montserrat';font-weight:300;font-size:18px;fill:rgb(90,169,230);">Net<tspan x="162.286px 177.532px 188.692px 195.622px " y="144px 144px 144px 144px ">work</tspan></text>
        </g>
        <g transform="matrix(1.43194,0,0,1.43194,-114.893,39.0159)">
            <rect x="283.19" y="40.5" width="9.51" height="9.51" style="fill:rgb(214,87,128);"/>
        </g>
        <g transform="matrix(1.43194,0,0,1.43194,-96.2918,39.0159)">
            <rect x="283.19" y="40.5" width="9.51" height="9.51" style="fill:rgb(214,87,128);"/>
        </g>
        <g transform="matrix(1.43194,0,0,1.43194,-20.6219,39.0159)">
            <rect x="283.19" y="40.5" width="9.51" height="9.51" style="fill:rgb(214,87,128);"/>
        </g>
        <g transform="matrix(1.43194,0,0,1.43194,-57.8249,39.0159)">
            <rect x="283.19" y="40.5" width="9.51" height="9.51" style="fill:rgb(214,87,128);"/>
        </g>
        <g transform="matrix(1.43194,0,0,1.43194,-77.6903,39.0159)">
            <rect x="283.19" y="40.5" width="9.51" height="9.51" style="fill:rgb(214,87,128);"/>
        </g>
        <g transform="matrix(1.43194,0,0,1.43194,-2.02037,39.0159)">
            <rect x="283.19" y="40.5" width="9.51" height="9.51" style="fill:rgb(214,87,128);"/>
        </g>
        <g transform="matrix(1.43194,0,0,1.43194,-39.2234,39.0159)">
            <rect x="283.19" y="40.5" width="9.51" height="9.51" style="fill:rgb(214,87,128);"/>
        </g>
        <g transform="matrix(0.366028,0,0,0.366028,84.09,113.675)">
            <circle cx="118.119" cy="125.196" r="14.196" style="fill:rgb(214,87,128);"/>
        </g>
        <g transform="matrix(0.366028,0,0,0.366028,167.229,173.675)">
            <circle cx="118.119" cy="125.196" r="14.196" style="fill:rgb(214,87,128);"/>
        </g>
        <g transform="matrix(0.366028,0,0,0.366028,270.71,206.42)">
            <circle cx="118.119" cy="125.196" r="14.196" style="fill:rgb(214,87,128);"/>
        </g>
        <g transform="matrix(0.366028,0,0,0.366028,375.074,221.675)">
            <circle cx="118.119" cy="125.196" r="14.196" style="fill:rgb(214,87,128);"/>
        </g>
        <g transform="matrix(0.366028,0,0,0.366028,381.685,315.952)">
            <circle cx="118.119" cy="125.196" r="14.196" style="fill:rgb(254,144,173);"/>
        </g>
        <g transform="matrix(0.366028,0,0,0.366028,291.935,312.202)">
            <circle cx="118.119" cy="125.196" r="14.196" style="fill:rgb(254,144,173);"/>
        </g>
        <g transform="matrix(0.366028,0,0,0.366028,310.769,418.702)">
            <circle cx="118.119" cy="125.196" r="14.196" style="fill:rgb(247,199,219);"/>
        </g>
        <g transform="matrix(0.366028,0,0,0.366028,499.782,221.675)">
            <circle cx="118.119" cy="125.196" r="14.196" style="fill:rgb(214,87,128);"/>
        </g>
    </g>
    <g id="Skeleton">
        <g transform="matrix(1,0,0,1,-10.7881,42.7641)">
            <circle cx="118.119" cy="125.196" r="14.196" style="fill:rgb(90,169,230);"/>
        </g>
        <g transform="matrix(1,0,0,1,176.087,137.264)">
            <circle cx="118.119" cy="125.196" r="14.196" style="fill:rgb(90,169,230);"/>
        </g>
        <g transform="matrix(1,0,0,1,280.196,150.764)">
            <circle cx="118.119" cy="125.196" r="14.196" style="fill:rgb(90,169,230);"/>
        </g>
        <g transform="matrix(1,0,0,1,404.904,150.764)">
            <circle cx="118.119" cy="125.196" r="14.196" style="fill:rgb(90,169,230);"/>
        </g>
        <g transform="matrix(1,0,0,1,72.3504,102.764)">
            <circle cx="118.119" cy="125.196" r="14.196" style="fill:rgb(90,169,230);"/>
        </g>
        <g transform="matrix(1,0,0,1,9.99652,150.764)">
            <circle cx="118.119" cy="125.196" r="14.196" style="fill:rgb(90,169,230);"/>
        </g>
        <g transform="matrix(1,0,0,1,30.7722,260.87)">
            <circle cx="118.119" cy="125.196" r="14.196" style="fill:rgb(90,169,230);"/>
        </g>
        <g transform="matrix(1,0,0,1,197.058,245.372)">
            <circle cx="118.119" cy="125.196" r="14.196" style="fill:rgb(90,169,230);"/>
        </g>
        <g transform="matrix(1,0,0,1,218.141,354.788)">
            <circle cx="118.119" cy="125.196" r="14.196" style="fill:rgb(90,169,230);"/>
        </g>
        <g transform="matrix(1,0,0,1,134.831,276.318)">
            <circle cx="118.119" cy="125.196" r="14.196" style="fill:rgb(90,169,230);"/>
        </g>
        <g transform="matrix(-0.811945,0.583734,-0.583734,-0.811945,227.329,473.22)">
            <circle cx="118.119" cy="125.196" r="14.196" style="fill:rgb(90,169,230);"/>
        </g>
        <g transform="matrix(1,0,0,1,51.8913,370.538)">
            <circle cx="118.119" cy="125.196" r="14.196" style="fill:rgb(90,169,230);"/>
        </g>
        <g transform="matrix(1,0,0,1,300.118,257.87)">
            <circle cx="118.119" cy="125.196" r="14.196" style="fill:rgb(90,169,230);"/>
        </g>
        <g transform="matrix(1,0,0,1,44.9773,95.9603)">
            <g transform="matrix(1,-0,-0,1,-44.9773,-95.9603)">
                <path d="M126.81,253.301L124.998,259.76L120.918,254.435C122.675,255.625 125.621,255.058 126.81,253.301Z" style="fill:rgb(90,169,230);"/>
                <path d="M110.449,184.16C110.449,184.16 120.909,238.515 124.091,255.047" style="fill:none;stroke:rgb(90,169,230);stroke-width:2px;"/>
            </g>
        </g>
        <g transform="matrix(1,0,0,1,65.7529,206.066)">
            <g transform="matrix(1,-0,-0,1,-65.7529,-206.066)">
                <path d="M147.586,363.407L145.774,369.866L141.694,364.541C143.45,365.73 146.396,365.163 147.586,363.407Z" style="fill:rgb(90,169,230);"/>
                <path d="M131.224,294.266C131.224,294.266 141.685,348.62 144.867,365.152" style="fill:none;stroke:rgb(90,169,230);stroke-width:2px;"/>
            </g>
        </g>
        <g transform="matrix(1,0,0,1,232.039,190.568)">
            <g transform="matrix(1,-0,-0,1,-232.039,-190.568)">
                <path d="M313.872,347.909L312.06,354.368L307.98,349.043C309.736,350.232 312.682,349.665 313.872,347.909Z" style="fill:rgb(90,169,230);"/>
                <path d="M297.51,278.768C297.51,278.768 307.971,333.122 311.152,349.654" style="fill:none;stroke:rgb(90,169,230);stroke-width:2px;"/>
            </g>
        </g>
        <g transform="matrix(1,0,0,1,253.122,299.984)">
            <g transform="matrix(1,-0,-0,1,-253.122,-299.984)">
                <path d="M334.955,457.326L333.143,463.784L329.063,458.459C330.819,459.649 333.765,459.082 334.955,457.326Z" style="fill:rgb(90,169,230);"/>
                <path d="M318.594,388.184C318.594,388.184 329.054,442.539 332.236,459.071" style="fill:none;stroke:rgb(90,169,230);stroke-width:2px;"/>
            </g>
        </g>
        <g transform="matrix(1,0,0,1,86.8721,315.734)">
            <g transform="matrix(1,-0,-0,1,-86.8721,-315.734)">
                <path d="M168.705,473.076L166.893,479.534L162.813,474.209C164.569,475.399 167.515,474.832 168.705,473.076Z" style="fill:rgb(90,169,230);"/>
                <path d="M152.344,403.934C152.344,403.934 162.804,458.289 165.986,474.821" style="fill:none;stroke:rgb(90,169,230);stroke-width:2px;"/>
            </g>
        </g>
        <g transform="matrix(1,0,0,1,335.099,203.066)">
            <g transform="matrix(1,-0,-0,1,-335.099,-203.066)">
                <path d="M404.65,296.591L400.571,291.266L398.758,297.725L404.65,296.591Z" style="fill:rgb(90,169,230);"/>
                <path d="M416.932,360.407L415.12,366.866L411.04,361.541C412.796,362.73 415.742,362.163 416.932,360.407Z" style="fill:rgb(90,169,230);"/>
                <path d="M401.478,295.979C404.089,309.546 411.602,348.585 414.213,362.152" style="fill:none;stroke:rgb(90,169,230);stroke-width:2px;"/>
            </g>
        </g>
        <g transform="matrix(1,0,0,1,44.9773,95.9603)">
            <g transform="matrix(1,-0,-0,1,-44.9773,-95.9603)">
                <path d="M169.992,216.882L176.613,217.96L173.503,212.016C173.842,214.111 172.086,216.543 169.992,216.882Z" style="fill:rgb(90,169,230);"/>
                <path d="M172.721,215.151C160.11,206.05 121.188,177.96 121.188,177.96" style="fill:none;stroke:rgb(90,169,230);stroke-width:2px;"/>
            </g>
        </g>
        <g transform="matrix(1,0,0,1,44.9773,95.9603)">
            <g transform="matrix(1,-0,-0,1,-44.9773,-95.9603)">
                <path d="M273.467,253.537L278.155,258.335L271.503,259.206C273.412,258.28 274.394,255.445 273.467,253.537Z" style="fill:rgb(90,169,230);"/>
                <path d="M206.708,233.585C206.708,233.585 257.899,251.319 273.619,256.764" style="fill:none;stroke:rgb(90,169,230);stroke-width:2px;"/>
            </g>
        </g>
        <g transform="matrix(1,0,0,1,44.9773,95.9603)">
            <g transform="matrix(1,-0,-0,1,-44.9773,-95.9603)">
                <path d="M375.379,270.292L380.995,273.96L374.691,276.252C376.353,274.934 376.697,271.954 375.379,270.292Z" style="fill:rgb(90,169,230);"/>
                <path d="M311.713,265.96C311.713,265.96 360.567,271.601 376.227,273.41" style="fill:none;stroke:rgb(90,169,230);stroke-width:2px;"/>
            </g>
        </g>
        <g transform="matrix(1,0,0,1,-100.25,221.907)">
            <g transform="matrix(1,-0,-0,1,100.25,-221.907)">
                <path d="M230.152,396.238L235.768,399.907L229.464,402.199C231.126,400.881 231.47,397.9 230.152,396.238Z" style="fill:rgb(90,169,230);"/>
                <path d="M166.486,391.907C166.486,391.907 215.34,397.548 231,399.356" style="fill:none;stroke:rgb(90,169,230);stroke-width:2px;"/>
            </g>
        </g>
        <g transform="matrix(-0.811945,0.583734,-0.583734,-0.811945,449.963,380.174)">
            <g transform="matrix(-0.811945,-0.583734,0.583734,-0.811945,143.425,571.339)">
                <path d="M79.932,431.493L73.231,431.793L77.012,426.252C76.431,428.292 77.892,430.913 79.932,431.493Z" style="fill:rgb(90,169,230);"/>
                <path d="M134.154,397.846C134.154,397.846 91.194,421.784 77.424,429.456" style="fill:none;stroke:rgb(90,169,230);stroke-width:2px;"/>
            </g>
        </g>
        <g transform="matrix(0.692308,0,0,0.692308,158.493,151.345)">
            <g transform="matrix(1.44444,-0,-0,1.44444,-228.935,-218.609)">
                <path d="M419.904,272.96L413.904,275.96L419.904,278.96L419.904,272.96Z" style="fill:rgb(90,169,230);"/>
                <path d="M501.435,272.96L507.435,275.96L501.435,278.96C502.935,277.46 502.935,274.46 501.435,272.96Z" style="fill:rgb(90,169,230);"/>
                <path d="M418.704,275.96L502.635,275.96" style="fill:none;stroke:rgb(90,169,230);stroke-width:2px;"/>
            </g>
        </g>
        <g transform="matrix(1,0,0,1,44.9773,95.9603)">
            <g transform="matrix(1,-0,-0,1,-44.9773,-95.9603)">
                <path d="M432.233,365.985L430.235,372.389L436.557,370.146L432.233,365.985Z" style="fill:rgb(90,169,230);"/>
                <path d="M505.567,289.775L511.889,287.532L509.89,293.935C509.849,291.814 507.688,289.734 505.567,289.775Z" style="fill:rgb(90,169,230);"/>
                <path d="M433.563,368.93C446.764,355.211 495.36,304.709 508.56,290.99" style="fill:none;stroke:rgb(90,169,230);stroke-width:2px;"/>
            </g>
        </g>
    </g>
</svg>
