<?xml version="1.0" encoding="UTF-8" standalone="no"?>
<!DOCTYPE svg PUBLIC "-//W3C//DTD SVG 1.1//EN" "http://www.w3.org/Graphics/SVG/1.1/DTD/svg11.dtd">
<svg width="100%" height="100%" viewBox="0 0 96 96" version="1.1" xmlns="http://www.w3.org/2000/svg" xmlns:xlink="http://www.w3.org/1999/xlink" xml:space="preserve" xmlns:serif="http://www.serif.com/" style="fill-rule:evenodd;clip-rule:evenodd;stroke-linecap:round;stroke-linejoin:round;stroke-miterlimit:1.5;">
    <g id="_15-minute-cities" serif:id="15-minute cities">
        <g id="neighborhoods">
        </g>
        <g id="partitions">
            <g transform="matrix(1,0,0,1,-6.9282,12)">
                <path d="M34.641,44L41.569,40L34.641,36L27.713,40L34.641,44Z" style="fill:rgb(223,218,211);fill-opacity:0;stroke:rgb(156,137,184);stroke-width:0.5px;"/>
            </g>
            <g transform="matrix(1,0,0,1,-13.8564,16)">
                <path d="M34.641,44L41.569,40L34.641,36L27.713,40L34.641,44Z" style="fill:rgb(223,218,211);fill-opacity:0;stroke:rgb(156,137,184);stroke-width:0.5px;"/>
            </g>
            <g transform="matrix(1,0,0,1,-13.8564,8)">
                <path d="M34.641,44L41.569,40L34.641,36L27.713,40L34.641,44Z" style="fill:rgb(223,218,211);fill-opacity:0;stroke:rgb(156,137,184);stroke-width:0.5px;"/>
            </g>
            <g transform="matrix(1,0,0,1,-1.77636e-14,-8)">
                <path d="M34.641,44L41.569,40L34.641,36L27.713,40L34.641,44Z" style="fill:rgb(223,218,211);fill-opacity:0;stroke:rgb(156,137,184);stroke-width:0.5px;"/>
            </g>
            <g transform="matrix(1,0,0,1,13.8564,-8)">
                <path d="M34.641,44L41.569,40L34.641,36L27.713,40L34.641,44Z" style="fill:rgb(223,218,211);fill-opacity:0;stroke:rgb(156,137,184);stroke-width:0.5px;"/>
            </g>
            <g transform="matrix(1,0,0,1,7.10543e-15,16)">
                <path d="M34.641,44L41.569,40L34.641,36L27.713,40L34.641,44Z" style="fill:rgb(223,218,211);fill-opacity:0;stroke:rgb(156,137,184);stroke-width:0.5px;"/>
            </g>
            <g transform="matrix(1,0,0,1,41.5692,8)">
                <path d="M34.641,44L41.569,40L34.641,36L27.713,40L34.641,44Z" style="fill:rgb(223,218,211);fill-opacity:0;stroke:rgb(156,137,184);stroke-width:0.5px;"/>
            </g>
            <g transform="matrix(1,0,0,1,41.5692,16)">
                <path d="M34.641,44L41.569,40L34.641,36L27.713,40L34.641,44Z" style="fill:rgb(223,218,211);fill-opacity:0;stroke:rgb(156,137,184);stroke-width:0.5px;"/>
            </g>
            <g transform="matrix(1,0,0,1,48.4974,20)">
                <path d="M34.641,44L41.569,40L34.641,36L27.713,40L34.641,44Z" style="fill:rgb(223,218,211);fill-opacity:0;stroke:rgb(156,137,184);stroke-width:0.5px;"/>
            </g>
            <g transform="matrix(1,0,0,1,20.7846,20)">
                <path d="M34.641,44L41.569,40L34.641,36L27.713,40L34.641,44Z" style="fill:rgb(223,218,211);fill-opacity:0;stroke:rgb(156,137,184);stroke-width:0.5px;"/>
            </g>
            <g transform="matrix(1,0,0,1,6.9282,20)">
                <path d="M34.641,44L41.569,40L34.641,36L27.713,40L34.641,44Z" style="fill:rgb(223,218,211);fill-opacity:0;stroke:rgb(156,137,184);stroke-width:0.5px;"/>
            </g>
            <g transform="matrix(1,0,0,1,-6.9282,20)">
                <path d="M34.641,44L41.569,40L34.641,36L27.713,40L34.641,44Z" style="fill:rgb(223,218,211);fill-opacity:0;stroke:rgb(156,137,184);stroke-width:0.5px;"/>
            </g>
            <g transform="matrix(1,0,0,1,-13.8564,24)">
                <path d="M34.641,44L41.569,40L34.641,36L27.713,40L34.641,44Z" style="fill:rgb(223,218,211);fill-opacity:0;stroke:rgb(156,137,184);stroke-width:0.5px;"/>
            </g>
            <g transform="matrix(1,0,0,1,-20.7846,28)">
                <path d="M34.641,44L41.569,40L34.641,36L27.713,40L34.641,44Z" style="fill:rgb(223,218,211);fill-opacity:0;stroke:rgb(156,137,184);stroke-width:0.5px;"/>
            </g>
            <g transform="matrix(1,0,0,1,34.641,12)">
                <path d="M34.641,44L41.569,40L34.641,36L27.713,40L34.641,44Z" style="fill:rgb(223,218,211);fill-opacity:0;stroke:rgb(156,137,184);stroke-width:0.5px;"/>
            </g>
            <g transform="matrix(1,0,0,1,27.7128,-8)">
                <path d="M34.641,44L41.569,40L34.641,36L27.713,40L34.641,44Z" style="fill:rgb(223,218,211);fill-opacity:0;stroke:rgb(156,137,184);stroke-width:0.5px;"/>
            </g>
            <g transform="matrix(1,0,0,1,41.5692,-5.32907e-15)">
                <path d="M34.641,44L41.569,40L34.641,36L27.713,40L34.641,44Z" style="fill:rgb(223,218,211);fill-opacity:0;stroke:rgb(156,137,184);stroke-width:0.5px;"/>
            </g>
            <g transform="matrix(1,0,0,1,34.641,-4)">
                <path d="M34.641,44L41.569,40L34.641,36L27.713,40L34.641,44Z" style="fill:rgb(223,218,211);fill-opacity:0;stroke:rgb(156,137,184);stroke-width:0.5px;"/>
            </g>
            <g transform="matrix(1,0,0,1,41.5692,-8)">
                <path d="M34.641,44L41.569,40L34.641,36L27.713,40L34.641,44Z" style="fill:rgb(223,218,211);fill-opacity:0;stroke:rgb(156,137,184);stroke-width:0.5px;"/>
            </g>
            <g transform="matrix(1,0,0,1,-6.9282,4)">
                <path d="M34.641,44L41.569,40L34.641,36L27.713,40L34.641,44Z" style="fill:rgb(223,218,211);fill-opacity:0;stroke:rgb(156,137,184);stroke-width:0.5px;"/>
            </g>
            <g transform="matrix(1,0,0,1,-1.06581e-14,8)">
                <path d="M34.641,44L41.569,40L34.641,36L27.713,40L34.641,44Z" style="fill:rgb(223,218,211);fill-opacity:0;stroke:rgb(156,137,184);stroke-width:0.5px;"/>
            </g>
            <g transform="matrix(1,0,0,1,6.9282,-4)">
                <path d="M34.641,44L41.569,40L34.641,36L27.713,40L34.641,44Z" style="fill:rgb(223,218,211);fill-opacity:0;stroke:rgb(156,137,184);stroke-width:0.5px;"/>
            </g>
            <g transform="matrix(1,0,0,1,13.8564,16)">
                <path d="M34.641,44L41.569,40L34.641,36L27.713,40L34.641,44Z" style="fill:rgb(223,218,211);fill-opacity:0;stroke:rgb(156,137,184);stroke-width:0.5px;"/>
            </g>
            <g transform="matrix(1,0,0,1,27.7128,8)">
                <path d="M34.641,44L41.569,40L34.641,36L27.713,40L34.641,44Z" style="fill:rgb(223,218,211);fill-opacity:0;stroke:rgb(156,137,184);stroke-width:0.5px;"/>
            </g>
            <g transform="matrix(1,0,0,1,20.7846,-4)">
                <path d="M34.641,44L41.569,40L34.641,36L27.713,40L34.641,44Z" style="fill:rgb(223,218,211);fill-opacity:0;stroke:rgb(156,137,184);stroke-width:0.5px;"/>
            </g>
            <g transform="matrix(1,0,0,1,27.7128,-7.10543e-15)">
                <path d="M34.641,44L41.569,40L34.641,36L27.713,40L34.641,44Z" style="fill:rgb(223,218,211);fill-opacity:0;stroke:rgb(156,137,184);stroke-width:0.5px;"/>
            </g>
            <g transform="matrix(1,0,0,1,34.641,4)">
                <path d="M34.641,44L41.569,40L34.641,36L27.713,40L34.641,44Z" style="fill:rgb(223,218,211);fill-opacity:0;stroke:rgb(156,137,184);stroke-width:0.5px;"/>
            </g>
            <g transform="matrix(1,0,0,1,-13.8564,-8)">
                <path d="M34.641,44L41.569,40L34.641,36L27.713,40L34.641,44Z" style="fill:rgb(223,218,211);fill-opacity:0;stroke:rgb(156,137,184);stroke-width:0.5px;"/>
            </g>
            <g transform="matrix(1,0,0,1,-20.7846,-4)">
                <path d="M34.641,44L41.569,40L34.641,36L27.713,40L34.641,44Z" style="fill:rgb(223,218,211);fill-opacity:0;stroke:rgb(156,137,184);stroke-width:0.5px;"/>
            </g>
            <g transform="matrix(1,0,0,1,-20.7846,-12)">
                <path d="M34.641,44L41.569,40L34.641,36L27.713,40L34.641,44Z" style="fill:rgb(223,218,211);fill-opacity:0;stroke:rgb(156,137,184);stroke-width:0.5px;"/>
            </g>
            <path d="M34.641,44L41.569,40L34.641,36L27.713,40L34.641,44Z" style="fill:rgb(223,218,211);fill-opacity:0;stroke:rgb(156,137,184);stroke-width:0.5px;"/>
            <g transform="matrix(1,0,0,1,-13.8564,-1.77636e-15)">
                <path d="M34.641,44L41.569,40L34.641,36L27.713,40L34.641,44Z" style="fill:rgb(223,218,211);fill-opacity:0;stroke:rgb(156,137,184);stroke-width:0.5px;"/>
            </g>
            <g transform="matrix(1,0,0,1,-6.9282,-4)">
                <path d="M34.641,44L41.569,40L34.641,36L27.713,40L34.641,44Z" style="fill:rgb(223,218,211);fill-opacity:0;stroke:rgb(156,137,184);stroke-width:0.5px;"/>
            </g>
            <g transform="matrix(1,0,0,1,34.641,20)">
                <path d="M34.641,44L41.569,40L34.641,36L27.713,40L34.641,44Z" style="fill:rgb(223,218,211);fill-opacity:0;stroke:rgb(156,137,184);stroke-width:0.5px;"/>
            </g>
            <g transform="matrix(1,0,0,1,27.7128,16)">
                <path d="M34.641,44L41.569,40L34.641,36L27.713,40L34.641,44Z" style="fill:rgb(223,218,211);fill-opacity:0;stroke:rgb(156,137,184);stroke-width:0.5px;"/>
            </g>
            <g transform="matrix(1,0,0,1,13.8564,3.55271e-15)">
                <path d="M34.641,44L41.569,40L34.641,36L27.713,40L34.641,44Z" style="fill:rgb(223,218,211);fill-opacity:0;stroke:rgb(156,137,184);stroke-width:0.5px;"/>
            </g>
            <g transform="matrix(1,0,0,1,6.9282,12)">
                <path d="M34.641,44L41.569,40L34.641,36L27.713,40L34.641,44Z" style="fill:rgb(223,218,211);fill-opacity:0;stroke:rgb(156,137,184);stroke-width:0.5px;"/>
            </g>
            <g transform="matrix(1,0,0,1,20.7846,12)">
                <path d="M34.641,44L41.569,40L34.641,36L27.713,40L34.641,44Z" style="fill:rgb(223,218,211);fill-opacity:0;stroke:rgb(156,137,184);stroke-width:0.5px;"/>
            </g>
            <g transform="matrix(1,0,0,1,6.9282,4)">
                <path d="M34.641,44L41.569,40L34.641,36L27.713,40L34.641,44Z" style="fill:rgb(223,218,211);fill-opacity:0;stroke:rgb(156,137,184);stroke-width:0.5px;"/>
            </g>
            <g transform="matrix(1,0,0,1,13.8564,8)">
                <path d="M34.641,44L41.569,40L34.641,36L27.713,40L34.641,44Z" style="fill:rgb(223,218,211);fill-opacity:0;stroke:rgb(156,137,184);stroke-width:0.5px;"/>
            </g>
            <g transform="matrix(1,0,0,1,20.7846,4)">
                <path d="M34.641,44L41.569,40L34.641,36L27.713,40L34.641,44Z" style="fill:rgb(223,218,211);fill-opacity:0;stroke:rgb(156,137,184);stroke-width:0.5px;"/>
            </g>
        </g>
        <g transform="matrix(0.195138,-0.112663,0.195107,0.112691,-6.18927,31.7427)">
            <circle cx="67.981" cy="34.751" r="17.751" style="fill:rgb(90,169,230);"/>
        </g>
        <g transform="matrix(0.195138,-0.112663,0.195107,0.112691,63.0925,63.7428)">
            <circle cx="67.981" cy="34.751" r="17.751" style="fill:rgb(90,169,230);"/>
        </g>
        <g transform="matrix(0.195138,-0.112663,0.195107,0.112691,-6.18927,71.7427)">
            <circle cx="67.981" cy="34.751" r="17.751" style="fill:rgb(90,169,230);"/>
        </g>
        <g transform="matrix(1.5,-0.288675,-0.288675,1.16667,-10.3923,6)">
            <path d="M27.713,60L48.497,48" style="fill:none;stroke:rgb(90,169,230);stroke-width:0.95px;"/>
        </g>
        <path d="M69.282,60L13.856,28" style="fill:none;stroke:rgb(90,169,230);stroke-width:1px;"/>
        <g transform="matrix(1,0,0,1,6.9282,4)">
            <path d="M34.641,40L48.497,32" style="fill:none;stroke:rgb(90,169,230);stroke-width:1px;"/>
        </g>
        <path d="M69.282,60L76.21,56L83.138,60" style="fill:none;stroke:rgb(90,169,230);stroke-width:1px;"/>
        <g id="Clock" transform="matrix(1.89042,0,0,1.89042,-55.4055,-1.14462)">
            <g transform="matrix(0.494366,0,0,0.494366,32.1029,-1.2924)">
                <circle cx="67.981" cy="34.751" r="17.751" style="fill:rgb(156,137,184);"/>
            </g>
            <g transform="matrix(0.494366,0,0,0.494366,32.1029,-1.2924)">
                <path d="M85.732,34.751C85.732,24.948 77.785,17 67.981,17L67.981,34.751L85.732,34.751Z" style="fill:rgb(247,199,219);"/>
            </g>
            <g transform="matrix(0.494366,0,0,0.494366,32.1029,-1.2924)">
                <circle cx="67.981" cy="34.751" r="17.751" style="fill:none;stroke:rgb(62,54,63);stroke-width:2.35px;"/>
            </g>
            <g transform="matrix(1,0,0,0.0748073,3.35643,6.28214)">
                <path d="M62.354,11.091L62.354,28.642" style="fill:none;stroke:rgb(62,54,63);stroke-width:1.12px;"/>
            </g>
            <g transform="matrix(1,0,0,0.0757997,3.35643,22.492)">
                <path d="M62.354,11.091L62.354,28.642" style="fill:none;stroke:rgb(62,54,63);stroke-width:1.12px;"/>
            </g>
            <g transform="matrix(0.0754023,0,0,1,69.1226,-3.97916)">
                <path d="M53.578,19.867L71.129,19.867L62.354,19.867" style="fill:none;stroke:rgb(62,54,63);stroke-width:1.12px;"/>
            </g>
            <g transform="matrix(0.0762041,0,0,1,52.8517,-3.97916)">
                <path d="M53.578,19.867L71.129,19.867L62.354,19.867" style="fill:none;stroke:rgb(62,54,63);stroke-width:1.12px;"/>
            </g>
            <g transform="matrix(-0.800672,0.613195,-1.53773,0.800672,138.365,-44.7263)">
                <path d="M65.71,15.887L73.31,11.5" style="fill:none;stroke:rgb(62,54,63);stroke-width:0.41px;"/>
            </g>
            <g transform="matrix(-0.799988,0.614381,-1.53813,0.799988,146.433,-30.7526)">
                <path d="M65.71,15.887L73.31,11.5" style="fill:none;stroke:rgb(62,54,63);stroke-width:0.41px;"/>
            </g>
            <g transform="matrix(0.799544,0.61507,-1.53841,-0.799544,41.3277,-18.2599)">
                <path d="M65.71,15.887L58.11,11.5" style="fill:none;stroke:rgb(62,54,63);stroke-width:1.47px;"/>
            </g>
            <g transform="matrix(0.801107,0.612363,-1.53751,-0.801107,33.1087,-4.02335)">
                <path d="M65.71,15.887L58.11,11.5" style="fill:none;stroke:rgb(62,54,63);stroke-width:1.48px;"/>
            </g>
            <g transform="matrix(0.615102,0.799526,0.799526,1.53842,19.0227,-64.8052)">
                <path d="M65.71,15.887L73.31,11.5" style="fill:none;stroke:rgb(62,54,63);stroke-width:0.41px;"/>
            </g>
            <g transform="matrix(0.613189,0.80063,0.80063,1.53778,5.09734,-56.7659)">
                <path d="M65.71,15.887L73.31,11.5" style="fill:none;stroke:rgb(62,54,63);stroke-width:0.41px;"/>
            </g>
            <g transform="matrix(0.361665,-0.36634,-0.36634,0.789757,41.3066,23.7059)">
                <path d="M65.733,15.874L58.11,11.5" style="fill:none;stroke:rgb(62,54,63);stroke-width:2.65px;"/>
            </g>
            <g transform="matrix(0.360074,-0.367254,-0.367254,0.789233,55.4941,31.8481)">
                <path d="M65.733,15.874L58.11,11.5" style="fill:none;stroke:rgb(62,54,63);stroke-width:2.66px;"/>
            </g>
            <g transform="matrix(0.528983,0,0,0.528983,31.8906,-0.885274)">
                <path d="M63.936,22.129L63.933,31.706" style="fill:none;stroke:rgb(62,54,63);stroke-width:2px;"/>
            </g>
            <g transform="matrix(0.528983,0,0,0.528983,31.8906,-0.885274)">
                <path d="M63.936,31.708L68.762,34.495" style="fill:none;stroke:rgb(62,54,63);stroke-width:2px;"/>
            </g>
        </g>
    </g>
</svg>
