<?xml version="1.0" encoding="UTF-8" standalone="no"?>
<!DOCTYPE svg PUBLIC "-//W3C//DTD SVG 1.1//EN" "http://www.w3.org/Graphics/SVG/1.1/DTD/svg11.dtd">
<svg width="100%" height="100%" viewBox="0 0 96 96" version="1.1" xmlns="http://www.w3.org/2000/svg" xmlns:xlink="http://www.w3.org/1999/xlink" xml:space="preserve" xmlns:serif="http://www.serif.com/" style="fill-rule:evenodd;clip-rule:evenodd;stroke-linejoin:round;stroke-miterlimit:2;">
    <g id="Neural-Network" serif:id="Neural Network" transform="matrix(0.352006,0,0,0.352006,1.17101,-3.40944)">
        <g transform="matrix(2.84086,0,3.94249e-17,2.84086,-46.4316,-14.9539)">
            <g transform="matrix(1,0,6.16298e-33,1,18.6373,6.6733)">
                <path d="M13.856,56L24.195,50.031L24.195,41.969L13.856,48L13.856,56Z" style="fill:rgb(62,54,63);fill-opacity:0.6;"/>
            </g>
            <g transform="matrix(1,0,3.08149e-33,1,-5.61141,-3.3267)">
                <path d="M38.105,58L34.641,56L34.641,63.941L38.105,66L38.105,58Z" style="fill:rgb(62,54,63);"/>
            </g>
            <g transform="matrix(1,0,3.08149e-33,1,4.8079,14.6889)">
                <path d="M38.051,33.969L34.641,32L24.249,38L27.659,40.031L38.051,33.969Z" style="fill:rgb(62,54,63);fill-opacity:0.4;"/>
            </g>
        </g>
        <g transform="matrix(2.84086,0,3.94249e-17,2.84086,-46.5616,-60.3326)">
            <g transform="matrix(1,0,6.16298e-33,1,18.6373,6.6733)">
                <path d="M13.856,56L24.195,50.031L24.195,41.969L13.856,48L13.856,56Z" style="fill:rgb(62,54,63);fill-opacity:0.6;"/>
            </g>
            <g transform="matrix(1,0,3.08149e-33,1,-5.61141,-3.3267)">
                <path d="M38.105,58L34.641,56L34.641,63.941L38.105,66L38.105,58Z" style="fill:rgb(62,54,63);"/>
            </g>
            <g transform="matrix(1,0,3.08149e-33,1,4.8079,14.6889)">
                <path d="M38.051,33.969L34.641,32L24.249,38L27.659,40.031L38.051,33.969Z" style="fill:rgb(62,54,63);fill-opacity:0.4;"/>
            </g>
        </g>
        <g transform="matrix(2.84086,0,3.94249e-17,2.84086,-46.5616,30.4249)">
            <g transform="matrix(1,0,6.16298e-33,1,18.6373,6.6733)">
                <path d="M13.856,56L24.195,50.031L24.195,41.969L13.856,48L13.856,56Z" style="fill:rgb(62,54,63);fill-opacity:0.6;"/>
            </g>
            <g transform="matrix(1,0,3.08149e-33,1,-5.61141,-3.3267)">
                <path d="M38.105,58L34.641,56L34.641,63.941L38.105,66L38.105,58Z" style="fill:rgb(62,54,63);"/>
            </g>
            <g transform="matrix(1,0,3.08149e-33,1,4.8079,14.6889)">
                <path d="M38.051,33.969L34.641,32L24.249,38L27.659,40.031L38.051,33.969Z" style="fill:rgb(62,54,63);fill-opacity:0.4;"/>
            </g>
        </g>
        <g transform="matrix(2.84086,0,3.94249e-17,2.84086,-46.5616,75.8787)">
            <g transform="matrix(1,0,6.16298e-33,1,18.6373,6.6733)">
                <path d="M13.856,56L24.195,50.031L24.195,41.969L13.856,48L13.856,56Z" style="fill:rgb(62,54,63);fill-opacity:0.6;"/>
            </g>
            <g transform="matrix(1,0,3.08149e-33,1,-5.61141,-3.3267)">
                <path d="M38.105,58L34.641,56L34.641,63.941L38.105,66L38.105,58Z" style="fill:rgb(62,54,63);"/>
            </g>
            <g transform="matrix(1,0,3.08149e-33,1,4.8079,14.6889)">
                <path d="M38.051,33.969L34.641,32L24.249,38L27.659,40.031L38.051,33.969Z" style="fill:rgb(62,54,63);fill-opacity:0.4;"/>
            </g>
        </g>
        <g id="Orb" transform="matrix(0.565262,0,0,0.565262,52.2065,-927.029)">
            <g>
                <path d="M145.492,1721.63C160.442,1721.63 172.58,1733.77 172.58,1748.72C172.58,1763.67 160.442,1775.81 145.492,1775.81C130.542,1775.81 118.405,1763.67 118.405,1748.72C118.405,1733.77 130.542,1721.63 145.492,1721.63Z" style="fill:rgb(62,54,63);fill-opacity:0.4;stroke:rgb(62,54,63);stroke-width:2.51px;"/>
                <path d="M128.691,1728.97C125.779,1733.17 124.072,1738.27 124.072,1743.76C124.072,1758.09 135.713,1769.74 150.051,1769.74C156.195,1769.74 161.844,1767.6 166.293,1764.03C161.571,1769.58 154.535,1773.1 146.682,1773.1C132.478,1773.1 120.946,1761.57 120.946,1747.37C120.946,1740.16 123.913,1733.65 128.691,1728.97Z" style="fill:rgb(62,54,63);fill-opacity:0.4;"/>
                <path d="M133.761,1725.23C131.774,1728.89 130.645,1733.08 130.645,1737.54C130.645,1751.81 142.231,1763.39 156.501,1763.39C160.979,1763.39 165.193,1762.25 168.866,1760.24C168.024,1761.69 167.044,1763.05 165.943,1764.3C161.548,1767.71 156.035,1769.74 150.051,1769.74C135.713,1769.74 124.072,1758.09 124.072,1743.76C124.072,1738.46 125.663,1733.52 128.393,1729.41C129.984,1727.79 131.789,1726.38 133.761,1725.23Z" style="fill:rgb(62,54,63);fill-opacity:0.4;"/>
                <path d="M156.138,1729.15C158.34,1729.15 161.622,1731.4 163.464,1734.17C165.305,1736.94 165.013,1739.19 162.811,1739.19C160.609,1739.19 157.327,1736.94 155.485,1734.17C153.644,1731.4 153.936,1729.15 156.138,1729.15Z" style="fill:rgb(62,54,63);fill-opacity:0.4;"/>
            </g>
        </g>
        <g id="Orb1" serif:id="Orb" transform="matrix(0.565262,0,0,0.565262,52.2065,-865.316)">
            <g>
                <path d="M145.492,1721.63C160.442,1721.63 172.58,1733.77 172.58,1748.72C172.58,1763.67 160.442,1775.81 145.492,1775.81C130.542,1775.81 118.405,1763.67 118.405,1748.72C118.405,1733.77 130.542,1721.63 145.492,1721.63Z" style="fill:rgb(62,54,63);fill-opacity:0.4;stroke:rgb(62,54,63);stroke-width:2.51px;"/>
                <path d="M128.691,1728.97C125.779,1733.17 124.072,1738.27 124.072,1743.76C124.072,1758.09 135.713,1769.74 150.051,1769.74C156.195,1769.74 161.844,1767.6 166.293,1764.03C161.571,1769.58 154.535,1773.1 146.682,1773.1C132.478,1773.1 120.946,1761.57 120.946,1747.37C120.946,1740.16 123.913,1733.65 128.691,1728.97Z" style="fill:rgb(62,54,63);fill-opacity:0.4;"/>
                <path d="M133.761,1725.23C131.774,1728.89 130.645,1733.08 130.645,1737.54C130.645,1751.81 142.231,1763.39 156.501,1763.39C160.979,1763.39 165.193,1762.25 168.866,1760.24C168.024,1761.69 167.044,1763.05 165.943,1764.3C161.548,1767.71 156.035,1769.74 150.051,1769.74C135.713,1769.74 124.072,1758.09 124.072,1743.76C124.072,1738.46 125.663,1733.52 128.393,1729.41C129.984,1727.79 131.789,1726.38 133.761,1725.23Z" style="fill:rgb(62,54,63);fill-opacity:0.4;"/>
                <path d="M156.138,1729.15C158.34,1729.15 161.622,1731.4 163.464,1734.17C165.305,1736.94 165.013,1739.19 162.811,1739.19C160.609,1739.19 157.327,1736.94 155.485,1734.17C153.644,1731.4 153.936,1729.15 156.138,1729.15Z" style="fill:rgb(62,54,63);fill-opacity:0.4;"/>
            </g>
        </g>
        <g id="Orb2" serif:id="Orb" transform="matrix(0.565262,0,0,0.565262,115.672,-918.218)">
            <g>
                <path d="M145.492,1721.63C160.442,1721.63 172.58,1733.77 172.58,1748.72C172.58,1763.67 160.442,1775.81 145.492,1775.81C130.542,1775.81 118.405,1763.67 118.405,1748.72C118.405,1733.77 130.542,1721.63 145.492,1721.63Z" style="fill:rgb(62,54,63);fill-opacity:0.4;stroke:rgb(62,54,63);stroke-width:2.51px;"/>
                <path d="M128.691,1728.97C125.779,1733.17 124.072,1738.27 124.072,1743.76C124.072,1758.09 135.713,1769.74 150.051,1769.74C156.195,1769.74 161.844,1767.6 166.293,1764.03C161.571,1769.58 154.535,1773.1 146.682,1773.1C132.478,1773.1 120.946,1761.57 120.946,1747.37C120.946,1740.16 123.913,1733.65 128.691,1728.97Z" style="fill:rgb(62,54,63);fill-opacity:0.4;"/>
                <path d="M133.761,1725.23C131.774,1728.89 130.645,1733.08 130.645,1737.54C130.645,1751.81 142.231,1763.39 156.501,1763.39C160.979,1763.39 165.193,1762.25 168.866,1760.24C168.024,1761.69 167.044,1763.05 165.943,1764.3C161.548,1767.71 156.035,1769.74 150.051,1769.74C135.713,1769.74 124.072,1758.09 124.072,1743.76C124.072,1738.46 125.663,1733.52 128.393,1729.41C129.984,1727.79 131.789,1726.38 133.761,1725.23Z" style="fill:rgb(62,54,63);fill-opacity:0.4;"/>
                <path d="M156.138,1729.15C158.34,1729.15 161.622,1731.4 163.464,1734.17C165.305,1736.94 165.013,1739.19 162.811,1739.19C160.609,1739.19 157.327,1736.94 155.485,1734.17C153.644,1731.4 153.936,1729.15 156.138,1729.15Z" style="fill:rgb(62,54,63);fill-opacity:0.4;"/>
            </g>
        </g>
        <g id="Orb3" serif:id="Orb" transform="matrix(0.565262,0,0,0.565262,52.2065,-802.667)">
            <g>
                <path d="M145.492,1721.63C160.442,1721.63 172.58,1733.77 172.58,1748.72C172.58,1763.67 160.442,1775.81 145.492,1775.81C130.542,1775.81 118.405,1763.67 118.405,1748.72C118.405,1733.77 130.542,1721.63 145.492,1721.63Z" style="fill:rgb(62,54,63);fill-opacity:0.4;stroke:rgb(62,54,63);stroke-width:2.51px;"/>
                <path d="M128.691,1728.97C125.779,1733.17 124.072,1738.27 124.072,1743.76C124.072,1758.09 135.713,1769.74 150.051,1769.74C156.195,1769.74 161.844,1767.6 166.293,1764.03C161.571,1769.58 154.535,1773.1 146.682,1773.1C132.478,1773.1 120.946,1761.57 120.946,1747.37C120.946,1740.16 123.913,1733.65 128.691,1728.97Z" style="fill:rgb(62,54,63);fill-opacity:0.4;"/>
                <path d="M133.761,1725.23C131.774,1728.89 130.645,1733.08 130.645,1737.54C130.645,1751.81 142.231,1763.39 156.501,1763.39C160.979,1763.39 165.193,1762.25 168.866,1760.24C168.024,1761.69 167.044,1763.05 165.943,1764.3C161.548,1767.71 156.035,1769.74 150.051,1769.74C135.713,1769.74 124.072,1758.09 124.072,1743.76C124.072,1738.46 125.663,1733.52 128.393,1729.41C129.984,1727.79 131.789,1726.38 133.761,1725.23Z" style="fill:rgb(62,54,63);fill-opacity:0.4;"/>
                <path d="M156.138,1729.15C158.34,1729.15 161.622,1731.4 163.464,1734.17C165.305,1736.94 165.013,1739.19 162.811,1739.19C160.609,1739.19 157.327,1736.94 155.485,1734.17C153.644,1731.4 153.936,1729.15 156.138,1729.15Z" style="fill:rgb(62,54,63);fill-opacity:0.4;"/>
            </g>
        </g>
        <g id="Orb4" serif:id="Orb" transform="matrix(0.565262,0,0,0.565262,115.672,-857.568)">
            <g>
                <path d="M145.492,1721.63C160.442,1721.63 172.58,1733.77 172.58,1748.72C172.58,1763.67 160.442,1775.81 145.492,1775.81C130.542,1775.81 118.405,1763.67 118.405,1748.72C118.405,1733.77 130.542,1721.63 145.492,1721.63Z" style="fill:rgb(62,54,63);fill-opacity:0.4;stroke:rgb(62,54,63);stroke-width:2.51px;"/>
                <path d="M128.691,1728.97C125.779,1733.17 124.072,1738.27 124.072,1743.76C124.072,1758.09 135.713,1769.74 150.051,1769.74C156.195,1769.74 161.844,1767.6 166.293,1764.03C161.571,1769.58 154.535,1773.1 146.682,1773.1C132.478,1773.1 120.946,1761.57 120.946,1747.37C120.946,1740.16 123.913,1733.65 128.691,1728.97Z" style="fill:rgb(62,54,63);fill-opacity:0.4;"/>
                <path d="M133.761,1725.23C131.774,1728.89 130.645,1733.08 130.645,1737.54C130.645,1751.81 142.231,1763.39 156.501,1763.39C160.979,1763.39 165.193,1762.25 168.866,1760.24C168.024,1761.69 167.044,1763.05 165.943,1764.3C161.548,1767.71 156.035,1769.74 150.051,1769.74C135.713,1769.74 124.072,1758.09 124.072,1743.76C124.072,1738.46 125.663,1733.52 128.393,1729.41C129.984,1727.79 131.789,1726.38 133.761,1725.23Z" style="fill:rgb(62,54,63);fill-opacity:0.4;"/>
                <path d="M156.138,1729.15C158.34,1729.15 161.622,1731.4 163.464,1734.17C165.305,1736.94 165.013,1739.19 162.811,1739.19C160.609,1739.19 157.327,1736.94 155.485,1734.17C153.644,1731.4 153.936,1729.15 156.138,1729.15Z" style="fill:rgb(62,54,63);fill-opacity:0.4;"/>
            </g>
        </g>
        <g transform="matrix(2.84086,0,0,2.84086,-3.32668,9.68574)">
            <path d="M27.713,28L43.736,20.749" style="fill:none;stroke:rgb(62,54,63);stroke-width:0.5px;stroke-linecap:round;stroke-miterlimit:1.5;stroke-dasharray:1,1,0,0;"/>
        </g>
        <g transform="matrix(2.84086,0,0,2.84086,-3.32668,9.68574)">
            <path d="M27.64,42.678L43.736,20.749" style="fill:none;stroke:rgb(62,54,63);stroke-width:0.5px;stroke-linecap:round;stroke-miterlimit:1.5;stroke-dasharray:1,1,0,0;"/>
        </g>
        <g transform="matrix(2.84086,0,0,2.84086,-3.32668,9.68574)">
            <path d="M27.713,60L43.736,42.696" style="fill:none;stroke:rgb(62,54,63);stroke-width:0.5px;stroke-linecap:round;stroke-miterlimit:1.5;stroke-dasharray:1,1,0,0;"/>
        </g>
        <g transform="matrix(2.84086,0,0,2.84086,-3.32668,9.68574)">
            <path d="M27.64,59.958L43.736,64.526" style="fill:none;stroke:rgb(62,54,63);stroke-width:0.5px;stroke-linecap:round;stroke-miterlimit:1.5;stroke-dasharray:1,1,0,0;"/>
        </g>
        <g transform="matrix(2.84086,0,0,2.84086,-3.32668,9.68574)">
            <path d="M27.713,75.916L43.83,64.695" style="fill:none;stroke:rgb(62,54,63);stroke-width:0.5px;stroke-linecap:round;stroke-miterlimit:1.5;stroke-dasharray:1,1,0,0;"/>
        </g>
        <g transform="matrix(2.84086,0,0,2.84086,-3.32668,9.68574)">
            <path d="M27.713,75.916L43.93,42.809" style="fill:none;stroke:rgb(62,54,63);stroke-width:0.5px;stroke-linecap:round;stroke-miterlimit:1.5;stroke-dasharray:1,1,0,0;"/>
        </g>
        <g transform="matrix(2.84086,0,0,2.84086,-3.32668,9.68574)">
            <path d="M27.713,75.916L43.736,20.749" style="fill:none;stroke:rgb(62,54,63);stroke-width:0.5px;stroke-linecap:round;stroke-miterlimit:1.5;stroke-dasharray:1,1,0,0;"/>
        </g>
        <g transform="matrix(2.84086,0,0,2.84086,-3.32668,9.68574)">
            <path d="M27.713,42.579L43.736,42.921" style="fill:none;stroke:rgb(62,54,63);stroke-width:0.5px;stroke-linecap:round;stroke-miterlimit:1.5;stroke-dasharray:1,1,0,0;"/>
        </g>
        <g transform="matrix(2.84086,0,0,2.84086,-3.32668,9.68574)">
            <path d="M43.736,42.696L27.64,27.958" style="fill:none;stroke:rgb(62,54,63);stroke-width:0.5px;stroke-linecap:round;stroke-miterlimit:1.5;stroke-dasharray:1,1,0,0;"/>
        </g>
        <g transform="matrix(2.84086,0,0,2.84086,-3.32668,9.68574)">
            <path d="M27.713,60L43.93,20.862" style="fill:none;stroke:rgb(62,54,63);stroke-width:0.5px;stroke-linecap:round;stroke-miterlimit:1.5;stroke-dasharray:1,1,0,0;"/>
        </g>
        <g transform="matrix(2.84086,0,0,2.84086,-3.32668,9.68574)">
            <path d="M27.64,42.621L43.736,64.526" style="fill:none;stroke:rgb(62,54,63);stroke-width:0.5px;stroke-linecap:round;stroke-miterlimit:1.5;stroke-dasharray:1,1,0,0;"/>
        </g>
        <g transform="matrix(2.84086,0,0,2.84086,-3.32668,9.68574)">
            <path d="M53.165,59.305L66.354,45.665" style="fill:none;stroke:rgb(62,54,63);stroke-width:0.5px;stroke-linecap:round;stroke-miterlimit:1.5;stroke-dasharray:1,1,0,0;"/>
        </g>
        <g transform="matrix(2.84086,0,0,2.84086,-3.32668,9.68574)">
            <path d="M53.887,39.112L66.354,45.665" style="fill:none;stroke:rgb(62,54,63);stroke-width:0.5px;stroke-linecap:round;stroke-miterlimit:1.5;stroke-dasharray:1,1,0,0;"/>
        </g>
        <g transform="matrix(2.84086,0,0,2.84086,-3.32668,9.68574)">
            <path d="M53.887,39.112L66.17,24.02" style="fill:none;stroke:rgb(62,54,63);stroke-width:0.5px;stroke-linecap:round;stroke-miterlimit:1.5;stroke-dasharray:1,1,0,0;"/>
        </g>
        <g transform="matrix(2.84086,0,0,2.84086,-3.32668,9.68574)">
            <path d="M53.887,19.168L66.17,24.02" style="fill:none;stroke:rgb(62,54,63);stroke-width:0.5px;stroke-linecap:round;stroke-miterlimit:1.5;stroke-dasharray:1,1,0,0;"/>
        </g>
        <g transform="matrix(2.84086,0,0,2.84086,-3.32668,9.68574)">
            <path d="M53.812,19.124L66.17,45.369" style="fill:none;stroke:rgb(62,54,63);stroke-width:0.5px;stroke-linecap:round;stroke-miterlimit:1.5;stroke-dasharray:1,1,0,0;"/>
        </g>
        <g transform="matrix(2.84086,0,0,2.84086,-3.32668,9.68574)">
            <path d="M53.165,59.101L66.17,24.02" style="fill:none;stroke:rgb(62,54,63);stroke-width:0.5px;stroke-linecap:round;stroke-miterlimit:1.5;stroke-dasharray:1,1,0,0;"/>
        </g>
    </g>
</svg>
