<?xml version="1.0" encoding="UTF-8" standalone="no"?>
<!DOCTYPE svg PUBLIC "-//W3C//DTD SVG 1.1//EN" "http://www.w3.org/Graphics/SVG/1.1/DTD/svg11.dtd">
<svg width="100%" height="100%" viewBox="0 0 96 96" version="1.1" xmlns="http://www.w3.org/2000/svg" xmlns:xlink="http://www.w3.org/1999/xlink" xml:space="preserve" xmlns:serif="http://www.serif.com/" style="fill-rule:evenodd;clip-rule:evenodd;stroke-linecap:round;stroke-linejoin:round;stroke-miterlimit:1.5;">
    <g id="Housing-Assessment" serif:id="Housing Assessment">
        <g transform="matrix(1.91356,0,0,1.91356,-44.2847,-36.11)">
            <path d="M58.89,42C58.89,42 60.419,42.883 61.447,43.477C62.013,43.803 62.71,43.803 63.276,43.477C65.237,42.344 69.829,39.693 71.813,38.548C72.007,38.436 72.127,38.229 72.127,38.005C72.127,37.781 72.007,37.574 71.813,37.461C69.829,36.316 65.237,33.665 63.273,32.53C62.704,32.202 62.004,32.204 61.437,32.534C60.416,33.129 58.906,34.009 58.906,34.009" style="fill:none;stroke:rgb(90,169,230);stroke-width:0.52px;"/>
        </g>
        <g transform="matrix(1.91356,0,0,1.91356,-44.2847,-36.11)">
            <path d="M44.101,54.548C44.295,54.436 44.414,54.229 44.414,54.005C44.414,53.781 44.295,53.574 44.101,53.461C42.115,52.315 37.518,49.661 35.556,48.528C34.99,48.201 34.292,48.201 33.726,48.528C31.765,49.66 27.174,52.311 25.189,53.457C24.995,53.569 24.876,53.776 24.876,54C24.876,54.224 24.995,54.431 25.189,54.543C27.175,55.689 31.772,58.344 33.734,59.477C34.3,59.803 34.998,59.803 35.563,59.477C37.525,58.344 42.116,55.693 44.101,54.548Z" style="fill:none;stroke:rgb(90,169,230);stroke-width:0.52px;"/>
        </g>
        <g transform="matrix(1.91356,0,0,1.91356,-44.2847,-36.11)">
            <path d="M39.581,43.49C39.581,43.49 38.047,44.368 37.017,44.957C36.452,45.28 35.758,45.279 35.195,44.954C33.236,43.823 26.624,40.008 24.637,38.862C24.443,38.75 24.323,38.543 24.323,38.319C24.323,38.095 24.443,37.888 24.637,37.776C26.62,36.631 31.759,33.664 33.722,32.53C34.29,32.202 34.991,32.204 35.558,32.534C36.579,33.129 38.089,34.009 38.089,34.009" style="fill:none;stroke:rgb(90,169,230);stroke-width:0.52px;"/>
        </g>
        <path d="M48.548,63.36L68.435,51.931L48.497,40L28.72,51.872L48.548,63.36Z" style="fill:none;stroke:rgb(90,169,230);stroke-width:5px;"/>
        <path d="M48.503,63.387L68.435,51.94L68.435,25.108L41.889,9.85L35.489,21.231L28.72,25.139L28.72,51.862L48.503,63.387Z" style="fill:rgb(247,199,219);stroke:rgb(239,238,238);stroke-width:0.5px;"/>
        <g id="Shading">
            <path d="M48.563,63.369L68.435,51.931L68.405,25.124L61.805,21.28L55.178,32.761L55.177,44.241L48.548,48.051L48.563,63.369Z" style="fill-opacity:0;stroke:rgb(62,54,63);stroke-width:0.5px;"/>
            <path d="M48.548,29.165L41.859,32.831L41.859,40.45L48.518,36.622L48.548,29.165Z" style="fill-opacity:0;stroke:rgb(62,54,63);stroke-width:0.5px;"/>
            <path d="M48.548,63.36L48.548,48.051L41.859,40.45L41.859,32.796L35.26,25.125L28.72,25.139L28.72,51.872L48.548,63.36Z" style="fill:rgb(254,144,173);stroke:rgb(62,54,63);stroke-width:0.5px;"/>
            <path d="M55.177,44.241L55.178,32.76L48.548,28.969L48.518,36.622L55.177,44.241Z" style="fill:rgb(254,144,173);stroke:rgb(62,54,63);stroke-width:0.5px;"/>
            <path d="M48.548,48.079L55.177,44.277L48.548,36.588L41.859,40.45L48.548,48.079Z" style="fill:rgb(170,146,158);stroke:rgb(62,54,63);stroke-width:0.5px;"/>
            <path d="M48.518,29.181L41.953,32.78L35.26,25.125L44.345,19.827L48.518,29.181Z" style="fill:rgb(170,146,158);stroke:rgb(62,54,63);stroke-width:0.5px;"/>
            <path d="M44.345,19.827L35.489,21.231L28.72,25.037L35.169,25.125L44.345,19.827Z" style="fill:rgb(123,91,105);stroke:rgb(62,54,63);stroke-width:0.5px;"/>
            <path d="M35.489,21.231L41.889,9.85L61.745,21.314L55.178,32.76L48.548,29.421L44.39,19.853L35.489,21.231Z" style="fill:rgb(123,91,105);stroke:rgb(62,54,63);stroke-width:0.5px;"/>
        </g>
    </g>
</svg>
