<?xml version="1.0" encoding="UTF-8" standalone="no"?>
<!DOCTYPE svg PUBLIC "-//W3C//DTD SVG 1.1//EN" "http://www.w3.org/Graphics/SVG/1.1/DTD/svg11.dtd">
<svg width="100%" height="100%" viewBox="0 0 96 96" version="1.1" xmlns="http://www.w3.org/2000/svg" xmlns:xlink="http://www.w3.org/1999/xlink" xml:space="preserve" xmlns:serif="http://www.serif.com/" style="fill-rule:evenodd;clip-rule:evenodd;stroke-linecap:round;stroke-linejoin:round;stroke-miterlimit:1.5;">
    <g id="Interactive-Infographics" serif:id="Interactive Infographics">
        <path d="M63.338,49.432L74.694,55.898L74.537,62.409L69.065,65.625L69.016,72.38L57.659,78.495L51.981,75.386L46.303,78.595L40.624,75.25L29.307,81.784L17.911,75.204L29.268,68.784L24.042,65.767L29.268,62.75L23.589,59.131L23.708,52.597L34.952,45.952L63.338,49.432" style="fill:none;stroke:rgb(90,169,230);stroke-width:4px;"/>
        <g transform="matrix(0.435854,-0.153118,-0.153118,0.612659,48.8646,37.7699)">
            <path d="M60.855,76.774L92.734,95.277" style="fill:none;stroke:rgb(90,169,230);stroke-width:2.62px;"/>
        </g>
        <g transform="matrix(0.693213,0,0,0.693213,7.2429,24.1089)">
            <path d="M23.609,78.585L8.49,87.314" style="fill:none;stroke:rgb(90,169,230);stroke-width:2.89px;"/>
        </g>
        <g transform="matrix(0.73266,-0.154349,-0.154349,0.910887,15.7695,9.10453)">
            <path d="M31.208,48.114L15.371,38.97" style="fill:none;stroke:rgb(90,169,230);stroke-width:1.49px;"/>
        </g>
        <g transform="matrix(0.647185,0,0,0.647185,61.6402,-6.74308)">
            <path d="M23.609,78.585L8.49,87.314" style="fill:none;stroke:rgb(90,169,230);stroke-width:3.09px;"/>
        </g>
        <path d="M57.659,78.528L69.016,72.38L69.016,65.596L74.694,62.318L74.694,55.898L63.338,49.432L63.338,36.591L57.659,33.267L57.659,20.335L51.981,17.057L46.303,20.335L46.302,26.801L35.261,33.131L34.946,46.208L23.589,52.665L23.589,59.131L29.259,62.359L23.827,65.732L29.268,68.875L17.911,75.386L29.307,81.784L40.624,75.25L46.401,78.653L51.981,75.386L57.659,78.528Z" style="fill:rgb(239,238,238);stroke:rgb(62,54,63);stroke-width:0.75px;"/>
        <path d="M57.659,78.528L69.016,72.38L69.016,65.596L74.694,62.318L74.694,55.898L63.338,49.432L63.338,36.591L57.659,33.267L57.659,20.335L51.981,17.057L46.303,20.335L46.302,26.801L35.261,33.131L34.946,46.208L23.589,52.665L23.589,59.131L29.259,62.359L23.827,65.732L29.268,68.875L17.911,75.386L29.307,81.784L40.624,75.25L46.401,78.653L51.981,75.386L57.659,78.528Z" style="fill:url(#_Linear1);"/>
        <g id="Landscape" transform="matrix(0.409799,0,0,0.404119,-10.4811,-57.2558)">
            <g>
                <g id="Shaded">
                    <g>
                        <path d="M180.134,280L180.134,296L166.278,288L166.278,272L180.134,280Z" style="fill-opacity:0.4;stroke:black;stroke-width:0.25px;stroke-linecap:butt;stroke-miterlimit:10;"/>
                        <path d="M166.278,320L166.278,336L152.421,328L152.421,312L166.278,320Z" style="fill-opacity:0.4;stroke:black;stroke-width:0.25px;stroke-linecap:butt;stroke-miterlimit:10;"/>
                        <path d="M110.852,304L110.852,320L96.996,312L96.996,296L110.852,304Z" style="fill-opacity:0.4;stroke:black;stroke-width:0.25px;stroke-linecap:butt;stroke-miterlimit:10;"/>
                        <path d="M96.996,280L96.996,296L83.139,288L83.139,272L96.996,280Z" style="fill-opacity:0.4;stroke:black;stroke-width:0.25px;stroke-linecap:butt;stroke-miterlimit:10;"/>
                        <path d="M96.996,328L96.996,344L83.139,336L83.139,320L96.996,328Z" style="fill-opacity:0.4;stroke:black;stroke-width:0.25px;stroke-linecap:butt;stroke-miterlimit:10;"/>
                        <path d="M138.565,320L138.565,336L124.708,328L124.708,312L138.565,320Z" style="fill-opacity:0.4;stroke:black;stroke-width:0.25px;stroke-linecap:butt;stroke-miterlimit:10;"/>
                        <path d="M138.565,304L138.565,320L124.708,312L124.708,296L138.565,304Z" style="fill-opacity:0.4;stroke:black;stroke-width:0.25px;stroke-linecap:butt;stroke-miterlimit:10;"/>
                        <path d="M138.565,288L138.565,304L124.708,296L124.708,280L138.565,288Z" style="fill-opacity:0.4;stroke:black;stroke-width:0.25px;stroke-linecap:butt;stroke-miterlimit:10;"/>
                        <path d="M138.565,272L138.565,288L124.708,280L124.708,264L138.565,272Z" style="fill-opacity:0.4;stroke:black;stroke-width:0.25px;stroke-linecap:butt;stroke-miterlimit:10;"/>
                        <path d="M138.565,256L138.565,272L124.708,264L124.708,248L138.565,256Z" style="fill-opacity:0.4;stroke:black;stroke-width:0.25px;stroke-linecap:butt;stroke-miterlimit:10;"/>
                        <path d="M138.565,240L138.565,256L124.708,248L124.708,232L138.565,240Z" style="fill-opacity:0.4;stroke:black;stroke-width:0.25px;stroke-linecap:butt;stroke-miterlimit:10;"/>
                        <path d="M138.565,224L138.565,240L124.708,232L124.708,216L138.565,224Z" style="fill-opacity:0.4;stroke:black;stroke-width:0.25px;stroke-linecap:butt;stroke-miterlimit:10;"/>
                        <path d="M124.708,232L124.708,248L110.852,240L110.852,224L124.708,232Z" style="fill-opacity:0.4;stroke:black;stroke-width:0.25px;stroke-linecap:butt;stroke-miterlimit:10;"/>
                        <path d="M124.708,248L124.708,264L110.852,256L110.852,240L124.708,248Z" style="fill-opacity:0.4;stroke:black;stroke-width:0.25px;stroke-linecap:butt;stroke-miterlimit:10;"/>
                        <path d="M124.708,264L124.708,280L110.852,272L110.852,256L124.708,264Z" style="fill-opacity:0.4;stroke:black;stroke-width:0.25px;stroke-linecap:butt;stroke-miterlimit:10;"/>
                        <path d="M124.708,280L124.708,296L110.852,288L110.852,272L124.708,280Z" style="fill-opacity:0.4;stroke:black;stroke-width:0.25px;stroke-linecap:butt;stroke-miterlimit:10;"/>
                        <path d="M152.421,200L152.421,216L138.565,208L138.565,192L152.421,200Z" style="fill-opacity:0.4;stroke:black;stroke-width:0.25px;stroke-linecap:butt;stroke-miterlimit:10;"/>
                        <path d="M180.134,296L180.134,312L166.278,304L166.278,288L180.134,296Z" style="fill-opacity:0.4;stroke:black;stroke-width:0.25px;stroke-linecap:butt;stroke-miterlimit:10;"/>
                        <path d="M110.852,272L110.852,288L96.996,280L96.996,264L110.852,272Z" style="fill-opacity:0.4;stroke:black;stroke-width:0.25px;stroke-linecap:butt;stroke-miterlimit:10;"/>
                        <path d="M110.832,288.012L96.975,280.012L96.975,295.989L110.832,288.012Z" style="fill-opacity:0.4;stroke:black;stroke-width:0.49px;stroke-linecap:butt;stroke-miterlimit:10;"/>
                    </g>
                </g>
                <g id="Medium">
                    <g>
                        <path d="M152.421,232L166.278,224L166.278,208L152.421,216L152.421,232Z" style="fill-opacity:0.15;stroke:black;stroke-width:0.49px;stroke-linecap:butt;stroke-miterlimit:10;"/>
                        <path d="M152.421,216L166.278,208L166.278,192L152.421,200L152.421,216Z" style="fill-opacity:0.15;stroke:black;stroke-width:0.49px;stroke-linecap:butt;stroke-miterlimit:10;"/>
                        <path d="M138.565,304L152.421,296L152.421,280L138.565,288L138.565,304Z" style="fill-opacity:0.15;stroke:black;stroke-width:0.49px;stroke-linecap:butt;stroke-miterlimit:10;"/>
                        <path d="M138.565,320L152.421,312L152.421,296L138.565,304L138.565,320Z" style="fill-opacity:0.15;stroke:black;stroke-width:0.49px;stroke-linecap:butt;stroke-miterlimit:10;"/>
                        <path d="M110.852,320L124.708,312L124.708,296L110.852,304L110.852,320Z" style="fill-opacity:0.15;stroke:black;stroke-width:0.49px;stroke-linecap:butt;stroke-miterlimit:10;"/>
                        <path d="M138.565,336L152.421,328L152.421,312L138.565,320L138.565,336Z" style="fill-opacity:0.15;stroke:black;stroke-width:0.49px;stroke-linecap:butt;stroke-miterlimit:10;"/>
                        <path d="M110.852,336L124.708,328L124.708,312L110.852,320L110.852,336Z" style="fill-opacity:0.15;stroke:black;stroke-width:0.49px;stroke-linecap:butt;stroke-miterlimit:10;"/>
                        <path d="M96.996,344L110.852,336L110.852,320L96.996,328L96.996,344Z" style="fill-opacity:0.15;stroke:black;stroke-width:0.49px;stroke-linecap:butt;stroke-miterlimit:10;"/>
                        <path d="M138.565,288L152.421,280L152.421,264L138.565,272L138.565,288Z" style="fill-opacity:0.15;stroke:black;stroke-width:0.49px;stroke-linecap:butt;stroke-miterlimit:10;"/>
                        <path d="M138.565,272L152.421,264L152.421,248L138.565,256L138.565,272Z" style="fill-opacity:0.15;stroke:black;stroke-width:0.49px;stroke-linecap:butt;stroke-miterlimit:10;"/>
                        <path d="M138.565,256L152.421,248L152.421,232L138.565,240L138.565,256Z" style="fill-opacity:0.15;stroke:black;stroke-width:0.49px;stroke-linecap:butt;stroke-miterlimit:10;"/>
                        <path d="M138.565,240L152.421,232L152.421,216L138.565,224L138.565,240Z" style="fill-opacity:0.15;stroke:black;stroke-width:0.49px;stroke-linecap:butt;stroke-miterlimit:10;"/>
                        <path d="M152.421,296L166.278,288L166.278,272L152.421,280L152.421,296Z" style="fill-opacity:0.15;stroke:black;stroke-width:0.49px;stroke-linecap:butt;stroke-miterlimit:10;"/>
                        <path d="M152.421,312L166.278,304L166.278,288L152.421,296L152.421,312Z" style="fill-opacity:0.15;stroke:black;stroke-width:0.49px;stroke-linecap:butt;stroke-miterlimit:10;"/>
                        <path d="M152.421,280L166.278,272L166.278,256L152.421,264L152.421,280Z" style="fill-opacity:0.15;stroke:black;stroke-width:0.49px;stroke-linecap:butt;stroke-miterlimit:10;"/>
                        <path d="M166.278,272L180.134,264L180.134,248L166.278,256L166.278,272Z" style="fill-opacity:0.15;stroke:black;stroke-width:0.49px;stroke-linecap:butt;stroke-miterlimit:10;"/>
                        <path d="M180.134,328L193.991,320L193.991,304L180.134,312L180.134,328Z" style="fill-opacity:0.15;stroke:black;stroke-width:0.49px;stroke-linecap:butt;stroke-miterlimit:10;"/>
                        <path d="M152.421,264L166.278,256L166.278,240L152.421,248L152.421,264Z" style="fill-opacity:0.15;stroke:black;stroke-width:0.49px;stroke-linecap:butt;stroke-miterlimit:10;"/>
                        <path d="M166.278,256L180.134,248L180.134,232L166.278,240L166.278,256Z" style="fill-opacity:0.15;stroke:black;stroke-width:0.49px;stroke-linecap:butt;stroke-miterlimit:10;"/>
                        <path d="M166.278,336L180.134,328L180.134,312L166.278,320L166.278,336Z" style="fill-opacity:0.15;stroke:black;stroke-width:0.49px;stroke-linecap:butt;stroke-miterlimit:10;"/>
                        <path d="M193.991,304L207.847,296L207.847,280L193.991,288L193.991,304Z" style="fill-opacity:0.15;stroke:black;stroke-width:0.49px;stroke-linecap:butt;stroke-miterlimit:10;"/>
                        <path d="M152.421,248L166.278,240L166.278,224L152.421,232L152.421,248Z" style="fill-opacity:0.15;stroke:black;stroke-width:0.49px;stroke-linecap:butt;stroke-miterlimit:10;"/>
                        <path d="M180.134,312L193.991,304L193.991,288L180.134,296L180.134,312Z" style="fill-opacity:0.15;stroke:black;stroke-width:0.49px;stroke-linecap:butt;stroke-miterlimit:10;"/>
                        <path d="M180.134,296L193.991,288L193.991,272L180.134,280L180.134,296Z" style="fill-opacity:0.15;stroke:black;stroke-width:0.49px;stroke-linecap:butt;stroke-miterlimit:10;"/>
                    </g>
                </g>
                <g id="Light">
                    <g>
                        <path d="M152.42,216.001L138.564,208.001L124.708,216.001L138.565,224.001L152.42,216.001Z" style="fill-opacity:0;stroke:black;stroke-width:0.49px;stroke-linecap:butt;stroke-miterlimit:10;"/>
                        <path d="M166.278,192L152.421,184L138.565,192L152.422,200.001L166.278,192Z" style="fill-opacity:0;stroke:black;stroke-width:0.49px;stroke-linecap:butt;stroke-miterlimit:10;"/>
                        <path d="M193.991,272L180.134,264L166.278,272L180.135,280.001L193.991,272Z" style="fill-opacity:0;stroke:black;stroke-width:0.49px;stroke-linecap:butt;stroke-miterlimit:10;"/>
                        <path d="M180.134,312L166.278,304L152.421,312L166.279,320.001L180.134,312Z" style="fill-opacity:0;stroke:black;stroke-width:0.49px;stroke-linecap:butt;stroke-miterlimit:10;"/>
                        <path d="M124.708,296L110.852,288L96.996,296L110.853,304.001L124.708,296Z" style="fill-opacity:0;stroke:black;stroke-width:0.49px;stroke-linecap:butt;stroke-miterlimit:10;"/>
                        <path d="M110.852,320L96.996,312L83.139,320L96.997,328.001L110.852,320Z" style="fill-opacity:0;stroke:black;stroke-width:0.49px;stroke-linecap:butt;stroke-miterlimit:10;"/>
                        <path d="M180.134,232L166.278,224L166.278,239.977L180.134,232Z" style="fill-opacity:0;stroke:black;stroke-width:0.49px;stroke-linecap:butt;stroke-miterlimit:10;"/>
                        <path d="M207.847,280L193.991,272L193.991,287.977L207.847,280Z" style="fill-opacity:0;stroke:black;stroke-width:0.49px;stroke-linecap:butt;stroke-miterlimit:10;"/>
                        <path d="M96.996,264L110.852,272L110.852,256.024L96.996,264Z" style="fill-opacity:0;stroke:black;stroke-width:0.49px;stroke-linecap:butt;stroke-miterlimit:10;"/>
                        <path d="M110.852,224L124.708,232L124.708,216.024L110.852,224Z" style="fill-opacity:0;stroke:black;stroke-width:0.49px;stroke-linecap:butt;stroke-miterlimit:10;"/>
                        <path d="M83.139,272L96.996,280L96.996,264.024L83.139,272Z" style="fill-opacity:0;stroke:black;stroke-width:0.49px;stroke-linecap:butt;stroke-miterlimit:10;"/>
                        <path d="M83.139,304L96.996,312L96.996,296.024L83.139,304Z" style="fill-opacity:0;stroke:black;stroke-width:0.49px;stroke-linecap:butt;stroke-miterlimit:10;"/>
                        <path d="M69.283,328L83.139,336L83.139,320.024L69.283,328Z" style="fill-opacity:0;stroke:black;stroke-width:0.49px;stroke-linecap:butt;stroke-miterlimit:10;"/>
                    </g>
                </g>
            </g>
        </g>
    </g>
    <defs>
        <linearGradient id="_Linear1" x1="0" y1="0" x2="1" y2="0" gradientUnits="userSpaceOnUse" gradientTransform="matrix(-5.67835,42.0283,-42.0283,-5.67835,57.6593,33.267)"><stop offset="0" style="stop-color:rgb(156,137,184);stop-opacity:1"/><stop offset="1" style="stop-color:rgb(254,144,173);stop-opacity:1"/></linearGradient>
    </defs>
</svg>
