<?xml version="1.0" encoding="UTF-8" standalone="no"?>
<!DOCTYPE svg PUBLIC "-//W3C//DTD SVG 1.1//EN" "http://www.w3.org/Graphics/SVG/1.1/DTD/svg11.dtd">
<svg width="100%" height="100%" viewBox="0 0 96 96" version="1.1" xmlns="http://www.w3.org/2000/svg" xmlns:xlink="http://www.w3.org/1999/xlink" xml:space="preserve" xmlns:serif="http://www.serif.com/" style="fill-rule:evenodd;clip-rule:evenodd;stroke-linecap:round;stroke-linejoin:round;stroke-miterlimit:2;">
    <g id="Policy-Compliance" serif:id="Policy Compliance" transform="matrix(1.60626,0,0,1.60626,-28.2567,-30.8314)">
        <g transform="matrix(0.498883,0,0,0.498883,23.6154,25.719)">
            <path d="M50.804,78.953L67.55,69L67.438,64.741L75,69.106L75.057,64.705L89.262,56.465L81.468,51.964L75.057,55.716L75.057,60.125L67.438,55.726L67.738,59.943L50.836,70.157L12.633,48.101L5.2,52.393L50.804,78.953Z" style="fill:rgb(214,87,128);fill-opacity:0.33;"/>
        </g>
        <g transform="matrix(0.498883,0,0,0.498883,23.6154,25.719)">
            <path d="M5.2,43.809L50.836,69.756L67.738,59.943L67.438,55.726L75.057,60.125L75.057,55.726L81.468,51.964L89.009,47.703L81.73,43.5L75.057,46.962L75.057,51.292L67.438,46.893L67.739,51.119L50.836,60.877L12.996,39.076L5.2,43.809Z" style="fill:rgb(251,175,0);fill-opacity:0.66;"/>
        </g>
        <g transform="matrix(0.498883,0,0,0.498883,23.6154,25.719)">
            <path d="M50.796,60.9L67.739,51.119L67.438,46.893L75.057,51.292L75.057,46.962L81.73,43.5L89,38.616L43.37,12.537L5.2,34.575L50.796,60.9Z" style="fill:rgb(255,214,57);"/>
        </g>
        <g transform="matrix(0.508991,0,0,0.508991,-19.5924,-143.782)">
            <path d="M95.401,370.03L132.814,348.43" style="fill:none;stroke:rgb(96,96,96);stroke-width:1.22px;"/>
        </g>
        <g transform="matrix(0.508991,0,0,0.508991,-19.5924,-143.782)">
            <path d="M99.339,372.303L136.751,350.703" style="fill:none;stroke:rgb(96,96,96);stroke-width:0.61px;"/>
        </g>
        <g transform="matrix(0.508991,0,0,0.508991,-19.5924,-143.782)">
            <path d="M103.08,374.463L140.492,352.863" style="fill:none;stroke:rgb(96,96,96);stroke-width:0.61px;"/>
        </g>
        <g transform="matrix(0.508991,0,0,0.508991,-19.5924,-143.782)">
            <path d="M106.821,376.623L144.233,355.023" style="fill:none;stroke:rgb(96,96,96);stroke-width:0.61px;"/>
        </g>
        <g transform="matrix(0.508991,0,0,0.508991,-19.5924,-143.782)">
            <path d="M110.562,378.783L147.975,357.183" style="fill:none;stroke:rgb(96,96,96);stroke-width:0.61px;"/>
        </g>
        <g transform="matrix(0.508991,0,0,0.508991,-19.5924,-143.782)">
            <path d="M114.304,380.943L151.716,359.343" style="fill:none;stroke:rgb(96,96,96);stroke-width:0.61px;"/>
        </g>
        <g transform="matrix(0.508991,0,0,0.508991,-19.5924,-143.782)">
            <path d="M118.045,383.103L155.457,361.503" style="fill:none;stroke:rgb(96,96,96);stroke-width:0.61px;"/>
        </g>
        <g transform="matrix(0.508991,0,0,0.508991,-19.5924,-143.782)">
            <path d="M121.786,385.263L159.198,363.663" style="fill:none;stroke:rgb(96,96,96);stroke-width:0.61px;"/>
        </g>
        <g transform="matrix(0.508991,0,0,0.508991,-19.5924,-143.782)">
            <path d="M125.527,387.423L162.94,365.823" style="fill:none;stroke:rgb(96,96,96);stroke-width:0.61px;"/>
        </g>
        <g transform="matrix(0.508991,0,0,0.508991,-19.5924,-143.782)">
            <path d="M129.269,389.583L166.681,367.983" style="fill:none;stroke:rgb(96,96,96);stroke-width:0.61px;"/>
        </g>
        <g transform="matrix(0.508991,0,0,0.508991,-19.5924,-143.782)">
            <path d="M153.055,380.17L170.422,370.143" style="fill:none;stroke:rgb(96,96,96);stroke-width:0.61px;"/>
        </g>
        <g transform="matrix(0.508991,0,0,0.508991,-19.5924,-143.782)">
            <path d="M104.754,358.15L149.551,384.013" style="fill:none;stroke:rgb(96,96,96);stroke-width:0.61px;"/>
        </g>
        <g transform="matrix(0.508991,0,0,0.508991,-19.5924,-143.782)">
            <path d="M104.754,364.63L144.037,387.31" style="fill:none;stroke:rgb(96,96,96);stroke-width:0.61px;"/>
        </g>
        <g transform="matrix(0.508991,0,0,0.508991,-19.5924,-143.782)">
            <path d="M99.143,370.03L102.884,367.87" style="fill:none;stroke:rgb(96,96,96);stroke-width:1.83px;"/>
        </g>
        <g transform="matrix(0.508991,0,0,0.508991,-19.5924,-143.782)">
            <path d="M103.239,372.395L106.98,370.235" style="fill:none;stroke:rgb(96,96,96);stroke-width:1.83px;"/>
        </g>
        <g transform="matrix(0.508991,0,0,0.508991,-19.5924,-143.782)">
            <path d="M106.98,374.555L112.237,371.52" style="fill:none;stroke:rgb(96,96,96);stroke-width:1.83px;"/>
        </g>
        <g transform="matrix(0.508991,0,0,0.508991,-19.5924,-143.782)">
            <path d="M110.722,376.715L115.978,373.68" style="fill:none;stroke:rgb(96,96,96);stroke-width:1.83px;"/>
        </g>
        <g transform="matrix(0.508991,0,0,0.508991,-19.5924,-143.782)">
            <path d="M114.463,378.875L118.023,376.82" style="fill:none;stroke:rgb(96,96,96);stroke-width:1.83px;"/>
        </g>
        <g transform="matrix(0.508991,0,0,0.508991,-19.5924,-143.782)">
            <path d="M118.204,381.035L121.945,378.875" style="fill:none;stroke:rgb(96,96,96);stroke-width:1.83px;"/>
        </g>
        <g transform="matrix(0.508991,0,0,0.508991,-19.5924,-143.782)">
            <path d="M121.945,383.195L124.124,381.937" style="fill:none;stroke:rgb(96,96,96);stroke-width:1.83px;"/>
        </g>
        <g transform="matrix(0.508991,0,0,0.508991,-19.5924,-143.782)">
            <path d="M125.687,385.355L131.738,381.861" style="fill:none;stroke:rgb(96,96,96);stroke-width:1.83px;"/>
        </g>
        <g transform="matrix(0.508991,0,0,0.508991,-19.5924,-143.782)">
            <path d="M129.427,387.516L135.479,384.021" style="fill:none;stroke:rgb(96,96,96);stroke-width:1.83px;"/>
        </g>
        <g transform="matrix(0.508991,0,0,0.508991,-19.5924,-143.782)">
            <path d="M133.169,389.675L137.783,387.011" style="fill:none;stroke:rgb(96,96,96);stroke-width:1.83px;"/>
        </g>
        <g transform="matrix(0.508991,0,0,0.508991,-19.5924,-143.782)">
            <path d="M127.398,345.303L89.986,366.903" style="fill:none;stroke:rgb(96,96,96);stroke-width:1.22px;"/>
        </g>
        <g transform="matrix(0.508991,0,0,0.508991,-19.5924,-143.782)">
            <path d="M89.986,366.903L134.684,392.71" style="fill:none;stroke:rgb(96,96,96);stroke-width:1.22px;"/>
        </g>
        <g transform="matrix(0.508991,0,0,0.508991,-19.5924,-143.782)">
            <path d="M127.398,345.303L172.097,371.124" style="fill:none;stroke:rgb(96,96,96);stroke-width:1.22px;"/>
        </g>
        <g transform="matrix(0.508991,0,0,0.508991,-19.5924,-143.782)">
            <path d="M133.01,391.744L151.151,381.269" style="fill:none;stroke:rgb(96,96,96);stroke-width:0.61px;"/>
        </g>
        <g transform="matrix(0.547495,0,0,0.547495,-23.0497,-158.254)">
            <path d="M97.076,371.633L89.79,375.84" style="fill:none;stroke:rgb(96,96,96);stroke-width:1.14px;"/>
        </g>
        <g transform="matrix(0.508991,0,0,0.508991,-19.5924,-143.782)">
            <path d="M89.79,375.84L134.488,401.647" style="fill:none;stroke:rgb(96,96,96);stroke-width:1.22px;"/>
        </g>
        <g transform="matrix(0.508991,0,0,0.508991,-19.5924,-143.782)">
            <path d="M172.122,371.124L158.456,379.044L158.456,383.288L150.988,378.976L151.283,383.118L151.274,383.001L134.716,392.728" style="fill:none;stroke:rgb(96,96,96);stroke-width:0.61px;stroke-dasharray:1.22,1.22,0,0;"/>
        </g>
        <g transform="matrix(0.508991,0,0,0.508991,-19.5924,-143.782)">
            <path d="M172.097,379.75L158.456,387.624L158.456,391.945L150.988,387.634L151.282,391.767L151.274,391.658L134.716,401.385" style="fill:none;stroke:rgb(96,96,96);stroke-width:0.61px;stroke-dasharray:1.22,1.22,0,0;"/>
        </g>
        <g transform="matrix(0.385893,-0.141267,-0.141267,0.228412,67.0626,-16.7144)">
            <path d="M149.519,401.685L134.684,410.4L139.267,422.919L121.988,402.625L126.847,414.841L126.797,415.034L108.879,425.56" style="fill:none;stroke:rgb(96,96,96);stroke-width:1.7px;stroke-dasharray:3.39,3.39,0,0;"/>
        </g>
        <g transform="matrix(0.489489,-0.0112585,-0.0112585,0.502491,-11.9608,-139.376)">
            <path d="M172.098,379.79L164.614,375.43" style="fill:none;stroke:rgb(96,96,96);stroke-width:1.28px;"/>
        </g>
        <g transform="matrix(0.470647,-0.00981336,-0.00981336,0.481981,-9.26706,-127.538)">
            <path d="M172.097,379.75L164.614,375.43" style="fill:none;stroke:rgb(96,96,96);stroke-width:1.33px;"/>
        </g>
        <g transform="matrix(0.522683,0,0,0.522683,-20.8219,-149.047)">
            <path d="M97.076,380.273L89.79,384.48" style="fill:none;stroke:rgb(96,96,96);stroke-width:1.19px;"/>
        </g>
        <g transform="matrix(0.508991,0,0,0.508991,-19.5924,-143.782)">
            <path d="M89.79,384.48L134.684,410.4" style="fill:none;stroke:rgb(96,96,96);stroke-width:1.22px;"/>
        </g>
    </g>
</svg>
