<?xml version="1.0" encoding="UTF-8" standalone="no"?>
<!DOCTYPE svg PUBLIC "-//W3C//DTD SVG 1.1//EN" "http://www.w3.org/Graphics/SVG/1.1/DTD/svg11.dtd">
<svg width="100%" height="100%" viewBox="0 0 96 96" version="1.1" xmlns="http://www.w3.org/2000/svg" xmlns:xlink="http://www.w3.org/1999/xlink" xml:space="preserve" xmlns:serif="http://www.serif.com/" style="fill-rule:evenodd;clip-rule:evenodd;stroke-linecap:round;stroke-linejoin:round;stroke-miterlimit:1.5;">
    <g transform="matrix(1,0,0,1,-444.99,-469.347)">
        <path d="M475.547,494.129C475.547,494.129 471.727,491.924 468.951,490.321C467.198,489.309 465.04,489.303 463.282,490.306C462.8,490.581 462.277,490.88 461.73,491.192C456.053,494.431 452.548,500.465 452.548,507L452.548,507.001" style="fill:white;stroke:rgb(96,96,96);stroke-width:1px;"/>
    </g>
    <g transform="matrix(1,0,0,1,-453.365,-492.722)">
        <path d="M495.607,573.551C496.966,574.332 498.639,574.331 499.997,573.547C507.153,569.415 529.914,556.274 539.664,550.646C542.45,549.037 544.166,546.064 544.166,542.847L544.166,529.948C544.166,528.89 543.601,527.912 542.685,527.383C537.148,524.186 517.533,512.862 508.89,507.872C506.327,506.392 503.169,506.392 500.606,507.872C491.362,513.209 469.244,525.979 461.39,530.513C459.642,531.523 458.565,533.388 458.565,535.407L458.565,550.236C458.565,551.481 459.23,552.631 460.31,553.252C466.665,556.906 488.569,569.503 495.607,573.551Z" style="fill:white;stroke:rgb(96,96,96);stroke-width:1.5px;"/>
    </g>
    <g transform="matrix(1,0,0,1,-453.365,-492.722)">
        <path d="M500.67,573.159C500.67,573.159 500.412,573.307 500.009,573.54C499.008,574.118 497.776,574.118 496.776,573.54C495.776,572.963 495.16,571.896 495.16,570.741L495.16,558.484C495.16,555.218 496.903,552.2 499.731,550.567C508.879,545.285 529.385,533.446 539.034,527.875C540.104,527.257 541.424,527.259 542.493,527.88C543.562,528.5 544.218,529.645 544.212,530.882C544.191,535.339 544.166,540.645 544.166,540.645" style="fill:none;stroke:rgb(96,96,96);stroke-opacity:0.75;stroke-width:0.75px;"/>
    </g>
    <g transform="matrix(1,0,0,1,-453.365,-492.722)">
        <path d="M486.917,556.657C486.921,556.455 486.815,556.267 486.641,556.166C484.521,554.943 471.156,547.226 468.483,545.683C468.387,545.627 468.269,545.627 468.173,545.683C468.077,545.738 468.018,545.841 468.018,545.951L468.018,546.182C468.018,546.402 468.135,546.606 468.326,546.716C470.488,547.964 483.385,555.41 486.311,557.1C486.434,557.171 486.586,557.172 486.71,557.102C486.834,557.032 486.912,556.902 486.915,556.759C486.916,556.724 486.917,556.69 486.917,556.657Z" style="fill:none;stroke:rgb(96,96,96);stroke-width:0.25px;"/>
    </g>
    <g transform="matrix(1,0,0,1,-453.365,-490.814)">
        <path d="M486.917,556.657C486.921,556.455 486.815,556.267 486.641,556.166C484.521,554.943 471.156,547.226 468.483,545.683C468.387,545.627 468.269,545.627 468.173,545.683C468.077,545.738 468.018,545.841 468.018,545.951L468.018,546.182C468.018,546.402 468.135,546.606 468.326,546.716C470.488,547.964 483.385,555.41 486.311,557.1C486.434,557.171 486.586,557.172 486.71,557.102C486.834,557.032 486.912,556.902 486.915,556.759C486.916,556.724 486.917,556.69 486.917,556.657Z" style="fill:none;stroke:rgb(96,96,96);stroke-width:0.25px;"/>
    </g>
    <g transform="matrix(1,0,0,1,-453.365,-488.906)">
        <path d="M486.917,556.657C486.921,556.455 486.815,556.267 486.641,556.166C484.521,554.943 471.156,547.226 468.483,545.683C468.387,545.627 468.269,545.627 468.173,545.683C468.077,545.738 468.018,545.841 468.018,545.951L468.018,546.182C468.018,546.402 468.135,546.606 468.326,546.716C470.488,547.964 483.385,555.41 486.311,557.1C486.434,557.171 486.586,557.172 486.71,557.102C486.834,557.032 486.912,556.902 486.915,556.759C486.916,556.724 486.917,556.69 486.917,556.657Z" style="fill:none;stroke:rgb(96,96,96);stroke-width:0.25px;"/>
    </g>
    <g transform="matrix(1,0,0,1,-453.365,-486.997)">
        <path d="M486.917,556.657C486.921,556.455 486.815,556.267 486.641,556.166C484.521,554.943 471.156,547.226 468.483,545.683C468.387,545.627 468.269,545.627 468.173,545.683C468.077,545.738 468.018,545.841 468.018,545.951L468.018,546.182C468.018,546.402 468.135,546.606 468.326,546.716C470.488,547.964 483.385,555.41 486.311,557.1C486.434,557.171 486.586,557.172 486.71,557.102C486.834,557.032 486.912,556.902 486.915,556.759C486.916,556.724 486.917,556.69 486.917,556.657Z" style="fill:none;stroke:rgb(96,96,96);stroke-width:0.25px;"/>
    </g>
</svg>
