<?xml version="1.0" encoding="UTF-8" standalone="no"?>
<!DOCTYPE svg PUBLIC "-//W3C//DTD SVG 1.1//EN" "http://www.w3.org/Graphics/SVG/1.1/DTD/svg11.dtd">
<svg width="100%" height="100%" viewBox="0 0 96 96" version="1.1" xmlns="http://www.w3.org/2000/svg" xmlns:xlink="http://www.w3.org/1999/xlink" xml:space="preserve" xmlns:serif="http://www.serif.com/" style="fill-rule:evenodd;clip-rule:evenodd;stroke-linecap:round;stroke-linejoin:round;stroke-miterlimit:1.5;">
    <g id="Urban-economic-modeling" serif:id="Urban economic modeling" transform="matrix(0.136873,0,0,0.136873,10.2878,10.7908)">
        <g id="cycling" transform="matrix(1.75734,0,0,1.75734,457.451,-76.9859)">
            <g transform="matrix(5.74318,-0.513011,0.503518,5.6369,-436.542,-10.721)">
                <g transform="matrix(0.718164,0.0653598,-0.0641503,0.731704,22.9053,3.79957)">
                    <path d="M68.289,25.382L70.756,25.874L69.67,23.605C69.769,24.395 69.079,25.283 68.289,25.382Z" style="fill:rgb(62,54,63);"/>
                    <path d="M14.976,52.766L13.994,55.082L12.73,52.907C13.327,53.433 14.45,53.363 14.976,52.766Z" style="fill:rgb(62,54,63);"/>
                    <path d="M69.335,24.77C62.516,19.749 54.019,17.371 45.472,18.135C27.029,19.782 13.234,35.331 13.881,53.286" style="fill:none;stroke:rgb(62,54,63);stroke-width:0.75px;stroke-dasharray:1.5,1.5,0,0;"/>
                </g>
            </g>
            <g transform="matrix(-3.11283,-0.951394,0.796749,-2.60685,-26.7633,421.585)">
                <g transform="matrix(-1.22148,0.445792,-0.373331,-1.45857,119.136,118.647)">
                    <path d="M19.987,69.169L17.752,68.015L18.169,70.495C18.292,69.709 19.201,69.046 19.987,69.169Z" style="fill:rgb(62,54,63);"/>
                    <path d="M56.411,74.824L58.811,74.073L57.972,76.444C57.987,75.649 57.206,74.839 56.411,74.824Z" style="fill:rgb(62,54,63);"/>
                    <path d="M18.813,69.469C21.976,73.413 28.263,78.568 34.891,80.034C42.564,81.731 53.303,78.532 57.515,75.322" style="fill:none;stroke:rgb(62,54,63);stroke-width:0.75px;stroke-dasharray:1.5,1.5,0,0;"/>
                </g>
            </g>
            <g transform="matrix(4.15745,0,0,4.15745,-274.276,82.0952)">
                <path d="M41.569,72L76.21,52L41.569,32L6.928,52L41.569,72Z" style="fill:none;stroke:rgb(62,54,63);stroke-width:0.5px;stroke-dasharray:1,1,0,0;"/>
            </g>
            <g transform="matrix(4.15745,0,0,4.15745,-274.276,-84.2029)">
                <path d="M41.569,72L76.21,52L41.569,32L6.928,52L41.569,72Z" style="fill:none;stroke:rgb(62,54,63);stroke-width:0.5px;stroke-dasharray:1,1,0,0;"/>
            </g>
            <g transform="matrix(4.15745,0,0,4.15745,-303.08,32.2058)">
                <path d="M83.138,24L83.138,64" style="fill:none;stroke:rgb(62,54,63);stroke-width:0.5px;stroke-dasharray:1,1,0,0;"/>
            </g>
            <g transform="matrix(4.15745,0,0,4.15745,-303.08,32.2058)">
                <path d="M13.856,24L13.856,64" style="fill:none;stroke:rgb(62,54,63);stroke-width:0.5px;stroke-dasharray:1,1,0,0;"/>
            </g>
            <g transform="matrix(4.15745,0,0,4.15745,-303.08,-1.05385)">
                <path d="M31.177,82L31.177,42" style="fill:none;stroke:rgb(62,54,63);stroke-opacity:0.4;stroke-width:0.25px;stroke-dasharray:0.5,0.5,0,0;"/>
            </g>
            <g transform="matrix(4.15745,0,0,4.15745,-303.08,-1.05385)">
                <path d="M31.177,42L65.818,22" style="fill:none;stroke:rgb(62,54,63);stroke-opacity:0.4;stroke-width:0.25px;stroke-dasharray:0.5,0.5,0,0;"/>
            </g>
            <g transform="matrix(4.15745,0,0,4.15745,-303.08,-1.05385)">
                <path d="M31.177,82L65.818,62" style="fill:none;stroke:rgb(62,54,63);stroke-opacity:0.4;stroke-width:0.25px;stroke-dasharray:0.5,0.5,0,0;"/>
            </g>
            <g transform="matrix(4.15745,0,0,4.15745,-303.08,-1.05385)">
                <path d="M65.818,22L65.818,62" style="fill:none;stroke:rgb(62,54,63);stroke-opacity:0.4;stroke-width:0.25px;stroke-dasharray:0.5,0.5,0,0;"/>
            </g>
            <g transform="matrix(7.27554,1.80023,1.80023,5.19682,-439.897,-80.0455)">
                <path d="M48.497,32L31.177,22" style="fill:none;stroke:rgb(62,54,63);stroke-opacity:0.4;stroke-width:0.13px;stroke-dasharray:0.26,0.26,0,0;"/>
            </g>
            <g transform="matrix(4.15745,0,0,4.15745,-303.08,-1.05385)">
                <path d="M65.818,42L65.818,82" style="fill:none;stroke:rgb(62,54,63);stroke-opacity:0.4;stroke-width:0.25px;stroke-dasharray:0.5,0.5,0,0;"/>
            </g>
            <g transform="matrix(4.15745,0,0,4.15745,-303.08,-1.05385)">
                <path d="M31.177,22L31.177,62" style="fill:none;stroke:rgb(62,54,63);stroke-opacity:0.4;stroke-width:0.25px;stroke-dasharray:0.5,0.5,0,0;"/>
            </g>
            <g transform="matrix(4.15745,0,0,4.15745,-303.08,-1.05385)">
                <path d="M65.818,82L31.177,62" style="fill:none;stroke:rgb(62,54,63);stroke-opacity:0.4;stroke-width:0.25px;stroke-dasharray:0.5,0.5,0,0;"/>
            </g>
            <g transform="matrix(4.15745,0,0,4.15745,-303.08,-1.05385)">
                <path d="M48.497,52L48.497,92" style="fill:none;stroke:rgb(62,54,63);stroke-opacity:0.4;stroke-width:0.25px;stroke-dasharray:0.5,0.5,0,0;"/>
            </g>
            <g transform="matrix(4.15745,0,0,4.15745,-303.08,-1.05385)">
                <path d="M48.497,32L48.497,72" style="fill:none;"/>
            </g>
            <g transform="matrix(4.15745,0,0,4.15745,-303.08,-1.05385)">
                <path d="M77.461,41.173L76.092,39.062L75.225,41.424C75.721,40.802 76.839,40.677 77.461,41.173Z" style="fill:rgb(62,54,63);"/>
                <path d="M67.126,54.284L64.717,53.562L66.74,52.068C66.283,52.719 66.476,53.827 67.126,54.284Z" style="fill:rgb(62,54,63);"/>
                <path d="M76.293,40.851C76.443,44.198 75.626,51.251 66.49,53.253" style="fill:none;stroke:rgb(62,54,63);stroke-width:0.75px;stroke-dasharray:1.5,1.5,0,0;"/>
            </g>
            <g transform="matrix(4.15745,0,0,4.15745,-303.08,-1.05385)">
                <path d="M38.906,31.039L38.467,28.562L36.749,30.4C37.448,30.021 38.527,30.34 38.906,31.039Z" style="fill:rgb(62,54,63);"/>
                <path d="M39.914,34.965L41.092,37.187L38.607,36.796C39.391,36.665 40.045,35.749 39.914,34.965Z" style="fill:rgb(62,54,63);"/>
                <path d="M37.955,30.288C37.655,31.89 37.656,34.298 39.627,36.142" style="fill:none;stroke:rgb(62,54,63);stroke-width:0.75px;stroke-dasharray:1.5,1.5,0,0;"/>
            </g>
            <g transform="matrix(4.15745,0,0,4.15745,-303.08,-1.05385)">
                <path d="M66.861,66.424L66.967,68.937L68.914,67.345C68.17,67.628 67.144,67.168 66.861,66.424Z" style="fill:rgb(62,54,63);"/>
                <path d="M66.523,60.695L65.717,58.312L68.107,59.097C67.311,59.101 66.519,59.9 66.523,60.695Z" style="fill:rgb(62,54,63);"/>
                <path d="M67.703,67.295C68.39,65.395 69.032,62.192 66.995,59.58" style="fill:none;stroke:rgb(62,54,63);stroke-width:0.75px;stroke-dasharray:1.5,1.5,0,0;"/>
            </g>
            <g transform="matrix(4.15745,0,0,4.15745,-303.08,-1.05385)">
                <path d="M27.712,51.172L26.342,49.062L25.476,51.424C25.972,50.802 27.09,50.676 27.712,51.172Z" style="fill:rgb(62,54,63);"/>
                <path d="M30.026,52.704L32.342,53.687L30.166,54.95C30.692,54.353 30.623,53.231 30.026,52.704Z" style="fill:rgb(62,54,63);"/>
                <path d="M26.543,50.851C26.912,52.141 27.907,53.677 30.545,53.799" style="fill:none;stroke:rgb(62,54,63);stroke-width:0.75px;stroke-dasharray:1.5,1.5,0,0;"/>
            </g>
        </g>
        <g id="polyhedron" transform="matrix(1,0,0,0.937601,0,27.9007)">
            <g id="shading" transform="matrix(7.30605,0,0,7.30605,-75.1633,-78.8378)">
                <path d="M48.497,66.597L59.747,50.791L37.214,50.95L48.497,66.597Z" style="fill:rgb(62,54,63);fill-opacity:0.8;"/>
                <path d="M59.747,50.791L62.73,39.918L48.525,35.132L59.747,50.791Z" style="fill:rgb(62,54,63);fill-opacity:0.5;"/>
                <path d="M59.747,50.791L48.525,35.132L37.214,50.95L59.747,50.791Z" style="fill:rgb(62,54,63);fill-opacity:0.6;"/>
                <path d="M37.214,50.95L48.525,35.132L34.782,39.918L37.214,50.95Z" style="fill:rgb(62,54,63);fill-opacity:0.7;"/>
                <path d="M37.214,50.95L34.508,63.56L34.782,39.918L37.214,50.95Z" style="fill:rgb(62,54,63);fill-opacity:0.8;"/>
                <path d="M62.456,63.56L62.73,39.918L59.747,50.791L62.456,63.56Z" style="fill:rgb(62,54,63);fill-opacity:0.6;"/>
                <path d="M48.497,66.597L59.747,50.791L62.456,63.56L48.497,66.597Z" style="fill:rgb(62,54,63);fill-opacity:0.7;"/>
                <path d="M48.497,66.597L37.214,50.95L34.508,63.56L48.497,66.597Z" style="fill:rgb(62,54,63);"/>
                <path d="M48.482,71.991L62.456,63.56L48.497,66.597L48.482,71.991Z" style="fill:rgb(62,54,63);fill-opacity:0.7;"/>
                <path d="M48.497,66.597L34.508,63.56L48.482,71.991L48.497,66.597Z" style="fill:rgb(62,54,63);fill-opacity:0.9;"/>
            </g>
            <g id="lines" transform="matrix(7.30605,0,0,7.79229,-75.1633,-113.842)">
                <g transform="matrix(1,0,0,0.937601,0,6.20995)">
                    <path d="M59.747,48.958L48.497,33.309" style="fill:none;stroke:black;stroke-width:0.26px;"/>
                </g>
                <g transform="matrix(1,0,0,0.937601,0,6.20995)">
                    <path d="M37.186,49.101L48.482,33.3" style="fill:none;stroke:black;stroke-width:0.26px;"/>
                </g>
                <g transform="matrix(1,0,0,0.937601,0,4.49218)">
                    <path d="M34.782,39.918L34.508,63.56" style="fill:none;stroke:black;stroke-width:0.26px;"/>
                </g>
                <g transform="matrix(1.29252,0,0,1.21187,-14.159,-29.0968)">
                    <path d="M48.497,54.898L59.488,58.601L57.179,67.013L39.747,67.136L37.865,58.601L48.497,54.898" style="fill:none;stroke:black;stroke-width:0.2px;"/>
                </g>
                <g transform="matrix(1,0,0,0.937601,0,4.49218)">
                    <path d="M59.747,50.791L48.497,66.597" style="fill:none;stroke:black;stroke-width:0.26px;"/>
                </g>
                <g transform="matrix(1,0,0,0.937601,0,4.49218)">
                    <path d="M37.394,51.053L48.497,66.597" style="fill:none;stroke:black;stroke-width:0.26px;"/>
                </g>
                <g transform="matrix(1,0,0,0.937601,0,4.49218)">
                    <path d="M59.747,50.791L62.456,63.56" style="fill:none;stroke:black;stroke-width:0.26px;"/>
                </g>
                <g transform="matrix(1,0,0,0.937601,0,4.49218)">
                    <path d="M37.214,50.95L34.508,63.56" style="fill:none;stroke:black;stroke-width:0.26px;"/>
                </g>
                <g transform="matrix(1,0,0,0.937601,0,4.49218)">
                    <path d="M62.73,39.918L62.456,63.56" style="fill:none;stroke:black;stroke-width:0.26px;"/>
                </g>
                <g transform="matrix(1,0,0,0.937601,0,4.49218)">
                    <path d="M62.456,63.56L48.497,66.597" style="fill:none;stroke:black;stroke-width:0.26px;"/>
                </g>
                <g transform="matrix(1,0,0,0.937601,0,4.49218)">
                    <path d="M34.508,63.56L48.497,66.597" style="fill:none;stroke:black;stroke-width:0.26px;"/>
                </g>
                <g transform="matrix(1,0,0,0.937601,0,4.49218)">
                    <path d="M48.497,66.597L48.482,71.991" style="fill:none;stroke:black;stroke-width:0.26px;"/>
                </g>
                <g transform="matrix(1,0,0,0.937601,0,4.49218)">
                    <path d="M48.482,71.991L62.456,63.56" style="fill:none;stroke:black;stroke-width:0.26px;"/>
                </g>
                <g transform="matrix(1,0,0,0.937601,0,4.49218)">
                    <path d="M34.508,63.56L48.482,71.991" style="fill:none;stroke:black;stroke-width:0.26px;"/>
                </g>
            </g>
        </g>
        <g id="Orb" transform="matrix(1.45373,0,0,1.45373,252.78,-2384.28)">
            <g>
                <path d="M145.492,1721.63C160.442,1721.63 172.58,1733.77 172.58,1748.72C172.58,1763.67 160.442,1775.81 145.492,1775.81C130.542,1775.81 118.405,1763.67 118.405,1748.72C118.405,1733.77 130.542,1721.63 145.492,1721.63Z" style="fill:rgb(62,54,63);fill-opacity:0.4;stroke:rgb(62,54,63);stroke-width:2.51px;stroke-linecap:butt;stroke-miterlimit:2;"/>
                <path d="M128.691,1728.97C125.779,1733.17 124.072,1738.27 124.072,1743.76C124.072,1758.09 135.713,1769.74 150.051,1769.74C156.195,1769.74 161.844,1767.6 166.293,1764.03C161.571,1769.58 154.535,1773.1 146.682,1773.1C132.478,1773.1 120.946,1761.57 120.946,1747.37C120.946,1740.16 123.913,1733.65 128.691,1728.97Z" style="fill:rgb(62,54,63);fill-opacity:0.4;"/>
                <path d="M133.761,1725.23C131.774,1728.89 130.645,1733.08 130.645,1737.54C130.645,1751.81 142.231,1763.39 156.501,1763.39C160.979,1763.39 165.193,1762.25 168.866,1760.24C168.024,1761.69 167.044,1763.05 165.943,1764.3C161.548,1767.71 156.035,1769.74 150.051,1769.74C135.713,1769.74 124.072,1758.09 124.072,1743.76C124.072,1738.46 125.663,1733.52 128.393,1729.41C129.984,1727.79 131.789,1726.38 133.761,1725.23Z" style="fill:rgb(62,54,63);fill-opacity:0.4;"/>
                <path d="M156.138,1729.15C158.34,1729.15 161.622,1731.4 163.464,1734.17C165.305,1736.94 165.013,1739.19 162.811,1739.19C160.609,1739.19 157.327,1736.94 155.485,1734.17C153.644,1731.4 153.936,1729.15 156.138,1729.15Z" style="fill:rgb(62,54,63);fill-opacity:0.4;"/>
            </g>
        </g>
        <g id="Orb1" serif:id="Orb" transform="matrix(0.864207,0,0,0.864207,-8.95744,-1267.99)">
            <g>
                <path d="M145.492,1721.63C160.442,1721.63 172.58,1733.77 172.58,1748.72C172.58,1763.67 160.442,1775.81 145.492,1775.81C130.542,1775.81 118.405,1763.67 118.405,1748.72C118.405,1733.77 130.542,1721.63 145.492,1721.63Z" style="fill:rgb(62,54,63);fill-opacity:0.4;stroke:rgb(62,54,63);stroke-width:4.23px;stroke-linecap:butt;stroke-miterlimit:2;"/>
                <path d="M128.691,1728.97C125.779,1733.17 124.072,1738.27 124.072,1743.76C124.072,1758.09 135.713,1769.74 150.051,1769.74C156.195,1769.74 161.844,1767.6 166.293,1764.03C161.571,1769.58 154.535,1773.1 146.682,1773.1C132.478,1773.1 120.946,1761.57 120.946,1747.37C120.946,1740.16 123.913,1733.65 128.691,1728.97Z" style="fill:rgb(62,54,63);fill-opacity:0.4;"/>
                <path d="M133.761,1725.23C131.774,1728.89 130.645,1733.08 130.645,1737.54C130.645,1751.81 142.231,1763.39 156.501,1763.39C160.979,1763.39 165.193,1762.25 168.866,1760.24C168.024,1761.69 167.044,1763.05 165.943,1764.3C161.548,1767.71 156.035,1769.74 150.051,1769.74C135.713,1769.74 124.072,1758.09 124.072,1743.76C124.072,1738.46 125.663,1733.52 128.393,1729.41C129.984,1727.79 131.789,1726.38 133.761,1725.23Z" style="fill:rgb(62,54,63);fill-opacity:0.4;"/>
                <path d="M156.138,1729.15C158.34,1729.15 161.622,1731.4 163.464,1734.17C165.305,1736.94 165.013,1739.19 162.811,1739.19C160.609,1739.19 157.327,1736.94 155.485,1734.17C153.644,1731.4 153.936,1729.15 156.138,1729.15Z" style="fill:rgb(62,54,63);fill-opacity:0.4;"/>
            </g>
        </g>
        <g id="Orb2" serif:id="Orb" transform="matrix(1.31578,0,0,1.31578,45.3387,-2207.08)">
            <g>
                <path d="M145.492,1721.63C160.442,1721.63 172.58,1733.77 172.58,1748.72C172.58,1763.67 160.442,1775.81 145.492,1775.81C130.542,1775.81 118.405,1763.67 118.405,1748.72C118.405,1733.77 130.542,1721.63 145.492,1721.63Z" style="fill:rgb(62,54,63);fill-opacity:0.4;stroke:rgb(62,54,63);stroke-width:2.78px;stroke-linecap:butt;stroke-miterlimit:2;"/>
                <path d="M128.691,1728.97C125.779,1733.17 124.072,1738.27 124.072,1743.76C124.072,1758.09 135.713,1769.74 150.051,1769.74C156.195,1769.74 161.844,1767.6 166.293,1764.03C161.571,1769.58 154.535,1773.1 146.682,1773.1C132.478,1773.1 120.946,1761.57 120.946,1747.37C120.946,1740.16 123.913,1733.65 128.691,1728.97Z" style="fill:rgb(62,54,63);fill-opacity:0.4;"/>
                <path d="M133.761,1725.23C131.774,1728.89 130.645,1733.08 130.645,1737.54C130.645,1751.81 142.231,1763.39 156.501,1763.39C160.979,1763.39 165.193,1762.25 168.866,1760.24C168.024,1761.69 167.044,1763.05 165.943,1764.3C161.548,1767.71 156.035,1769.74 150.051,1769.74C135.713,1769.74 124.072,1758.09 124.072,1743.76C124.072,1738.46 125.663,1733.52 128.393,1729.41C129.984,1727.79 131.789,1726.38 133.761,1725.23Z" style="fill:rgb(62,54,63);fill-opacity:0.4;"/>
                <path d="M156.138,1729.15C158.34,1729.15 161.622,1731.4 163.464,1734.17C165.305,1736.94 165.013,1739.19 162.811,1739.19C160.609,1739.19 157.327,1736.94 155.485,1734.17C153.644,1731.4 153.936,1729.15 156.138,1729.15Z" style="fill:rgb(62,54,63);fill-opacity:0.4;"/>
            </g>
        </g>
        <g id="Orb3" serif:id="Orb" transform="matrix(0.695137,0,0,0.695137,281.412,-771.407)">
            <g>
                <path d="M145.492,1721.63C160.442,1721.63 172.58,1733.77 172.58,1748.72C172.58,1763.67 160.442,1775.81 145.492,1775.81C130.542,1775.81 118.405,1763.67 118.405,1748.72C118.405,1733.77 130.542,1721.63 145.492,1721.63Z" style="fill:rgb(62,54,63);fill-opacity:0.4;stroke:rgb(62,54,63);stroke-width:5.26px;stroke-linecap:butt;stroke-miterlimit:2;"/>
                <path d="M128.691,1728.97C125.779,1733.17 124.072,1738.27 124.072,1743.76C124.072,1758.09 135.713,1769.74 150.051,1769.74C156.195,1769.74 161.844,1767.6 166.293,1764.03C161.571,1769.58 154.535,1773.1 146.682,1773.1C132.478,1773.1 120.946,1761.57 120.946,1747.37C120.946,1740.16 123.913,1733.65 128.691,1728.97Z" style="fill:rgb(62,54,63);fill-opacity:0.4;"/>
                <path d="M133.761,1725.23C131.774,1728.89 130.645,1733.08 130.645,1737.54C130.645,1751.81 142.231,1763.39 156.501,1763.39C160.979,1763.39 165.193,1762.25 168.866,1760.24C168.024,1761.69 167.044,1763.05 165.943,1764.3C161.548,1767.71 156.035,1769.74 150.051,1769.74C135.713,1769.74 124.072,1758.09 124.072,1743.76C124.072,1738.46 125.663,1733.52 128.393,1729.41C129.984,1727.79 131.789,1726.38 133.761,1725.23Z" style="fill:rgb(62,54,63);fill-opacity:0.4;"/>
                <path d="M156.138,1729.15C158.34,1729.15 161.622,1731.4 163.464,1734.17C165.305,1736.94 165.013,1739.19 162.811,1739.19C160.609,1739.19 157.327,1736.94 155.485,1734.17C153.644,1731.4 153.936,1729.15 156.138,1729.15Z" style="fill:rgb(62,54,63);fill-opacity:0.4;"/>
            </g>
        </g>
        <g id="Orb4" serif:id="Orb" transform="matrix(1.45373,0,0,1.45373,-177.364,-2172.4)">
            <g>
                <path d="M145.492,1721.63C160.442,1721.63 172.58,1733.77 172.58,1748.72C172.58,1763.67 160.442,1775.81 145.492,1775.81C130.542,1775.81 118.405,1763.67 118.405,1748.72C118.405,1733.77 130.542,1721.63 145.492,1721.63Z" style="fill:rgb(62,54,63);fill-opacity:0.4;stroke:rgb(62,54,63);stroke-width:2.51px;stroke-linecap:butt;stroke-miterlimit:2;"/>
                <path d="M128.691,1728.97C125.779,1733.17 124.072,1738.27 124.072,1743.76C124.072,1758.09 135.713,1769.74 150.051,1769.74C156.195,1769.74 161.844,1767.6 166.293,1764.03C161.571,1769.58 154.535,1773.1 146.682,1773.1C132.478,1773.1 120.946,1761.57 120.946,1747.37C120.946,1740.16 123.913,1733.65 128.691,1728.97Z" style="fill:rgb(62,54,63);fill-opacity:0.4;"/>
                <path d="M133.761,1725.23C131.774,1728.89 130.645,1733.08 130.645,1737.54C130.645,1751.81 142.231,1763.39 156.501,1763.39C160.979,1763.39 165.193,1762.25 168.866,1760.24C168.024,1761.69 167.044,1763.05 165.943,1764.3C161.548,1767.71 156.035,1769.74 150.051,1769.74C135.713,1769.74 124.072,1758.09 124.072,1743.76C124.072,1738.46 125.663,1733.52 128.393,1729.41C129.984,1727.79 131.789,1726.38 133.761,1725.23Z" style="fill:rgb(62,54,63);fill-opacity:0.4;"/>
                <path d="M156.138,1729.15C158.34,1729.15 161.622,1731.4 163.464,1734.17C165.305,1736.94 165.013,1739.19 162.811,1739.19C160.609,1739.19 157.327,1736.94 155.485,1734.17C153.644,1731.4 153.936,1729.15 156.138,1729.15Z" style="fill:rgb(62,54,63);fill-opacity:0.4;"/>
            </g>
        </g>
    </g>
</svg>
