<?xml version="1.0" encoding="UTF-8" standalone="no"?>
<!DOCTYPE svg PUBLIC "-//W3C//DTD SVG 1.1//EN" "http://www.w3.org/Graphics/SVG/1.1/DTD/svg11.dtd">
<svg width="100%" height="100%" viewBox="0 0 96 96" version="1.1" xmlns="http://www.w3.org/2000/svg" xmlns:xlink="http://www.w3.org/1999/xlink" xml:space="preserve" xmlns:serif="http://www.serif.com/" style="fill-rule:evenodd;clip-rule:evenodd;stroke-linecap:round;stroke-linejoin:round;stroke-miterlimit:1.5;">
    <g id="Zoned-Capacity" serif:id="Zoned Capacity">
        <g id="Lines">
            <g transform="matrix(0.659826,0.1964,0.1964,0.886609,-1.95067,1.12622)">
                <path d="M31.177,60L27.713,62" style="fill:none;stroke:rgb(90,169,230);stroke-width:0.51px;"/>
            </g>
            <g transform="matrix(0.659826,0.1964,0.1964,0.886609,-1.95067,-36.8584)">
                <path d="M31.177,60L27.713,62" style="fill:none;stroke:rgb(90,169,230);stroke-width:0.51px;"/>
            </g>
            <g transform="matrix(0.837025,-0.0940939,-0.0940939,0.945675,10.9149,6.30172)">
                <path d="M27.713,60L31.177,62" style="fill:none;stroke:rgb(90,169,230);stroke-width:0.63px;"/>
            </g>
            <g transform="matrix(0.837025,-0.0940939,-0.0940939,0.945675,10.9149,-31.6829)">
                <path d="M27.713,60L31.177,62" style="fill:none;stroke:rgb(90,169,230);stroke-width:0.63px;"/>
            </g>
            <g transform="matrix(0.760012,0,0,0.760012,16.835,9.07892)">
                <path d="M20.785,70.737C20.785,70.737 13.551,75.142 9.75,77.458C9.273,77.748 8.985,78.267 8.992,78.825C8.999,79.382 9.299,79.895 9.781,80.173C17.124,84.413 39.947,97.59 47.961,102.216C49.703,103.222 51.85,103.222 53.592,102.216C60.543,98.203 78.418,87.883 84.872,84.157C85.36,83.875 85.661,83.354 85.661,82.79C85.661,82.226 85.36,81.704 84.872,81.422C80.429,78.857 71.287,73.579 71.287,73.579" style="fill:none;stroke:rgb(90,169,230);stroke-width:2.63px;"/>
            </g>
            <g transform="matrix(0.760012,0,0,0.760012,16.835,8.11896)">
                <path d="M48.497,88L48.497,78L20.785,62L20.785,72L48.497,88Z" style="fill:none;stroke:rgb(62,54,63);stroke-width:0.66px;"/>
            </g>
            <g transform="matrix(1.15,0.0866025,0.0866025,1.05,-17.6669,-10.2)">
                <path d="M65.818,70L74.478,75" style="fill:none;stroke:rgb(90,169,230);stroke-width:0.42px;"/>
            </g>
            <g transform="matrix(1.1875,-0.108253,-0.108253,1.0625,1.29904,-0.75)">
                <path d="M35.877,75.286L43.301,71" style="fill:none;stroke:rgb(90,169,230);stroke-width:0.49px;"/>
            </g>
            <path d="M29.445,61L29.445,23" style="fill:none;stroke:rgb(90,169,230);stroke-width:0.5px;"/>
            <g transform="matrix(0.5,0,0,0.5,21.6506,35.5)">
                <path d="M31.177,80L27.713,80L27.713,78" style="fill:none;stroke:rgb(90,169,230);stroke-width:1px;"/>
            </g>
            <g transform="matrix(0.5,0,0,0.5,54.1266,32.25)">
                <path d="M38.105,86L41.569,86L41.569,84" style="fill:none;stroke:rgb(90,169,230);stroke-width:1px;"/>
            </g>
        </g>
        <g transform="matrix(0.760012,0,0,0.760012,16.835,8.11896)">
            <path d="M48.497,88L71.014,75L71.014,65L48.497,78L48.497,88Z" style="fill:rgb(156,137,184);stroke:rgb(62,54,63);stroke-width:0.66px;"/>
        </g>
        <g transform="matrix(0.760012,0,0,0.760012,16.835,8.11896)">
            <path d="M48.497,78L48.497,68L71.014,55L71.014,65L48.497,78Z" style="fill:rgb(254,144,173);stroke:rgb(62,54,63);stroke-width:0.66px;"/>
        </g>
        <g transform="matrix(0.760012,0,0,0.760012,16.835,8.11896)">
            <path d="M48.497,68L48.497,58L71.014,45L71.014,55L48.497,68Z" style="fill:rgb(254,144,173);stroke:rgb(62,54,63);stroke-width:0.66px;"/>
        </g>
        <g transform="matrix(0.760012,0,0,0.760012,16.835,8.11896)">
            <path d="M48.497,58L48.497,48L71.014,35L71.014,45L48.497,58Z" style="fill:rgb(254,144,173);stroke:rgb(62,54,63);stroke-width:0.66px;"/>
        </g>
        <g transform="matrix(0.760012,0,0,0.760012,16.835,8.11896)">
            <path d="M48.497,48L20.785,32L20.785,42L48.497,58L48.497,48Z" style="fill:rgb(214,87,128);stroke:rgb(62,54,63);stroke-width:0.66px;"/>
        </g>
        <g transform="matrix(0.760012,0,0,0.760012,16.835,8.11896)">
            <path d="M20.785,42L20.785,52L48.497,68L48.497,58L20.785,42Z" style="fill:rgb(214,87,128);stroke:rgb(62,54,63);stroke-width:0.66px;"/>
        </g>
        <g transform="matrix(0.760012,0,0,0.760012,16.835,8.11896)">
            <path d="M20.785,52L20.785,62L48.497,78L48.497,68L20.785,52Z" style="fill:rgb(214,87,128);stroke:rgb(62,54,63);stroke-width:0.66px;"/>
        </g>
        <g transform="matrix(0.760012,0,0,0.760012,16.835,8.11896)">
            <path d="M20.785,62L20.785,72L48.497,88L48.497,78L20.785,62Z" style="fill:rgb(87,69,114);stroke:rgb(62,54,63);stroke-width:0.66px;"/>
        </g>
        <g transform="matrix(0.760012,0,0,0.760012,16.835,8.11896)">
            <path d="M39.837,43L39.837,33L20.785,22L20.785,32L39.837,43Z" style="fill:rgb(214,87,128);stroke:rgb(62,54,63);stroke-width:0.66px;"/>
        </g>
        <g transform="matrix(0.760012,0,0,0.760012,16.835,8.11896)">
            <path d="M48.497,48L71.014,35L62.354,30L39.837,43L48.497,48Z" style="fill:rgb(247,199,219);stroke:rgb(62,54,63);stroke-width:0.66px;"/>
        </g>
        <g transform="matrix(0.760012,0,0,0.760012,16.835,8.11896)">
            <path d="M39.837,43L62.354,30L62.354,20L39.837,33L39.837,43Z" style="fill:rgb(254,144,173);stroke:rgb(62,54,63);stroke-width:0.66px;"/>
        </g>
        <g transform="matrix(0.760012,0,0,0.760012,16.835,8.11896)">
            <path d="M39.837,33L62.354,20L43.301,9L20.785,22L39.837,33Z" style="fill:rgb(247,199,219);stroke:rgb(62,54,63);stroke-width:0.66px;"/>
        </g>
    </g>
</svg>
